<svg xmlns="http://www.w3.org/2000/svg" viewBox="0 0 412.57 511.74"><defs><style>.cls-1{fill:#2d3242;}</style></defs><g id="Calque_2" data-name="Calque 2"><g id="portrait_rybin" data-name="portrait rybin"><path class="cls-1" d="M80.77,203.9a30.14,30.14,0,0,1,4.74-4.77,53.78,53.78,0,0,1,5.31-3.81c1.81-1.16,3.65-2.23,5.52-3.26s3.77-2.06,5.9-3a18.48,18.48,0,0,1-4,5.53A31.47,31.47,0,0,1,93,198.69a43.06,43.06,0,0,1-5.8,3.1A29.58,29.58,0,0,1,80.77,203.9Z"/><path class="cls-1" d="M69.16,245.83a23.55,23.55,0,0,1-2.37-4.6A17.2,17.2,0,0,1,65.62,236a12.8,12.8,0,0,1,.92-5.62,18.55,18.55,0,0,1,2.92-4.6c.55-.66,1.09-1.28,1.63-1.89.27-.3.52-.6.74-.9l.72-1,2.84-4c1.87-2.74,3.84-5.42,5.64-8.26a30.18,30.18,0,0,1-1.48,4.85c-.6,1.58-1.25,3.14-2,4.67s-1.45,3-2.29,4.53c-.2.37-.42.75-.65,1.13l-.7,1.12c-.47.73-1,1.42-1.41,2.09A26.3,26.3,0,0,0,70.17,232a13.54,13.54,0,0,0-1.09,4.1C68.74,239.05,69.17,242.35,69.16,245.83Z"/><path class="cls-1" d="M84.16,179.66a1.52,1.52,0,0,1,.67,0,1.31,1.31,0,0,1,.66.48,2.65,2.65,0,0,1,.39,1.53c0,.24,0,.46,0,.67l0,.56c0,.37-.07.73-.11,1.09a40.35,40.35,0,0,1-.75,4.17,38.89,38.89,0,0,1-1.19,4.06,21.93,21.93,0,0,1-1.92,4.17,11.29,11.29,0,0,1-1.19-4.59,15.19,15.19,0,0,1,.41-4.56A15.8,15.8,0,0,1,82.72,183c.2-.33.4-.66.63-1,.11-.16.22-.32.34-.47l.3-.37a3.21,3.21,0,0,0,.46-.63C84.58,180.33,84.45,180,84.16,179.66Z"/><path class="cls-1" d="M71.74,169.12a10.27,10.27,0,0,1,3.57,2.51c.51.48,1,.93,1.48,1.31a8,8,0,0,0,1.5.9,28.59,28.59,0,0,0,3.62,1.29,37,37,0,0,1,4,1.55A41.72,41.72,0,0,1,93.29,181a39.55,39.55,0,0,1,6.33,5.75,58.78,58.78,0,0,1-7.92-3l-7.43-3.44c-1.23-.57-2.44-1.1-3.7-1.65a17.87,17.87,0,0,1-4-2.19,8.59,8.59,0,0,1-1.71-1.75,12.33,12.33,0,0,1-1.15-1.94A21.38,21.38,0,0,0,71.74,169.12Z"/><path class="cls-1" d="M63.46,177.6a3.57,3.57,0,0,1-3-.39,9.54,9.54,0,0,1-2.36-2,23.08,23.08,0,0,1-3.43-5.09,24.59,24.59,0,0,1-2-5.91,14.23,14.23,0,0,1-.29-3.23,11.55,11.55,0,0,1,.58-3.35A24.46,24.46,0,0,1,56,152,37.69,37.69,0,0,1,59.61,147a14.33,14.33,0,0,1,5.55-3.89,10.78,10.78,0,0,1,3.56-.69,9.69,9.69,0,0,1,3.64.66c1.08.43,1.92.87,2.83,1.29l2.68,1.27,2.71,1.28a15.36,15.36,0,0,1,2.88,1.7,20.55,20.55,0,0,1,2.35,2.27c.65.7,1.3,1.36,2,2,1.4,1.28,2.89,2.49,4.44,3.65s3.19,2.24,4.82,3.35a18.12,18.12,0,0,1,2.52,2,7.83,7.83,0,0,1,1.85,2.83,14,14,0,0,0,1.16,2.59,11.43,11.43,0,0,0,6.72,5.08,11,11,0,0,1-5.7-2,11.36,11.36,0,0,1-2.29-2.15,16.57,16.57,0,0,1-1.67-2.64,5.76,5.76,0,0,0-1.59-2,16.94,16.94,0,0,0-2.36-1.42q-2.64-1.41-5.22-3a41.82,41.82,0,0,1-5-3.58c-.8-.66-1.57-1.38-2.31-2.1a17.82,17.82,0,0,0-2-1.78,15.42,15.42,0,0,0-2.27-1.24l-2.7-1.23-2.71-1.22c-.9-.41-1.83-.85-2.59-1.15-2.77-1.24-6.17.23-8.57,2.78A34.8,34.8,0,0,0,58.85,154a27.31,27.31,0,0,0-2.91,4.72,10.45,10.45,0,0,0-.63,5.15,22.62,22.62,0,0,0,1.2,5.52,23.54,23.54,0,0,0,2.5,5.18,8.92,8.92,0,0,0,1.82,2.18A3.27,3.27,0,0,0,63.46,177.6Z"/><path class="cls-1" d="M64.11,159.13a23.4,23.4,0,0,1,12.4-5.38,14.81,14.81,0,0,1,7.28.77,20.9,20.9,0,0,1,6,3.89c.86.77,1.67,1.55,2.45,2.32a22,22,0,0,1,2.39,2.68,20.84,20.84,0,0,1,1.74,3.1c.47.92,1,1.84,1.51,2.73a42.79,42.79,0,0,0,8.34,9.77,25.59,25.59,0,0,1-10.91-7.95,28.22,28.22,0,0,1-2-2.82,23.59,23.59,0,0,0-1.68-2.53,23.36,23.36,0,0,0-2.11-2.13c-.8-.75-1.58-1.48-2.37-2.17a20.69,20.69,0,0,0-4.86-3.4,13.36,13.36,0,0,0-5.63-1.13A35.89,35.89,0,0,0,64.11,159.13Z"/><path class="cls-1" d="M52,181.16a14.37,14.37,0,0,1-2.48,6.42,59.88,59.88,0,0,1-4.17,5.4c-2.91,3.41-6,6.67-9.2,9.8s-6.53,6.11-10,9c-1.72,1.43-3.48,2.8-5.28,4.18a30.08,30.08,0,0,1-5.84,3.51c1.6-1.61,3.07-3.25,4.5-4.95s2.93-3.39,4.45-5c3-3.29,6.16-6.46,9.35-9.56s6.44-6.13,9.74-9.12c1.64-1.51,3.37-2.91,4.91-4.44A19.36,19.36,0,0,0,52,181.16Z"/><path class="cls-1" d="M15.35,219.48a67.47,67.47,0,0,0-6.22,5.38,22.64,22.64,0,0,0-4.81,6,8.45,8.45,0,0,0-.75,3.32,10.1,10.1,0,0,0,.55,3.41,14.55,14.55,0,0,0,4,6c3.64,3.41,8.74,5.72,13.43,8.65,1.18.72,2.36,1.37,3.58,2.19a12.64,12.64,0,0,1,3.3,3.07,14.76,14.76,0,0,1,2.42,8.17,17.41,17.41,0,0,0-3.92-6.9,10.44,10.44,0,0,0-3.11-2.07L20.08,255c-2.53-1.14-5-2.3-7.5-3.59a32.58,32.58,0,0,1-7.22-4.91A18.68,18.68,0,0,1,2.41,243,16,16,0,0,1,.5,238.72,12.84,12.84,0,0,1,.06,234a10.68,10.68,0,0,1,1.52-4.56,21.11,21.11,0,0,1,6.31-6.07A35,35,0,0,1,15.35,219.48Z"/><path class="cls-1" d="M21.93,236.43a1.33,1.33,0,0,1,.29-1.43,7,7,0,0,1,1.08-1l2.26-1.88a38.91,38.91,0,0,1,4.79-3.56,10.91,10.91,0,0,1,6.22-1.71,8.11,8.11,0,0,1,3.29,1c1,.52,1.78,1.05,2.62,1.57a103.6,103.6,0,0,1,9.62,6.92,16,16,0,0,1,2.42,2.2,5.7,5.7,0,0,1,1.08,1.88,5.85,5.85,0,0,1,.28,2.14,15.49,15.49,0,0,1-.65,3.32c-.29,1-.6,1.95-1,2.91a40.12,40.12,0,0,1-2.61,5.55c-.51.89-1,1.76-1.61,2.61a13.54,13.54,0,0,1-2.11,2.62,6.36,6.36,0,0,1-1.72,1.14,5.07,5.07,0,0,1-2.21.43,6.65,6.65,0,0,1-3.71-1.37A12.7,12.7,0,0,1,38,257.34c-.62-.79-1.15-1.49-1.78-2.18a31.55,31.55,0,0,0-8.81-6.83,24.93,24.93,0,0,0-5.25-2.1,8.72,8.72,0,0,0-5.59.24,8.47,8.47,0,0,1,5.76-1.33,23.49,23.49,0,0,1,5.87,1.4A30,30,0,0,1,38.43,253c.74.69,1.46,1.49,2.1,2.18a10.48,10.48,0,0,0,1.82,1.71,3.06,3.06,0,0,0,1.7.58,1.93,1.93,0,0,0,1.3-.69,12.72,12.72,0,0,0,1.47-2c.51-.78,1-1.58,1.42-2.39a37.58,37.58,0,0,0,2.29-5.05c.33-.87.64-1.74.9-2.63a11.56,11.56,0,0,0,.55-2.38,1.75,1.75,0,0,0-.43-1.39,20.21,20.21,0,0,0-1.88-1.76c-2.86-2.55-5.89-4.92-9-7.25-.77-.57-1.56-1.18-2.27-1.63a6.19,6.19,0,0,0-2.19-.91,8.71,8.71,0,0,0-5,.87,41.45,41.45,0,0,0-5,2.72l-2.54,1.46a6.91,6.91,0,0,0-1.21.76A1.22,1.22,0,0,0,21.93,236.43Z"/><path class="cls-1" d="M30.85,276.09A9.12,9.12,0,0,1,29.19,273a12.14,12.14,0,0,1-.52-3.18,11.67,11.67,0,0,1,.34-3.2,9,9,0,0,1,1.48-3.23,9.12,9.12,0,0,1,1.66,3.14,12.08,12.08,0,0,1,.52,3.18,12.5,12.5,0,0,1-.34,3.2A9.13,9.13,0,0,1,30.85,276.09Z"/><path class="cls-1" d="M41.31,228.21a6.72,6.72,0,0,1,3.1.89c1,.5,1.84,1.14,2.7,1.66a14.76,14.76,0,0,0,2.58,1.35c.92.38,1.89.76,2.91,1.27a15.52,15.52,0,0,1,8.08,10.86A40,40,0,0,1,61,250.7c0,2,.14,4,.3,6,.32,4,1,8.07,1.66,12.23a37.87,37.87,0,0,1-4.76-11.74,44.68,44.68,0,0,1-1-6.32c-.19-2.17-.13-4.21-.47-5.92a14.28,14.28,0,0,0-5.75-8.9c-.77-.55-1.67-1.07-2.57-1.68a16.93,16.93,0,0,1-2.56-2.13C44.39,230.72,43.25,229.1,41.31,228.21Z"/><path class="cls-1" d="M25.39,284.83c.23-.75.52-1.46.8-2.17s.61-1.37,1-2,.44-1.59,1.22-2a3.49,3.49,0,0,1,2.94-.2.38.38,0,0,1,.24.32h0a8.6,8.6,0,0,1,0,1.57,3.48,3.48,0,0,1-.28,1.09c-.22.66-1.06.82-1.66,1.26s-1.22.86-1.87,1.26-1.31.78-2,1.12a.22.22,0,0,1-.29-.1A.22.22,0,0,1,25.39,284.83Z"/><path class="cls-1" d="M29.59,285.43c.49-.7,1-1.34,1.55-2s1.08-1.24,1.65-1.82.94-1.46,1.77-1.65a4,4,0,0,1,1.32-.17,4.58,4.58,0,0,1,1.66.35.35.35,0,0,1,.22.33,4.49,4.49,0,0,1-.33,1.67,4,4,0,0,1-.66,1.15c-.5.69-1.45.68-2.21,1s-1.53.58-2.32.82-1.59.48-2.43.65a.21.21,0,0,1-.25-.16A.2.2,0,0,1,29.59,285.43Z"/><path class="cls-1" d="M35.39,287.6a14.61,14.61,0,0,1,1-1.83,14.24,14.24,0,0,1,1.22-1.64c.44-.51.7-1.32,1.43-1.43a2.94,2.94,0,0,1,1.15,0,4,4,0,0,1,1.44.56.46.46,0,0,1,.2.35,4.75,4.75,0,0,1-.2,1.51,3,3,0,0,1-.46,1c-.34.57-1.13.45-1.73.66s-1.2.41-1.83.6-1.27.39-2,.55a.21.21,0,0,1-.25-.3Z"/><path class="cls-1" d="M41.24,289.43A15.13,15.13,0,0,1,44,285.6c.54-.56.93-1.42,1.76-1.54a3.3,3.3,0,0,1,1.3,0,4,4,0,0,1,1.54.58.35.35,0,0,1,.17.36,5,5,0,0,1-.41,1.56,3.4,3.4,0,0,1-.62,1c-.45.6-1.3.5-2,.75l-2.07.72-2.18.73a.21.21,0,0,1-.27-.14A.22.22,0,0,1,41.24,289.43Z"/><path class="cls-1" d="M46.62,290.59c.41-.64.86-1.21,1.31-1.79s.93-1.11,1.42-1.63.78-1.33,1.52-1.45a3.13,3.13,0,0,1,1.2-.07,4.34,4.34,0,0,1,1.52.46.39.39,0,0,1,.22.33,4.38,4.38,0,0,1-.22,1.58,3.31,3.31,0,0,1-.55,1.06c-.42.62-1.29.55-2,.78s-1.36.44-2.07.62-1.42.34-2.17.45a.22.22,0,0,1-.25-.19A.27.27,0,0,1,46.62,290.59Z"/><path class="cls-1" d="M52.16,291.42a16.48,16.48,0,0,1,1-1.53,14.49,14.49,0,0,1,1.06-1.36c.37-.43.54-1.17,1.16-1.2a2.54,2.54,0,0,1,1,.08,4.11,4.11,0,0,1,1.33.6.5.5,0,0,1,.21.34,4.39,4.39,0,0,1,0,1.45,2.41,2.41,0,0,1-.38.93c-.3.54-1,.37-1.58.52s-1.11.25-1.69.34a15,15,0,0,1-1.8.17.22.22,0,0,1-.24-.22A.27.27,0,0,1,52.16,291.42Z"/><path class="cls-1" d="M56.64,292a9.52,9.52,0,0,1,.73-1.25,9.2,9.2,0,0,1,.85-1.08c.3-.34.45-1,1-.92A2,2,0,0,1,60,289a4.33,4.33,0,0,1,1,.83.59.59,0,0,1,.16.36h0a4.75,4.75,0,0,1,0,1.37,1.92,1.92,0,0,1-.28.8c-.22.44-.8.13-1.23.16a12,12,0,0,1-1.34,0,13.2,13.2,0,0,1-1.46-.18h0a.25.25,0,0,1-.2-.29A.14.14,0,0,1,56.64,292Z"/><path class="cls-1" d="M61.36,292.38a7,7,0,0,1,0-.95,5.15,5.15,0,0,1,.15-.78c.07-.24-.05-.79.25-.61a1.66,1.66,0,0,1,.53.38,6.79,6.79,0,0,1,.84.91,1.45,1.45,0,0,1,.2.34,8.8,8.8,0,0,1,.38,1.18,1.82,1.82,0,0,1,.07.64c0,.35-.42,0-.65-.08a5.59,5.59,0,0,1-.76-.25c-.28-.13-.55-.25-.86-.43A.43.43,0,0,1,61.36,292.38Z"/><path class="cls-1" d="M64.72,293.89a8.94,8.94,0,0,1,.06-.95,4.1,4.1,0,0,1,.17-.78c.07-.23,0-.78.26-.61a2.07,2.07,0,0,1,.52.39,8,8,0,0,1,.82.92,1.75,1.75,0,0,1,.2.35,8.09,8.09,0,0,1,.36,1.18,1.79,1.79,0,0,1,.06.64c0,.35-.42,0-.65-.09a4.19,4.19,0,0,1-.75-.26,7.82,7.82,0,0,1-.86-.44A.42.42,0,0,1,64.72,293.89Z"/><path class="cls-1" d="M68.55,295.4c-.09-.32-.13-.59-.18-.86a3.58,3.58,0,0,1-.07-.69c0-.21-.22-.71,0-.54a2.35,2.35,0,0,1,.5.37,11.85,11.85,0,0,1,.86.87,1.91,1.91,0,0,1,.24.32,11.22,11.22,0,0,1,.57,1.08,2.63,2.63,0,0,1,.21.58c.08.31-.33,0-.53-.11a4.11,4.11,0,0,1-.65-.27,6.15,6.15,0,0,1-.76-.43A.55.55,0,0,1,68.55,295.4Z"/><path class="cls-1" d="M72.16,295.22a2.74,2.74,0,0,0,0-.84,2,2,0,0,0-.16-.59,1.64,1.64,0,0,0-.22-.31c-.08-.1-.1-.1,0,0a3.66,3.66,0,0,0,.46.37,7.81,7.81,0,0,0,1.06.58l0,0a1.75,1.75,0,0,1,.29.18,3.23,3.23,0,0,1,.83.92,1.24,1.24,0,0,1,.2.68.27.27,0,0,1-.32.27c-.19,0-.39-.06-.54-.06a2,2,0,0,1-.88-.21,2.14,2.14,0,0,1-.74-.61.44.44,0,0,1-.07-.35Z"/><path class="cls-1" d="M30.07,286.52c.26,2.09.41,4.24,1.33,5.81s2.45,2.49,4.21,3.58,3.49,2.19,5.23,3.16a48.15,48.15,0,0,0,5.36,2.57c3.72,1.57,7.82,3,11.41,5.73a16.51,16.51,0,0,1,6.72,10.93A21.41,21.41,0,0,0,55.88,310c-3.4-1.89-7.3-3-11.23-4.69a35,35,0,0,1-5.78-3,54.34,54.34,0,0,1-5.09-3.86,19.73,19.73,0,0,1-2.43-2.28,8.26,8.26,0,0,1-1.77-3.12A12,12,0,0,1,30.07,286.52Z"/><path class="cls-1" d="M40.81,325.55a24.29,24.29,0,0,1,3.91-2.1c1.27-.54,2.53-1,3.8-1.43a39.87,39.87,0,0,1,3.9-1.08,23,23,0,0,1,4.4-.61,10.29,10.29,0,0,1-3.07,3.46,14.05,14.05,0,0,1-4,2,14.23,14.23,0,0,1-4.44.71A10.24,10.24,0,0,1,40.81,325.55Z"/><path class="cls-1" d="M43.24,318.18a12.41,12.41,0,0,0-6.32,8.2,10.47,10.47,0,0,0-.23,2.41c0,.41.1.63.11.6s.19.21.56.53a49.56,49.56,0,0,0,4.21,3.48c2.94,2.21,6.12,4.39,9.12,6.77,1.51,1.18,3,2.43,4.43,3.68a12.7,12.7,0,0,1,2.11,2.21,4.6,4.6,0,0,1,.68,1.43,2.62,2.62,0,0,1,0,1.52,3.23,3.23,0,0,0-1.45-2.19A13.06,13.06,0,0,0,54,345.49c-1.71-.88-3.43-1.76-5.09-2.7a93.86,93.86,0,0,1-9.79-6.2,34.38,34.38,0,0,1-4.47-4,5.9,5.9,0,0,1-1.22-1.7,4.45,4.45,0,0,1-.28-2.21,11.76,11.76,0,0,1,4.5-8.3A10,10,0,0,1,43.24,318.18Z"/><path class="cls-1" d="M46.13,342.22c-.63,5.93-3.26,11.51-3.41,17a16.44,16.44,0,0,0,.33,3.94,12.07,12.07,0,0,0,1.38,3.54c.66,1.13,1.48,2.29,2.33,3.51l2.47,3.63a37.68,37.68,0,0,0,2.42,3.39,9.47,9.47,0,0,0,1.28,1.32,8.31,8.31,0,0,0,.69.52l.9.58A44.69,44.69,0,0,0,62,383.43a42.21,42.21,0,0,0,8.18,2.29c2.84.46,5.82.87,8.7,1.49-3,.27-5.85.39-8.86.46a34.43,34.43,0,0,1-9-1.27,36.67,36.67,0,0,1-8.46-3.53l-1-.57a12.4,12.4,0,0,1-1.09-.76,14.13,14.13,0,0,1-1.85-1.76A39.76,39.76,0,0,1,45.91,376l-2.43-3.66a45.64,45.64,0,0,1-2.38-3.92,14.59,14.59,0,0,1-1.52-4.72,17.34,17.34,0,0,1,0-4.83,31.14,31.14,0,0,1,2.79-8.69C43.67,347.53,45,345,46.13,342.22Z"/><path class="cls-1" d="M80.24,386.89a38.29,38.29,0,0,1,6.42-4,65,65,0,0,1,14-5.16,37.77,37.77,0,0,1,7.53-1.11,37.33,37.33,0,0,1-6.42,4.05,61.63,61.63,0,0,1-6.83,3,63.83,63.83,0,0,1-7.13,2.17A37.77,37.77,0,0,1,80.24,386.89Z"/><path class="cls-1" d="M80.24,386.89a33,33,0,0,1,8.79-1.6,53.74,53.74,0,0,1,9,.38c3,.33,5.89.88,8.78,1.48s5.76,1.24,8.66,2.1a43.36,43.36,0,0,1,8.46,3.46c2.66,1.46,5.12,3.09,7.56,4.64a45.79,45.79,0,0,0,7.56,4c.67.29,1.38.59,2.06.94a21.86,21.86,0,0,1,1.95,1.17,23,23,0,0,1,3.6,2.6,34.22,34.22,0,0,0-4-1.83,21.1,21.1,0,0,0-4.17-1.07,34.22,34.22,0,0,1-8.51-3.08c-2.7-1.29-5.24-2.75-7.79-4a49.7,49.7,0,0,0-7.87-3c-2.73-.82-5.55-1.5-8.39-2.24s-5.62-1.44-8.44-2.1A66,66,0,0,0,80.24,386.89Z"/><path class="cls-1" d="M237.28,305.51a34.37,34.37,0,0,1-1.74,4.4c-.7,1.42-1.48,2.8-2.3,4.15s-1.71,2.66-2.59,4-1.76,2.6-2.71,3.9a38.63,38.63,0,0,1-6.66,7c-2.46,2.06-5,3.87-7.54,5.75l-7.53,5.6-7.52,5.68c-2.55,1.89-5.18,3.64-7.8,5.41s-5.39,3.4-8.12,5a175.22,175.22,0,0,1-17.06,8.41,160.7,160.7,0,0,1-17.91,6.34,135,135,0,0,1-18.54,4.1c-6.35.85-12.69.35-18.92-.28,6.27-.26,12.58-.3,18.61-1.66l4.51-1.07c1.51-.41,3-.81,4.5-1.26,3-.89,6-1.79,8.91-2.81,5.88-2,11.67-4.27,17.33-6.83a185.61,185.61,0,0,0,16.59-8.41c2.71-1.54,5.37-3.08,8-4.78s5.19-3.44,7.74-5.21l7.66-5.44c2.57-1.83,5.2-3.57,7.8-5.31,5.21-3.55,10.55-6.69,14.47-11.41,2-2.35,4-4.81,5.91-7.26A43.2,43.2,0,0,0,237.28,305.51Z"/><path class="cls-1" d="M253.69,293a27.6,27.6,0,0,1-1.57,9.59c-1.05,3.1-2.25,6.05-3.53,9a48.1,48.1,0,0,1-4.73,8.69c-.49.71-1,1.32-1.46,1.94l-1.46,1.85a36.86,36.86,0,0,0-2.55,3.86,53.37,53.37,0,0,1-6,7.84l-3.27,3.5a45.18,45.18,0,0,0-2.89,3.56c-1.84,2.51-3.6,5.24-5.76,7.74a22.33,22.33,0,0,1-3.63,3.37,14.17,14.17,0,0,1-4.39,2.13,19.26,19.26,0,0,0,6.45-6.68c1.68-2.62,3-5.5,4.73-8.29a30.24,30.24,0,0,1,2.84-4.12l3.06-3.69a65.86,65.86,0,0,0,5.48-7.47l1.29-2.05a17.48,17.48,0,0,1,1.48-2l3.06-3.7a59.3,59.3,0,0,0,5-7.81l2.28-4.19c.77-1.39,1.52-2.78,2.23-4.19A37.23,37.23,0,0,0,253.69,293Z"/><path class="cls-1" d="M155.35,410a72.4,72.4,0,0,1,31.15-40.24c3.62-2.42,7.24-4.64,10.91-6.88l11-6.71a14.57,14.57,0,0,1,3.21-1.62q.45-.15.9-.27a5.81,5.81,0,0,0,.68-.19,7.58,7.58,0,0,0,1.22-.49l.59-.31.69-.41,1.38-.8,2.76-1.63c3.65-2.18,7.23-4.44,10.63-6.89a73.42,73.42,0,0,0,9.61-8,103.16,103.16,0,0,0,8.21-9.57c5.34-6.69,10.62-13.45,16-20.1l8.08-10a92.19,92.19,0,0,1,8.79-9.56c6.35-5.87,13.33-10.83,18.84-17.44-4.81,7.17-11.63,12.71-17.46,18.84a90.8,90.8,0,0,0-8.1,9.78l-7.68,10.3c-5.1,6.89-10.32,13.68-15.49,20.52a100.88,100.88,0,0,1-8.42,10,78,78,0,0,1-10.06,8.5c-3.56,2.53-7.26,4.81-11,7l-2.8,1.62-1.39.8-.7.4c-.26.15-.55.31-.83.44a12.64,12.64,0,0,1-1.76.7c-.28.09-.65.18-.87.23l-.64.19a12,12,0,0,0-2.53,1.24c-7.37,4.31-14.84,8.57-22.12,12.95A77.24,77.24,0,0,0,155.35,410Z"/><path class="cls-1" d="M237,305.8a23.4,23.4,0,0,1,.25-6.65,42.3,42.3,0,0,1,1.58-6.27,49.34,49.34,0,0,1,2.41-6,29.2,29.2,0,0,1,3.51-5.6,28.59,28.59,0,0,1-.52,6.59,47,47,0,0,1-1.6,6.23,54.71,54.71,0,0,1-2.39,5.95A38.21,38.21,0,0,1,237,305.8Z"/><path class="cls-1" d="M245.6,281.51a3.52,3.52,0,0,1-2.73-3.62,11.34,11.34,0,0,1,.21-2.09,13.17,13.17,0,0,1,.52-1.89,12.25,12.25,0,0,1,1.87-3.44,9.07,9.07,0,0,1,3.15-2.62,15.4,15.4,0,0,1-.3,3.95,23.31,23.31,0,0,1-1,3.45c-.19.56-.42,1.1-.66,1.65a16.37,16.37,0,0,1-.73,1.5A3.87,3.87,0,0,0,245.6,281.51Z"/><path class="cls-1" d="M255,297.6a2.85,2.85,0,0,1-2.08-.11,2.38,2.38,0,0,1-1.12-1.14,2.32,2.32,0,0,1-.13-1.59,2.41,2.41,0,0,1,.16-.42c.06-.19.17-.19.31-.17s.45.27.9-.09c.18-.13.19-.37.14-.41a.13.13,0,0,0-.14-.05l-.15,0s-.1,0-.09.07,0,0,.07,0,0,.05,0,.09-.11.09-.16.08a.82.82,0,0,1-.25-.08.4.4,0,0,1-.16-.21.5.5,0,0,1,.21-.54.69.69,0,0,1,.28-.13.34.34,0,0,1,.18,0,1,1,0,0,1,.4.06,2.14,2.14,0,0,1,.52.32c.24.21.38.42.48.44l.32.18a1.86,1.86,0,0,1,.73.76,2,2,0,0,1,.09,1.06A8.91,8.91,0,0,1,255,297.6Z"/><path class="cls-1" d="M252.9,294.22a3.85,3.85,0,0,1,.72-2.86,7.84,7.84,0,0,1,2.18-2.05c.79-.52,1.57-.92,2.23-1.31.32-.18.68-.39,1.19-.64a5.85,5.85,0,0,1,1.86-.48,24.73,24.73,0,0,1,2.68.11c.81.06,1.63.1,2.47.18a24.38,24.38,0,0,1,5.24.92,15.81,15.81,0,0,1-5,2.21,16.07,16.07,0,0,1-2.67.48c-.46.05-.92.06-1.38.08a9.22,9.22,0,0,0-1.09,0,1.73,1.73,0,0,0-.63.13c-.27.08-.67.28-1.14.45a22.07,22.07,0,0,1-2.5.71,13.67,13.67,0,0,0-2.17.66A5.31,5.31,0,0,0,252.9,294.22Z"/><path class="cls-1" d="M259.63,294.74a2.34,2.34,0,0,1,1.1-2,6.73,6.73,0,0,1,1.93-.91,14.89,14.89,0,0,1,5.28-.73c.57,0,1.09.07,1.61.13s1,.1,1.54.11a4.49,4.49,0,0,0,1.78-.27,3,3,0,0,1-.88,2,5.64,5.64,0,0,1-1.83,1.22,8.68,8.68,0,0,1-1.92.57,15.34,15.34,0,0,1-1.77.24,14.31,14.31,0,0,1-3.57-.17l-1.57-.35A2.6,2.6,0,0,0,259.63,294.74Z"/><path class="cls-1" d="M253.32,294a10.29,10.29,0,0,1-1.65-3.49,22.15,22.15,0,0,1-.61-3.86,71.19,71.19,0,0,1-.18-7.74,47.83,47.83,0,0,1,3-15.37,57.61,57.61,0,0,1,3.35-7.09l3.69-6.72a35.16,35.16,0,0,1,4.47-6.69,33.8,33.8,0,0,1,2.9-2.85c1-.86,2-1.7,3-2.52a28.09,28.09,0,0,1,7.1-4.12,17.32,17.32,0,0,1,4.19-1,21.4,21.4,0,0,1,4.17,0c1.32.14,2.54.23,4,.5A9.17,9.17,0,0,1,295,235a10.52,10.52,0,0,1,2.78,3.55,18.92,18.92,0,0,1,1.37,4,31.46,31.46,0,0,1,.66,4,12.93,12.93,0,0,1-.23,4.21,31,31,0,0,1-1.15,3.81l-1.25,3.62c-1.73,4.81-3.45,9.62-5.34,14.38,1-5,2.25-10,3.45-14.94l.94-3.72a29.41,29.41,0,0,0,.77-3.6,11.47,11.47,0,0,0,0-3.41,30.4,30.4,0,0,0-.81-3.52c-.69-2.27-1.75-4.4-3.31-5.56a5.66,5.66,0,0,0-2.72-1.08c-1.06-.16-2.39-.23-3.61-.32a21.14,21.14,0,0,0-3.48,0,12.74,12.74,0,0,0-3.21.82,24.49,24.49,0,0,0-6,3.63,45.65,45.65,0,0,0-5.47,4.81,36.13,36.13,0,0,0-4.1,6c-2.58,4.4-5.38,8.7-7.44,13.13a51.59,51.59,0,0,0-3.89,14.34c-.35,2.49-.54,5-.66,7.55a21.43,21.43,0,0,0,.1,3.76A9.88,9.88,0,0,0,253.32,294Z"/><path class="cls-1" d="M307,356.74c2.37-4.63,4.61-9.26,6.5-14,1-2.37,1.87-4.75,2.67-7.17s1.57-4.83,2.22-7.28c1.38-4.88,2.27-9.86,3.33-15,.55-2.55,1.16-5.11,1.95-7.65a44.44,44.44,0,0,1,3-7.44l2.65,1.49-1,1.41-6.8,9.19,4.24-10.49c.56-1.38,1.16-2.74,1.75-4.11s1.18-2.74,1.82-4.09a53.2,53.2,0,0,1,4.34-7.9c-1,2.82-1.88,5.65-2.69,8.51s-1.63,5.73-2.5,8.57l-2.56-1.29.91-1.5,2.65,1.49a59.74,59.74,0,0,0-2.27,7.13c-.6,2.45-1.08,4.94-1.57,7.46A123.61,123.61,0,0,1,322,329.35c-.82,2.51-1.71,5-2.73,7.42s-2.17,4.78-3.42,7.09A72.13,72.13,0,0,1,307,356.74Z"/><path class="cls-1" d="M351.47,255.78a22.54,22.54,0,0,1-2.76,8.68,52.91,52.91,0,0,1-4.94,7.48c-1.79,2.34-3.65,4.54-5.46,6.78s-3.56,4.49-5.32,7a22.23,22.23,0,0,1,2.68-8.71,50.9,50.9,0,0,1,4.94-7.5c1.79-2.33,3.67-4.53,5.49-6.76S349.68,258.26,351.47,255.78Z"/><path class="cls-1" d="M351,257a41.55,41.55,0,0,1-2-8.13,67,67,0,0,1-.5-16.5,41.82,41.82,0,0,1,1.56-8.24,51,51,0,0,1,1.59,8.21c.32,2.73.51,5.45.59,8.18s0,5.46-.11,8.2A51.8,51.8,0,0,1,351,257Z"/><path class="cls-1" d="M299.92,268.54a123.93,123.93,0,0,1,5.76-12.61q3.17-6.12,6.73-12a19.89,19.89,0,0,0,2.65-5.57,30.74,30.74,0,0,0,.43-3.18q.19-1.71.42-3.42a121.14,121.14,0,0,1,2.44-13.64A121.36,121.36,0,0,1,319,232c0,1.15,0,2.3,0,3.44a25.51,25.51,0,0,1-.22,3.67,20.07,20.07,0,0,1-3,6.92q-3.56,5.9-7.47,11.57A124.76,124.76,0,0,1,299.92,268.54Z"/><path class="cls-1" d="M317.84,218.39a14.36,14.36,0,0,1-1.64-6.66,28,28,0,0,1,.73-6.69,53.49,53.49,0,0,1,1.85-6.24c.73-2,1.5-4,2.45-6.13a18,18,0,0,1,.63,6.77,45,45,0,0,1-1,6.47c-.47,2.09-1,4.11-1.52,6.14S318.33,216.12,317.84,218.39Z"/><path class="cls-1" d="M349.12,211.67c-.27-2.55.36-5.13.64-7.55a16.44,16.44,0,0,0-.43-6.9,22.63,22.63,0,0,0-2.92-6.24,44.15,44.15,0,0,0-4.54-5.56,23.77,23.77,0,0,1-2.44-3.27,17.6,17.6,0,0,1-1.67-3.83c-.79-2.59-1.13-5.08-1.67-7.41A24.57,24.57,0,0,0,329,158.54,19.91,19.91,0,0,1,339.11,170c.89,2.47,1.43,4.93,2.24,7.09a16.34,16.34,0,0,0,3.54,5.69c.78.92,1.64,1.85,2.48,2.9a26.1,26.1,0,0,1,2.26,3.31,22,22,0,0,1,2.77,7.58,16.63,16.63,0,0,1-.74,8C350.81,207,349.74,209.2,349.12,211.67Z"/><path class="cls-1" d="M291.18,222.5a35.53,35.53,0,0,1,5.71,4.61,59.14,59.14,0,0,1,4.83,5.32c.75.93,1.47,1.88,2.17,2.86s1.34,2,2,2.89a20.14,20.14,0,0,0,4.75,5,10.4,10.4,0,0,1-7.08-2.85,30.59,30.59,0,0,1-2.6-2.63c-.8-.88-1.57-1.8-2.33-2.73a59.45,59.45,0,0,1-4.15-5.86A35,35,0,0,1,291.18,222.5Z"/><path class="cls-1" d="M284.34,190.78c2.1,1.38,3.92,2.87,5.74,4.33l2.68,2.22a20.11,20.11,0,0,0,2.47,1.9,8.07,8.07,0,0,0,5.37.84,18.18,18.18,0,0,0,6.21-2.55,10,10,0,0,1-5.25,5.55,9.19,9.19,0,0,1-8.38-.41,14.65,14.65,0,0,1-3-2.58,29.89,29.89,0,0,1-2.35-2.81A23,23,0,0,1,284.34,190.78Z"/><path class="cls-1" d="M299.48,202.51a6,6,0,0,1,3.44.61,8.43,8.43,0,0,1,2.78,2.38,29.38,29.38,0,0,1,1.82,2.73c.52.84,1,1.59,1.63,2.38,1.15,1.53,2.52,3.22,3.69,4.92a23.75,23.75,0,0,0,4,4.75,7.22,7.22,0,0,1-3.37-.73,14.26,14.26,0,0,1-2.89-1.85c-.88-.71-1.64-1.43-2.42-2.19a23.5,23.5,0,0,1-2.2-2.52,16.34,16.34,0,0,1-1.77-3c-.46-1-.8-2-1.16-2.89a10.45,10.45,0,0,0-1.3-2.45A9.56,9.56,0,0,0,299.48,202.51Z"/><path class="cls-1" d="M279.2,215.38a29.18,29.18,0,0,1,4.81,1.84c.74.34,1.48.73,2.16,1.07a8.71,8.71,0,0,0,1.76.73,4.91,4.91,0,0,0,1.65.13c.66,0,1.46-.16,2.27-.24a31.62,31.62,0,0,1,5.14-.21,13.09,13.09,0,0,1-4.23,3.22,12,12,0,0,1-2.57,1,6.7,6.7,0,0,1-3.3,0,8.14,8.14,0,0,1-2.73-1.38,16.54,16.54,0,0,1-2-1.74A13.52,13.52,0,0,1,279.2,215.38Z"/><path class="cls-1" d="M313.66,146.27a7.1,7.1,0,0,0-3.81,4.61,14.23,14.23,0,0,0-.67,2.94c-.11,1-.23,2.06-.25,3.09a39.6,39.6,0,0,0,1.65,12.17,72.3,72.3,0,0,0,4.67,11.67c1.86,3.84,4,7.63,5.83,11.65a60.65,60.65,0,0,1-8.55-10.08,43.26,43.26,0,0,1-5.79-12.14,30.68,30.68,0,0,1-.92-13.61,24.25,24.25,0,0,1,.81-3.34,15.67,15.67,0,0,1,1.46-3.2,9.56,9.56,0,0,1,2.36-2.63A5.45,5.45,0,0,1,313.66,146.27Z"/><path class="cls-1" d="M313.72,147.08c.85,1.85,1.57,3.47,2.42,5a33.75,33.75,0,0,0,2.7,4.25c.49.66,1,1.31,1.55,1.93.27.33.56.55.82.86a7.11,7.11,0,0,0,.83.82,10.85,10.85,0,0,0,4.67,2.17,6.62,6.62,0,0,1-6.17.6c-.26-.11-.53-.22-.78-.35l-.68-.43a14.46,14.46,0,0,1-1.33-.95,13,13,0,0,1-2.12-2.27,13.42,13.42,0,0,1-2.46-5.63A10.38,10.38,0,0,1,313.72,147.08Z"/><path class="cls-1" d="M327.55,160.78a19.2,19.2,0,0,0-1.45-6.84,41.63,41.63,0,0,0-3.14-6,23,23,0,0,0-1.75-2.69,4.71,4.71,0,0,0-.9-.84,5.69,5.69,0,0,0-1.26-.61,7.14,7.14,0,0,0-2.93-.52,2.37,2.37,0,0,0-2.19,1.93,2.36,2.36,0,0,1-.05-2.05,3.69,3.69,0,0,1,1.52-1.71,5.59,5.59,0,0,1,2.16-.7,8.94,8.94,0,0,1,2.13,0,7.61,7.61,0,0,1,2.2.54,7.1,7.1,0,0,1,2,1.34,16,16,0,0,1,2.47,3.27,19.63,19.63,0,0,1,2.75,7.32A10.5,10.5,0,0,1,327.55,160.78Z"/><path class="cls-1" d="M289.28,153.27a7.19,7.19,0,0,0,.31,5.49c.32.88.7,1.74,1.12,2.64l1.2,2.68a41.77,41.77,0,0,0,2.58,5,22.16,22.16,0,0,0,3.38,4.2c1.3,1.31,2.77,2.61,4.2,3.89s2.92,2.53,4.41,3.78c3,2.51,6.07,4.89,9.19,7.44a44.43,44.43,0,0,1-11-4.87,56.59,56.59,0,0,1-5-3.42,49.16,49.16,0,0,1-4.62-4A21.23,21.23,0,0,1,291.2,171a29.35,29.35,0,0,1-2.24-5.81,46.43,46.43,0,0,1-1.28-5.95,10.69,10.69,0,0,1,.11-3.19,6,6,0,0,1,.54-1.51A4.76,4.76,0,0,1,289.28,153.27Z"/><path class="cls-1" d="M289.69,150.61c1.06,1.62,1.88,3.1,2.78,4.46a29.45,29.45,0,0,0,2.79,3.71,17,17,0,0,0,3.35,2.88,22.49,22.49,0,0,0,4.58,2.17,7.67,7.67,0,0,1-5.73.75,9.85,9.85,0,0,1-2.83-1.17,11.18,11.18,0,0,1-2.33-1.95,12,12,0,0,1-2.72-5.19A10.46,10.46,0,0,1,289.69,150.61Z"/><path class="cls-1" d="M304.92,164a2.76,2.76,0,0,0,0-2.81,3.83,3.83,0,0,0-.76-1,12.18,12.18,0,0,0-1.06-.9,23.07,23.07,0,0,1-2.67-2.15,17.51,17.51,0,0,1-2.21-2.86,26.81,26.81,0,0,0-1.68-2.44,6.43,6.43,0,0,0-1.84-1.62,3.3,3.3,0,0,0-1-.38,2.63,2.63,0,0,0-1.16.1,2.57,2.57,0,0,0-1.92,2,2.39,2.39,0,0,1-.24-1.87,4,4,0,0,1,1.08-1.76,4.25,4.25,0,0,1,1.92-1.06,5,5,0,0,1,2.27,0c3,.65,4.77,3.06,5.93,4.89.6.94,1.13,1.8,1.68,2.52s1.33,1.49,2.09,2.48a8.77,8.77,0,0,1,1,1.68,5,5,0,0,1,.47,2,4.21,4.21,0,0,1-.46,2A2.32,2.32,0,0,1,304.92,164Z"/><path class="cls-1" d="M300.61,153.33c.52-.22,1-.3,1.29-.49a.86.86,0,0,0,.36-.26c.1-.09,0-.17.17-.27a1.8,1.8,0,0,1,1.15-.2,2.86,2.86,0,0,1,1.39.57,6.11,6.11,0,0,1,1,1,5.18,5.18,0,0,1,1,2.22,4.57,4.57,0,0,1-.33,2.76,8.19,8.19,0,0,1-2.37-1.13,6.56,6.56,0,0,1-1.47-1.4c-.18-.22-.46-.64-.4-.65s.19.06.45.06.28-.13.06-.15a3.71,3.71,0,0,1-.92-.22,2.11,2.11,0,0,1-.72-.48A2.8,2.8,0,0,1,300.61,153.33Z"/><path class="cls-1" d="M284.39,171.67a6.4,6.4,0,0,1,2.72-.1,10.83,10.83,0,0,1,2.56.84,25.14,25.14,0,0,1,4.18,2.64,41.68,41.68,0,0,0,3.55,2.48c1.25.75,2.69,1.4,4.29,2.28a8.91,8.91,0,0,1-5.3.7,11.58,11.58,0,0,1-4.92-2.25,29.32,29.32,0,0,1-3.58-3.27A36.53,36.53,0,0,0,284.39,171.67Z"/><path class="cls-1" d="M283.24,168.57a1.18,1.18,0,0,1,.89-.43,4.71,4.71,0,0,1,.95.07,6.23,6.23,0,0,1,1.51.41,7.55,7.55,0,0,1,2.49,1.7,7.32,7.32,0,0,1,1.59,2.55,5.76,5.76,0,0,1,.25,3.25,10.83,10.83,0,0,1-2.77-1.37,11.84,11.84,0,0,1-2-1.66,12.56,12.56,0,0,1-1.58-2,12.29,12.29,0,0,1-.67-1.26l-.24-.63A1,1,0,0,0,283.24,168.57Z"/><path class="cls-1" d="M223.75,237.67A5.7,5.7,0,0,1,228,242c.18.66.32,1.27.43,1.91a73.12,73.12,0,0,1,.81,7.34,35.6,35.6,0,0,0,1.1,6.76,37.44,37.44,0,0,0,2.69,6.71,13.35,13.35,0,0,1-5.59-5.48,18.64,18.64,0,0,1-2.18-7.65,53,53,0,0,1,.05-7.47l.1-1.79a7.73,7.73,0,0,0,0-1.54A10.16,10.16,0,0,0,223.75,237.67Z"/><path class="cls-1" d="M233.5,264.67a28,28,0,0,0,4.88,2.2,8.4,8.4,0,0,0,5.05.18,10.08,10.08,0,0,0,4.21-2.72,27.82,27.82,0,0,0,3.22-4.11c1-1.48,2-3,2.85-4.46A31.24,31.24,0,0,0,255.8,251a35.5,35.5,0,0,1,2.33-5.07,52.86,52.86,0,0,1,3-4.66c2.11-3,4.37-5.79,6.36-8.66a74.14,74.14,0,0,0,5.33-9.06,77.35,77.35,0,0,0,4.06-9.68,104.92,104.92,0,0,0,2.82-10.19c.81-3.45,1.56-7,2.3-10.47a56.36,56.36,0,0,0,1.3-10.33,32.83,32.83,0,0,0-1.09-10.1,23.18,23.18,0,0,0-13-14.57,36.2,36.2,0,0,0-4.94-1.64c-1.71-.44-3.49-.9-5.17-1.26a11.76,11.76,0,0,0-5-.08c-.84.17-1.69.4-2.55.65a15.26,15.26,0,0,0-2.42.91,48.16,48.16,0,0,0-4.58,2.74,19.23,19.23,0,0,1-4.89,2.32c3.38-1.36,5.75-4.12,8.94-6a14.23,14.23,0,0,1,2.52-1.21c.85-.32,1.71-.64,2.62-.89a12.6,12.6,0,0,1,2.83-.48,15.83,15.83,0,0,1,2.85.14c1.86.25,3.58.6,5.38.95a40.79,40.79,0,0,1,5.38,1.44,25.74,25.74,0,0,1,15.41,16,36.31,36.31,0,0,1,1.52,11.21,55.41,55.41,0,0,1-1.25,11c-.72,3.55-1.43,7.06-2.24,10.61a108.64,108.64,0,0,1-3,10.55,74,74,0,0,1-4.4,10.13,77.11,77.11,0,0,1-5.84,9.36c-2.16,3-4.55,5.7-6.71,8.49a51.47,51.47,0,0,0-3,4.27,37.19,37.19,0,0,0-2.4,4.61,33.6,33.6,0,0,1-2.54,4.95c-1,1.57-2.12,3-3.23,4.44a30,30,0,0,1-3.75,4.08,10.85,10.85,0,0,1-5,2.66,9.28,9.28,0,0,1-5.52-.68A28.31,28.31,0,0,1,233.5,264.67Z"/><path class="cls-1" d="M239.78,161.85a64.29,64.29,0,0,1-3.07,6.56,45.61,45.61,0,0,0-2.64,6.14c-.69,2.09-1.32,4.42-2.18,6.68a36,36,0,0,1-3.22,6.61,35.25,35.25,0,0,1,.16-7.35,36.57,36.57,0,0,1,1.45-7.21,19.75,19.75,0,0,1,3.83-6.62A24.66,24.66,0,0,1,239.78,161.85Z"/><path class="cls-1" d="M262.06,231.65a48.31,48.31,0,0,1,2.67-9.57c.61-1.55,1.3-3.07,2-4.57s1.62-2.95,2.37-4.34A28.07,28.07,0,0,0,271,209c.51-1.47,1-3,1.43-4.61.94-3.13,1.87-6.2,2.55-9.29a41.81,41.81,0,0,0,1.1-9.25,39.46,39.46,0,0,0-.32-4.69l-.31-2.4-.37-2.28a16,16,0,0,0-4.29-7.9,71.06,71.06,0,0,0-7.24-6.51,41.39,41.39,0,0,1,8.59,5.08,21.66,21.66,0,0,1,3.61,3.73,14.46,14.46,0,0,1,2.35,4.79l.66,2.52c.17.81.32,1.63.47,2.45a44.23,44.23,0,0,1,.63,5.09,37.91,37.91,0,0,1-1,10.23,82.66,82.66,0,0,1-2.86,9.6c-.57,1.54-1.1,3.09-1.75,4.69a24,24,0,0,1-2.47,4.58l-2.77,4c-.9,1.34-1.74,2.71-2.54,4.12A95,95,0,0,0,262.06,231.65Z"/><path class="cls-1" d="M249.37,202.57a26,26,0,0,1-12.32-11.23,16.62,16.62,0,0,1-1.75-4.13,14.3,14.3,0,0,1-.4-4.62c.09-1.5.32-2.85.53-4.24a40.31,40.31,0,0,1,.91-4.19,22.72,22.72,0,0,1,4-7.91,20.57,20.57,0,0,1,3.13-3.2,13.39,13.39,0,0,1,4-2.26c1.41-.5,2.67-.87,4-1.23a18.63,18.63,0,0,1,4.32-.65,15.38,15.38,0,0,1,8,2.71c-2.67-.67-5.38-1.25-7.84-.75a16.51,16.51,0,0,0-3.65,1.18c-1.2.53-2.52,1-3.63,1.61a11.85,11.85,0,0,0-2.92,2.06,19.81,19.81,0,0,0-2.41,2.81,21.49,21.49,0,0,0-3.17,6.72c-.36,1.22-.63,2.49-.88,3.8s-.49,2.64-.64,3.86a12.15,12.15,0,0,0,.06,3.52,17.67,17.67,0,0,0,1.1,3.53A34.71,34.71,0,0,0,249.37,202.57Z"/><path class="cls-1" d="M243.54,213.69a4.53,4.53,0,0,0-1.33-2.63,7.88,7.88,0,0,0-2.4-1.64c-1.74-.78-3.82-1.11-5.3-.41s-2.07,2.32-1.92,4a8.34,8.34,0,0,0,.63,2.51c.37.85.88,1.76,1.3,2.86a6.58,6.58,0,0,1,.36,4,10.17,10.17,0,0,1-.64,1.71,7.45,7.45,0,0,0-.46,1.23,20.11,20.11,0,0,0-.52,5.58,11.73,11.73,0,0,0,.82,5.12,3.8,3.8,0,0,0,1.32,1.52,4,4,0,0,0,1.94.63,3.62,3.62,0,0,0,1.94-.34,4.73,4.73,0,0,0,1.66-1.4,16.63,16.63,0,0,0,2.29-4.94,21.59,21.59,0,0,1,2.82-6.07,8.76,8.76,0,0,1,2.82-2.51,12.22,12.22,0,0,1,3.35-1.12c1.07-.21,2.05-.36,2.94-.59a9.21,9.21,0,0,0,2.45-1,12.67,12.67,0,0,0,4-3.93,27.47,27.47,0,0,0,2.7-5.33c.38-.94.74-1.9,1.1-2.86a24.87,24.87,0,0,0,1-2.92,35.35,35.35,0,0,1-1,6.12,26.57,26.57,0,0,1-2.06,6,14.79,14.79,0,0,1-4.21,5.11A10.75,10.75,0,0,1,256,224c-1.07.37-2.11.6-3,.87a6.34,6.34,0,0,0-4.06,2.63,18.79,18.79,0,0,0-2.06,5.17,18.93,18.93,0,0,1-2.8,6.18,8.63,8.63,0,0,1-3,2.55,7.52,7.52,0,0,1-4,.8,8,8,0,0,1-3.82-1.33,7.34,7.34,0,0,1-1.55-1.4,8.4,8.4,0,0,1-1.09-1.69,14.73,14.73,0,0,1-1.09-6.91,23.8,23.8,0,0,1,1-6.59,13.37,13.37,0,0,1,.69-1.62,8.47,8.47,0,0,0,.52-1.14,3.31,3.31,0,0,0-.08-2.07c-.25-.84-.67-1.76-1-2.83a9.86,9.86,0,0,1-.56-3.49,7.51,7.51,0,0,1,.93-3.53,5.15,5.15,0,0,1,2.91-2.38,6.55,6.55,0,0,1,3.51-.05,9.64,9.64,0,0,1,3,1.32,8.39,8.39,0,0,1,2.33,2.23A4.76,4.76,0,0,1,243.54,213.69Z"/><path class="cls-1" d="M240.51,187.71a26.11,26.11,0,0,1,10.67-4.58,15.33,15.33,0,0,1,6.23.37,11.84,11.84,0,0,1,5.62,3.41,14.12,14.12,0,0,1,3,5.66,32.15,32.15,0,0,1,1,5.8,24.56,24.56,0,0,1-.14,5.87,14.93,14.93,0,0,1-1.93,5.49,30.46,30.46,0,0,0-1-10.86c-.91-3.52-1.83-7.09-3.82-9.29s-5.28-3.27-8.66-3.32S244.3,187.1,240.51,187.71Z"/><path class="cls-1" d="M52.69,181.32c-1.64-2.75-3.11-5.57-4.59-8.39A74.39,74.39,0,0,1,44,164.12a18.24,18.24,0,0,1-.66-2.52,16.87,16.87,0,0,1-.21-2.64,32.65,32.65,0,0,1,.45-5c.26-1.63.63-3.24,1-4.83s1-3.15,1.54-4.68,1.25-3,2-4.5,1.47-2.91,2.29-4.31,1.68-2.77,2.56-4.12a30.87,30.87,0,0,1,3-4,20.1,20.1,0,0,1,3.83-3.34c1.37-.91,2.7-1.73,4.05-2.58,2.72-1.66,5.43-3.32,8.25-4.84-2.29,2.23-4.7,4.32-7.09,6.42-1.2,1-2.46,2-3.6,3.07a19.14,19.14,0,0,0-3,3.24,69.93,69.93,0,0,0-4.65,7.95,81.46,81.46,0,0,0-3.82,8.42,59.1,59.1,0,0,0-2.62,8.76,29.55,29.55,0,0,0-.66,4.42,14.88,14.88,0,0,0,.36,4.24,42.86,42.86,0,0,0,1.36,4.38l1.54,4.51C50.88,175.2,51.87,178.23,52.69,181.32Z"/><path class="cls-1" d="M69.44,113.2A99.39,99.39,0,0,1,75.6,98.59c.57-1.19,1.22-2.34,1.88-3.5l2-3.47,2.11-3.37c.72-1.12,1.4-2.26,2.19-3.33a139.39,139.39,0,0,1,9.72-12.63l2.67-3c.89-1,1.77-2,2.73-2.91,1.9-1.86,3.77-3.77,5.7-5.59l6-5.21c1-.9,2.1-1.64,3.14-2.46l3.19-2.41c2.1-1.64,4.36-3,6.59-4.49a78.68,78.68,0,0,1,6.81-4.14l7-3.78c2.41-1.12,4.84-2.18,7.26-3.26l3.64-1.57L152,32.19c2.49-.86,5-1.71,7.5-2.51-2.35,1.22-4.71,2.38-7.07,3.53l-3.54,1.71-3.43,1.92c-2.29,1.27-4.59,2.5-6.86,3.79l-6.63,4.15c-2.24,1.32-4.31,2.91-6.46,4.38s-4.29,2.93-6.28,4.61-4.13,3.16-6.1,4.84l-5.85,5.15c-1.9,1.76-3.74,3.6-5.61,5.39-1,.88-1.83,1.85-2.71,2.8L96.27,74.8c-3.54,3.8-6.81,7.84-10,11.94-1.63,2-3.06,4.21-4.63,6.3l-2.19,3.24c-.74,1.08-1.46,2.17-2.14,3.28C74.43,103.94,71.89,108.53,69.44,113.2Z"/><path class="cls-1" d="M75.92,134.21a40.2,40.2,0,0,1,6-1.34,18.88,18.88,0,0,1,6.35.28,37,37,0,0,1,6,2c1.92.81,3.76,1.6,5.69,2.61a21.47,21.47,0,0,1,2.81,1.8,13.53,13.53,0,0,1,2.42,2.48,18.84,18.84,0,0,1,3,6.08,39.78,39.78,0,0,1,1.17,6.32l.65,6.12,1.07,12.22c.32,4.08.53,8.17,1.09,12a30.86,30.86,0,0,0,1.42,5.66,43.84,43.84,0,0,0,2.45,5.45l2.76,5.49,1.35,2.76a4.72,4.72,0,0,0,1.84,2.31,4.84,4.84,0,0,1-2.36-2l-1.79-2.5c-1.18-1.68-2.33-3.37-3.5-5.06a47.35,47.35,0,0,1-3.17-5.43,29.65,29.65,0,0,1-2.06-6.08,51.69,51.69,0,0,1-1.06-6.19l-.74-6.1L106,160.93c-.4-4.08-.57-8.17-1.49-11.83a15,15,0,0,0-2.13-5,13.27,13.27,0,0,0-4-3.66c-1.61-1-3.48-2-5.24-2.94A36.3,36.3,0,0,0,87.8,135,18.47,18.47,0,0,0,82,134C80,133.91,78,134.07,75.92,134.21Z"/><path class="cls-1" d="M108.35,142.48a8.73,8.73,0,0,1,4.08,1.25,11.68,11.68,0,0,1,3.15,2.66,11.89,11.89,0,0,1,2.08,3.56,8.81,8.81,0,0,1,.51,4.24,19.94,19.94,0,0,1-3.17-2.56,34.26,34.26,0,0,1-2.48-2.67,34.8,34.8,0,0,1-2.2-2.92A21.08,21.08,0,0,1,108.35,142.48Z"/><path class="cls-1" d="M118.24,154.15a56.46,56.46,0,0,1,2.82,14c.16,2.37.23,4.7.36,7s.36,4.5.71,6.74c.69,4.47,1.77,8.95,2.87,13.45a28.28,28.28,0,0,0,2.15,6.33,19.64,19.64,0,0,0,4.16,5.42,14.74,14.74,0,0,1-5.79-4.34,23.42,23.42,0,0,1-3.52-6.46,67.2,67.2,0,0,1-3.82-13.79,46.34,46.34,0,0,1-.54-7.24c0-2.4.15-4.75.28-7.06C118.26,163.55,118.08,158.92,118.24,154.15Z"/><path class="cls-1" d="M122.28,154.7c-.17.08-.29-.17-.26-.33a.31.31,0,0,1,.18-.24.49.49,0,0,1,.29,0,2,2,0,0,1,.84.48,13.84,13.84,0,0,1,1.35,1.19,15.5,15.5,0,0,1,2.27,2.82,24,24,0,0,1,2.85,6.7,41.08,41.08,0,0,1,1.15,7.09c.19,2.38.19,4.66.43,6.8.47,4.23,1.93,8.59,3.25,12.94a27,27,0,0,0,2.6,6.06,13.87,13.87,0,0,0,4.64,4.79,11.6,11.6,0,0,1-6.19-3.59,23.22,23.22,0,0,1-4-6.1,70.17,70.17,0,0,1-2.64-6.56,33.32,33.32,0,0,1-1.65-7.11c-.26-2.46-.2-4.81-.24-7a61.22,61.22,0,0,0-.45-6.67,28.38,28.38,0,0,0-1.51-6.43c-.17-.53-.41-1-.62-1.54s-.49-1-.78-1.49a14.5,14.5,0,0,0-.91-1.44,1.82,1.82,0,0,0-.49-.6c-.09,0-.18-.06-.23,0S122.11,154.71,122.28,154.7Z"/><path class="cls-1" d="M129.29,39.7a17.74,17.74,0,0,1,2-7.77,19.58,19.58,0,0,1,5.22-6.33,26.76,26.76,0,0,1,6.95-4A39,39,0,0,1,151,19.49a40.77,40.77,0,0,1-6.06,4.93c-2.08,1.44-4.09,2.82-5.94,4.3a36,36,0,0,0-5.1,4.93C132.3,35.48,130.89,37.53,129.29,39.7Z"/><path class="cls-1" d="M155.17,26.11a40.18,40.18,0,0,1,11.64-12.24,55.65,55.65,0,0,1,15.31-7.52,72.11,72.11,0,0,1,16.65-3.16,83.43,83.43,0,0,1,16.8.35c-5.52,1-11,1.74-16.39,2.74a132.8,132.8,0,0,0-15.85,3.88,83.53,83.53,0,0,0-14.87,6.34A70.41,70.41,0,0,0,155.17,26.11Z"/><path class="cls-1" d="M161,38.78a41.88,41.88,0,0,1,5.31-10.24,40.11,40.11,0,0,1,7.7-8.88,50.22,50.22,0,0,1,4.75-3.42c1.59-1,3.19-2.11,4.82-3.14s3.33-2,5.08-2.89c.87-.46,1.75-.89,2.65-1.3l2.73-1.08a115.35,115.35,0,0,1,22.31-6.12A107.71,107.71,0,0,1,239.31.08c-7.54,1.34-15,2.82-22.29,4.68-3.64,1-7.29,1.92-10.87,3.08s-7.2,2.28-10.6,3.7l-2.61,1c-.84.36-1.67.76-2.49,1.17-1.66.81-3.27,1.74-4.91,2.66s-3.27,1.88-4.91,2.85-3.23,1.91-4.72,2.94a45.28,45.28,0,0,0-8,7.6A60.17,60.17,0,0,0,161,38.78Z"/><path class="cls-1" d="M172.17,39.06c2.62-3.13,5.37-6.13,8.25-9,1.46-1.43,2.94-2.86,4.5-4.19.77-.69,1.56-1.35,2.35-2s1.62-1.26,2.43-1.9A99,99,0,0,1,200,15c.89-.53,1.81-1,2.72-1.48s1.81-1,2.75-1.43c1.87-.87,3.71-1.82,5.63-2.58a98.22,98.22,0,0,1,23.8-6.66,86.55,86.55,0,0,1,24.53-.22,160,160,0,0,0-24,3.29c-1,.18-1.95.47-2.92.71l-2.91.71c-1.92.57-3.86,1.05-5.75,1.71s-3.81,1.2-5.67,1.93l-2.8,1-2.76,1.16A125.9,125.9,0,0,0,191.5,24.44c-.83.55-1.68,1.08-2.5,1.66s-1.62,1.18-2.45,1.75c-1.66,1.13-3.24,2.38-4.83,3.63C178.51,34,175.4,36.57,172.17,39.06Z"/><path class="cls-1" d="M188.31,41.27A66.23,66.23,0,0,1,202,24.71a76.19,76.19,0,0,1,18.18-11.83c1.64-.76,3.31-1.47,5-2.13l2.52-.93c.86-.29,1.75-.62,2.62-.87a93.29,93.29,0,0,1,10.52-2.49,170.85,170.85,0,0,1,21.25-2.53c-6.9,1.81-13.81,3.44-20.62,5.31-3.4.91-6.77,1.93-10,3.07-.82.28-1.59.61-2.4.93l-2.42,1c-1.61.68-3.2,1.39-4.76,2.15a108,108,0,0,0-17.77,10.83A132.56,132.56,0,0,0,188.31,41.27Z"/><path class="cls-1" d="M198.15,48.22c5-3,8.22-7.8,12.13-12.12a82.74,82.74,0,0,1,13.06-11.65,88.74,88.74,0,0,1,15.25-8.74c2.64-1.23,5.34-2.31,8-3.41s5.34-2.17,8.05-3.22a90.1,90.1,0,0,1,16.94-4.84,72.59,72.59,0,0,1,8.81-.87,61.94,61.94,0,0,1,8.83.21,67.64,67.64,0,0,1,17.16,3.71,45.83,45.83,0,0,1,8,3.61,28.76,28.76,0,0,1,6.73,5.52,32.81,32.81,0,0,0-7.24-4.54,48.37,48.37,0,0,0-8.06-2.72A77,77,0,0,0,289,6.69,76,76,0,0,0,272.26,8a79.84,79.84,0,0,0-8.17,2c-2.69.83-5.35,1.8-8,2.82-5.33,2-10.74,4.14-16,6.35a97.94,97.94,0,0,0-15,7.86,95.72,95.72,0,0,0-13.42,10.45c-2.1,1.92-4.07,4-6.25,6A24.74,24.74,0,0,1,198.15,48.22Z"/><path class="cls-1" d="M198.44,52.5a32.88,32.88,0,0,0,11-1.35,50.87,50.87,0,0,0,10.19-4.27c6.52-3.48,12.51-8,19.09-11.75,1.63-1,3.29-1.87,5-2.78s3.35-1.75,5.07-2.55c3.4-1.67,6.89-3.15,10.4-4.56a155.09,155.09,0,0,1,21.72-6.64,152.44,152.44,0,0,1,22.5-3.23,85.94,85.94,0,0,1,11.46,0,55.42,55.42,0,0,1,11.35,2A57.35,57.35,0,0,1,346.39,28a54.54,54.54,0,0,1,14.2,17.48,59.72,59.72,0,0,0-35.21-25c-.88-.25-1.77-.41-2.67-.58s-1.78-.35-2.68-.45a54.34,54.34,0,0,0-5.42-.54,82.15,82.15,0,0,0-11,.27c-3.68.3-7.36.74-11,1.28s-7.29,1.23-10.88,2.07a164.09,164.09,0,0,0-41.5,15.34c-6.54,3.44-12.83,7.62-19.75,10.79a49.37,49.37,0,0,1-10.79,3.59A30.76,30.76,0,0,1,198.44,52.5Z"/><path class="cls-1" d="M193.32,47.94a21.72,21.72,0,0,0-5.25,14.53A28.37,28.37,0,0,0,192.9,77a66.57,66.57,0,0,0,10.32,11.83L215,99.86c3.89,3.75,7.77,7.55,11.45,11.59a78,78,0,0,1,5.23,6.41,39.85,39.85,0,0,1,4.17,7.29,41.52,41.52,0,0,1,3.54,16.18,38.94,38.94,0,0,1-3.15,16,44.63,44.63,0,0,0,1.19-15.86,42.61,42.61,0,0,0-1.53-7.71,40.94,40.94,0,0,0-2.86-7.25,37,37,0,0,0-1.95-3.35,36.5,36.5,0,0,0-2.23-3.19,73.89,73.89,0,0,0-5.19-5.93c-3.67-3.86-7.52-7.58-11.43-11.27s-7.77-7.43-11.63-11.27-7.61-8-10.35-12.92A34.14,34.14,0,0,1,187,70.79a26,26,0,0,1-.88-8.37A21.12,21.12,0,0,1,193.32,47.94Z"/><path class="cls-1" d="M159.13,110.83a40.72,40.72,0,0,0-4,20.29A56.71,56.71,0,0,0,157,141.31a64.06,64.06,0,0,0,2.91,9.92,21.17,21.17,0,0,0,2.34,4.31c.94,1.38,2.08,2.73,3.15,4.22a71.09,71.09,0,0,1,5.85,9.22c3.42,6.41,5.67,13.69,5.34,20.9a55,55,0,0,0-8-19.34c-.93-1.47-1.94-2.89-2.94-4.32s-2.08-2.8-3.2-4.15-2.24-2.74-3.35-4.27a25.88,25.88,0,0,1-2.83-5,62,62,0,0,1-2.91-10.63A49.23,49.23,0,0,1,152,131.21,33.26,33.26,0,0,1,159.13,110.83Z"/><path class="cls-1" d="M169.56,98.48a19.51,19.51,0,0,0-3.78,11.16,27.26,27.26,0,0,0,2.06,11.41,49.6,49.6,0,0,0,5.85,10.22c2.32,3.24,4.87,6.39,7.43,9.58l3.76,4.83c1.24,1.62,2.53,3.19,3.75,4.94a30.28,30.28,0,0,1,5,11.82,32.51,32.51,0,0,1-4.78,24.11,37,37,0,0,0,1.74-23.41,30.84,30.84,0,0,0-2-5.41l-.65-1.28-.74-1.23a26,26,0,0,0-1.65-2.38c-1.18-1.55-2.47-3.14-3.75-4.74L178,143.33c-2.49-3.23-5.08-6.44-7.4-9.92a46.1,46.1,0,0,1-5.67-11.31,27.28,27.28,0,0,1-1.08-12.67A18.27,18.27,0,0,1,169.56,98.48Z"/><path class="cls-1" d="M184.55,73.16a13.9,13.9,0,0,0-4.27,7,19.42,19.42,0,0,0-.36,8.06,22.41,22.41,0,0,0,1,3.89,26.76,26.76,0,0,0,1.69,3.65,41.2,41.2,0,0,0,4.72,6.63c3.61,4.12,7.74,8,11.65,12.09s7.71,8.29,11.44,12.53A138.76,138.76,0,0,1,221,140.44a45.54,45.54,0,0,1,4.1,7.76,28.7,28.7,0,0,1,2.11,8.65,26.86,26.86,0,0,1-.82,8.83,51.38,51.38,0,0,1-2.95,8.13c-1.21,2.58-2.42,5.11-3.78,7.62a33.22,33.22,0,0,1-4.86,7,39.87,39.87,0,0,0,3.86-7.45c1-2.59,2-5.24,3-7.87,1.86-5.23,3.2-10.67,2.49-15.91a34.3,34.3,0,0,0-6.26-14.63,146.84,146.84,0,0,0-10.48-12.94c-3.64-4.26-7.39-8.43-11.18-12.57-1.88-2.09-3.78-4.13-5.71-6.2s-3.83-4.21-5.59-6.51a40.07,40.07,0,0,1-4.63-7.41,28.15,28.15,0,0,1-1.55-4.14,23.27,23.27,0,0,1-.75-4.36,20.35,20.35,0,0,1,1.25-8.63A15.91,15.91,0,0,1,181.37,76,14.08,14.08,0,0,1,184.55,73.16Z"/><path class="cls-1" d="M223.66,188a53.37,53.37,0,0,1,2.42-8.3c1-2.66,2-5.26,3.17-7.83s2.28-5.1,3.48-7.64,2.43-5.08,3.89-7.65a30.46,30.46,0,0,1-.93,8.69,48.87,48.87,0,0,1-2.78,8.2,58.14,58.14,0,0,1-4,7.61A44.91,44.91,0,0,1,223.66,188Z"/><path class="cls-1" d="M215,77c6.23,8.4,15.12,14.41,24.72,18a82.33,82.33,0,0,0,14.88,4A123.34,123.34,0,0,0,270,100.6a118.3,118.3,0,0,0,15.42-.24,99.31,99.31,0,0,0,15.15-2.57c2.53-.58,5.08-1.18,7.66-1.71,1.3-.28,2.61-.49,3.91-.72s2.62-.42,3.94-.58a112.13,112.13,0,0,1,15.86-.89,110.65,110.65,0,0,1,15.84,1.35,113.59,113.59,0,0,1,15.47,3.64A111.11,111.11,0,0,1,378,104.67a77.86,77.86,0,0,1,13.61,8.39,58.59,58.59,0,0,1,6,5.36c1,.93,1.82,2,2.71,3s1.69,2.11,2.41,3.26a39.33,39.33,0,0,1,3.89,7.12,35.07,35.07,0,0,1,1.34,3.85,32.2,32.2,0,0,1,.94,3.94c.49,2.64.73,5.25,1.07,7.81s.75,5.12,1.12,7.72c.76,5.16,1.27,10.55.37,15.84l-.67-.88.36.06.8.13-.14.74c-.34,1.93.46,4.14.31,6.52a32.13,32.13,0,0,1-1.63,6.56c-1.29,4.23-2.66,8.45-4,12.67,1.05-4.3,2.08-8.61,3.18-12.9a30.74,30.74,0,0,0,1.25-6.38c.07-2.06-.88-4.17-.63-6.69l.66.87-.37,0-.76-.08.09-.8c.57-5.06-.14-10.18-1.06-15.26-.46-2.55-1-5.11-1.42-7.7s-.78-5.17-1.3-7.65a29.37,29.37,0,0,0-1-3.63,33.35,33.35,0,0,0-1.32-3.49,36.62,36.62,0,0,0-3.76-6.47c-.69-1.05-1.55-2-2.32-3s-1.66-1.9-2.59-2.75a55.27,55.27,0,0,0-5.72-5c-8.13-6.07-17.65-10.21-27.4-13.26a112.34,112.34,0,0,0-30.24-4.8,109,109,0,0,0-15.32.78c-1.27.15-2.54.31-3.8.52s-2.53.39-3.79.63c-2.52.48-5.06,1-7.61,1.58a102.22,102.22,0,0,1-15.69,2.38,120.94,120.94,0,0,1-15.82-.17,111.82,111.82,0,0,1-15.66-2.12,75.92,75.92,0,0,1-15.09-4.72,61,61,0,0,1-13.54-8.09A46.51,46.51,0,0,1,215,77Z"/><path class="cls-1" d="M223.66,64.37a324.05,324.05,0,0,0,60.57-7.14c5-1,9.92-2.22,14.85-3.49l7.38-2c1.23-.33,2.49-.66,3.79-.94l3.8-.75a106.63,106.63,0,0,1,46.21,2.24,110.59,110.59,0,0,1,14.66,5.21,68.54,68.54,0,0,1,7,3.54,66.8,66.8,0,0,1,6.51,4.39c1.06.78,2,1.67,3,2.5s2,1.74,2.85,2.69a59.43,59.43,0,0,1,13,19.27l.73,1.8.35.93.29.94a29.74,29.74,0,0,1,.78,3.82,64,64,0,0,1,.54,7.68c.16,10.25-1.07,20.4-2,30.55.59-10.17,1.49-20.36,1.1-30.52a63.06,63.06,0,0,0-.72-7.55,29.87,29.87,0,0,0-.83-3.66l-.29-.87-.35-.85L406,90.52c-.56-1.13-1.24-2.19-1.86-3.29s-1.33-2.13-2.07-3.15a63,63,0,0,0-4.6-5.93,63.82,63.82,0,0,0-11.08-10,62,62,0,0,0-6.28-4,65.79,65.79,0,0,0-6.74-3.16,107.57,107.57,0,0,0-14.19-4.89,111.18,111.18,0,0,0-14.71-3,118.88,118.88,0,0,0-30-.29l-3.74.5c-1.19.21-2.41.51-3.65.81L299.63,56c-5,1.17-10,2.26-15,3.2A299.24,299.24,0,0,1,223.66,64.37Z"/><path class="cls-1" d="M236.16,116.36a31.49,31.49,0,0,0,10.63,6.49,67.63,67.63,0,0,0,12.07,3.25c8.24,1.51,16.57,2.52,24.9,3.51s16.7,1.8,25.05,2.91,16.72,2.38,25,4.28a151.86,151.86,0,0,1,24.32,7.6,101.4,101.4,0,0,1,22.26,12.72A79.37,79.37,0,0,1,398,175.84a63.45,63.45,0,0,1,9.75,23.91l-.08-.3a105.49,105.49,0,0,1,3.78,15.25,65.44,65.44,0,0,1,.94,15.79c0,.67-.17,1.34-.25,2a19.42,19.42,0,0,1-.34,2l-.48,2a6.93,6.93,0,0,1-.36,1.09c-.14.36-.31.69-.47,1a34.54,34.54,0,0,1-2.19,3.41,35.58,35.58,0,0,0-2,3.07l-.4.81c-.14.31-.31.61-.47.92-.32.6-.67,1.18-1,1.75-.72,1.13-1.5,2.21-2.3,3.25l-4.76,6c-6.2,8.12-11.76,16.76-17.2,25.46s-10.53,17.64-15.73,26.51q6.9-13.8,14.42-27.29a279.06,279.06,0,0,1,16.39-26.25c1.5-2.1,3.1-4.18,4.6-6.19.75-1,1.45-2,2.09-3.09.31-.53.61-1.05.89-1.59.13-.27.27-.54.39-.81l.43-.92a34.45,34.45,0,0,1,2.12-3.44,29.8,29.8,0,0,0,1.91-3.12c.12-.25.24-.5.33-.74a4.2,4.2,0,0,0,.22-.75l.38-1.77a15.3,15.3,0,0,0,.26-1.8c.06-.61.17-1.21.19-1.83a61.54,61.54,0,0,0-1.11-14.9,101.71,101.71,0,0,0-3.83-14.6l-.05-.15,0-.16A60.25,60.25,0,0,0,394.77,178a74,74,0,0,0-7.7-9.52,80.08,80.08,0,0,0-9.1-8.26,97.52,97.52,0,0,0-21.34-12.31A148.53,148.53,0,0,0,333,140.19c-8.09-1.94-16.31-3.46-24.6-4.72s-16.61-2.36-24.93-3.61-16.64-2.64-24.86-4.52a67.57,67.57,0,0,1-12.08-3.83A31.07,31.07,0,0,1,236.16,116.36Z"/><path class="cls-1" d="M336.82,169.25c-.12-.23.08-.55.33-.65a1.9,1.9,0,0,1,.78-.18,3.3,3.3,0,0,1,.76.11l.71.13a23.59,23.59,0,0,1,2.76.8,39.86,39.86,0,0,1,5.2,2.31c3.33,1.74,6.42,3.63,9.6,4.91a21.85,21.85,0,0,0,2.39.83c.41.11.8.23,1.22.33a13,13,0,0,1,1.51.39,5.92,5.92,0,0,1,1.8.92,6.34,6.34,0,0,1,1.3,1.43,15.09,15.09,0,0,1,1.37,2.81,17.21,17.21,0,0,1,.34,11.49,26.3,26.3,0,0,0-3.2-10.17,15.69,15.69,0,0,0-1.35-2,2.92,2.92,0,0,0-.63-.55,2.16,2.16,0,0,0-.7-.25c-.32-.07-.72-.14-1.2-.22s-1-.21-1.48-.32a24.7,24.7,0,0,1-2.87-.94,44.81,44.81,0,0,1-9.76-6c-1.47-1.1-2.93-2.19-4.42-3.23-.74-.55-1.51-1-2.29-1.51l-.59-.36a5.86,5.86,0,0,0-.56-.32,1.47,1.47,0,0,0-.59-.11A.4.4,0,0,0,336.82,169.25Z"/><path class="cls-1" d="M367.46,186.49c1.74,6.39,3.09,12.84,4.31,19.32s2.28,13,3.2,19.47,1.69,13.05,2.33,19.61a56.85,56.85,0,0,1,.3,10,20.3,20.3,0,0,1-3,9.57,24.09,24.09,0,0,0,1-9.58,84.61,84.61,0,0,0-1.43-9.6c-1.21-6.47-2.29-13-3.2-19.48s-1.69-13-2.32-19.6S367.56,193.11,367.46,186.49Z"/><path class="cls-1" d="M283,443.11c4.85-5.45,9.82-10.83,14.72-16.2a82.87,82.87,0,0,0,12.12-17.81c3.37-6.38,6.11-13.14,9.48-19.71a100,100,0,0,1,5.57-9.65,69.24,69.24,0,0,1,6.92-8.84l-.32.46,7.08-14.05c2.29-4.73,5-9.27,6.9-13.91a34.49,34.49,0,0,0,2.15-7.1c.43-2.43.57-5,.82-7.63A88.13,88.13,0,0,1,351.57,313c.66-2.53,1.36-5.09,2.25-7.64a45.09,45.09,0,0,1,3.35-7.38c1.29-2.34,2.72-4.53,4-6.8l3.84-6.82,3.87-6.82,3.81-6.86,3.85-6.86a16.56,16.56,0,0,0,1.7-3.46,4.68,4.68,0,0,0,.19-1.89,1.94,1.94,0,0,0-1.06-1.51,2,2,0,0,1,1.23,1.47,4.7,4.7,0,0,1,0,2,16,16,0,0,1-1.43,3.7l-3.32,7.12-3.38,7.1-3.51,7-3.53,7c-1.15,2.37-2.52,4.61-3.67,6.9a41,41,0,0,0-2.9,7c-.76,2.42-1.33,4.94-1.95,7.48A83.67,83.67,0,0,0,352.2,329c-.18,2.57-.31,5.25-.77,8a38.25,38.25,0,0,1-2.32,7.92c-1,2.52-2.22,4.92-3.42,7.27l-3.58,7L335,373.08l-.11.22-.21.24c-1.16,1.35-2.41,2.6-3.47,4-.55.7-1.12,1.38-1.65,2.09L328,381.82a93.47,93.47,0,0,0-5.56,9.19c-3.4,6.35-6.48,13-10.12,19.42a88.57,88.57,0,0,1-6.07,9.28l-.83,1.12-.88,1.07L302.74,424c-1.23,1.39-2.51,2.71-3.81,4-2.61,2.58-5.26,5.07-7.92,7.58Z"/><path class="cls-1" d="M314.7,405.35l5.35-6.58c1.76-2.2,3.51-4.41,5.18-6.66,3.41-4.47,6.61-9.08,9.73-13.75l.81-1.21,1.32.78.28.17-2,.23a129.66,129.66,0,0,0,14.22-19.48c2.12-3.44,4.16-7,6.27-10.47s4.09-7,5.81-10.57a42.34,42.34,0,0,0,3.77-11.1,26,26,0,0,0,.42-5.76,28.17,28.17,0,0,0-.87-5.77c-.92-3.87-2.44-7.73-3.19-11.87a24.25,24.25,0,0,1-.41-6.25,14.42,14.42,0,0,1,1.68-5.95c-1.41,3.9-.87,8,.22,11.85s2.9,7.51,4.21,11.51a28.8,28.8,0,0,1,1.24,12.73,45.22,45.22,0,0,1-3.64,12.19,118.51,118.51,0,0,1-5.83,11c-2,3.54-4.16,7.06-6.37,10.54s-4.49,6.93-7,10.21a85.16,85.16,0,0,1-8.21,9.4l-1,.93-1-.69-.26-.18,2.13-.43c-1.7,2.28-3.43,4.54-5.22,6.74s-3.65,4.36-5.55,6.47-3.87,4.15-5.89,6.15S316.8,403.46,314.7,405.35Z"/><path class="cls-1" d="M360.28,345.31a125.49,125.49,0,0,0,2.11,25.84,110.78,110.78,0,0,0,3.14,12.46,99.83,99.83,0,0,0,4.54,12A105.81,105.81,0,0,0,376,407c2.14,3.72,4.56,7.28,7,10.83,5,7.06,10.48,13.8,16,20.62a142.08,142.08,0,0,1-18.46-18.73,112.7,112.7,0,0,1-7.76-10.74,100.13,100.13,0,0,1-6.33-11.72,95.16,95.16,0,0,1-4.51-12.54,88.35,88.35,0,0,1-2.59-13.05A80.39,80.39,0,0,1,360.28,345.31Z"/><path class="cls-1" d="M154.74,410.16a124.16,124.16,0,0,0,7.8,27.07c1.81,4.32,3.72,8.61,5.83,12.8,1,2.1,2.1,4.2,3.19,6.28s2.25,4.15,3.37,6.23l6.68,12.51c2.19,4.19,4.48,8.32,6.73,12.46,4.58,8.26,9.39,16.35,14.72,24.23a141.21,141.21,0,0,1-17.4-22.63c-2.6-4-5-8.12-7.36-12.23s-4.63-8.27-6.9-12.46S166.94,456,165,451.65a139.88,139.88,0,0,1-5.33-13.34A84.81,84.81,0,0,1,154.74,410.16Z"/><path class="cls-1" d="M285.16,441.23a53.9,53.9,0,0,0-3.17,5.32,12.34,12.34,0,0,0-.95,2.74,15.81,15.81,0,0,0-.59,2.78,4.25,4.25,0,0,0,.05,1.1,4.08,4.08,0,0,0,.4,1c.4.91.85,1.82,1.28,2.73.91,1.82,1.86,3.63,2.83,5.44l5.9,10.92c1.92,3.7,3.86,7.4,5.49,11.33a86.81,86.81,0,0,1-8.13-9.68,99.76,99.76,0,0,1-6.78-10.67c-1-1.87-1.94-3.77-2.8-5.74-.4-1-.8-2-1.15-3a7.35,7.35,0,0,1-.46-2,6.92,6.92,0,0,1,.18-2,15,15,0,0,1,1.22-3.19c.21-.44.51-1,.8-1.5s.64-.95,1-1.39A22.17,22.17,0,0,1,285.16,441.23Z"/><path class="cls-1" d="M85.25,182.58c0,2.32-3.92,1.94-3.42,4.21,1.15,5.27-5.41-1.92-5-4.21,1.45-8.2,1.89-4.21,4.22-4.21A4.21,4.21,0,0,1,85.25,182.58Z"/></g></g></svg>