<svg xmlns="http://www.w3.org/2000/svg" viewBox="0 0 414.49 306.06"><defs><style>.cls-1{fill:#2d3242;}</style></defs><g id="Calque_2" data-name="Calque 2"><g id="bateau_1" data-name="bateau 1"><g id="contours_bateau_1" data-name="contours bateau 1"><g id="contours"><path class="cls-1" d="M359.31,169.32a85.29,85.29,0,0,0-27.45,35.61,84.22,84.22,0,0,0,4.91,73.17,1.5,1.5,0,0,0,2.59-1.51,82.09,82.09,0,0,1-10.48-45.75,81.31,81.31,0,0,1,31.94-58.93c1.53-1.14,0-3.75-1.51-2.59Z"/><path class="cls-1" d="M239.51,248.58a240.1,240.1,0,0,1-41.61,22.79c-4.19,1.78-8.43,3.42-12.71,5-1.8.64-1,3.54.8,2.89a242.24,242.24,0,0,0,43.42-20.58q5.91-3.57,11.61-7.47c1.59-1.08.09-3.68-1.51-2.59Z"/><path class="cls-1" d="M134.93,210.11a235.75,235.75,0,0,0,23.7,53.57A1.5,1.5,0,0,0,161,264c13.82-14.78,32.39-23.51,50.13-32.58,9-4.61,18-9.37,26.32-15.16a106.46,106.46,0,0,0,11.79-9.39c1.88-1.74,3.8-3.59,4.76-6,1.09-2.71.53-5.58-.62-8.17a56.34,56.34,0,0,0-5.14-8.43q-2.49-3.69-5.2-7.23a164,164,0,0,0-12.14-13.94l.39,1.46.12-.31a1.51,1.51,0,0,0-1.85-1.85c-25.51,9.76-51.17,19.58-75,33q-10,5.64-19.43,12.17c-1.57,1.1-.08,3.7,1.51,2.59,22.26-15.49,47.13-26.62,72.25-36.58,7.14-2.83,14.31-5.58,21.48-8.32l-1.84-1.85-.12.31a1.49,1.49,0,0,0,.38,1.46A157.1,157.1,0,0,1,248.6,190.3c1.47,2.31,3.24,5.06,3,7.93-.25,2.64-2.38,4.55-4.2,6.25a100.94,100.94,0,0,1-11.45,9.18c-16.09,11.17-34.4,18.48-51.24,28.35-9.4,5.5-18.36,11.88-25.82,19.86l2.36.3a233,233,0,0,1-23.4-52.86c-.55-1.84-3.45-1.06-2.89.8Z"/><path class="cls-1" d="M133.11,213.64l19.54,54.1.69-1.7a111.06,111.06,0,0,1-48,15.48c-8,.65-17,1.12-23.59-4.32-6-5-10-12.67-12.69-19.85a70.81,70.81,0,0,1-4.57-27.82L63,231a265.89,265.89,0,0,0,57.78-12.91q4-1.38,7.91-2.88c1.24-.47,2.47-1,3.71-1.44l1.95-.79a2.45,2.45,0,0,1,1.91-.27c1.88.35,2.69-2.54.79-2.89a8,8,0,0,0-1.8-.32,5.55,5.55,0,0,0-1.7.59l-3.47,1.39c-2.33.91-4.66,1.78-7,2.63q-7,2.52-14.22,4.65a261.38,261.38,0,0,1-29.12,6.86Q71.41,227.11,63,228a1.54,1.54,0,0,0-1.5,1.5,73.23,73.23,0,0,0,3.79,26.14c2.64,7.8,6.5,15.89,12.35,21.82a23.58,23.58,0,0,0,10,6.19c4.28,1.27,8.84,1.29,13.27,1.11a113.85,113.85,0,0,0,53.92-16.16,1.51,1.51,0,0,0,.69-1.69L136,212.84c-.65-1.8-3.55-1-2.89.8Z"/><path class="cls-1" d="M340.38,276.48c-13.31-11.49-32.25-11-48.16-6.09-18.38,5.72-34.85,16.82-53.93,20.41-9.58,1.8-19.24.72-28.9.62a64.92,64.92,0,0,0-14.19,1.15,53.21,53.21,0,0,0-12.64,4.77c-3.88,1.93-7.75,4-12,5-4.76,1.2-9.63.66-14.38-.31s-9.6-2.29-14.53-2.85a98.07,98.07,0,0,0-14.94-.37c-9.42.37-18.88,1.42-28.28.31-7.6-.89-15.52-3.2-21.5-8.16a29,29,0,0,1-4-4.06c-1.22-1.49-3.33.64-2.12,2.12,10.81,13.27,29.55,14.12,45.27,13.34,10.06-.51,20.24-1.42,30.21.55,4.81.95,9.53,2.31,14.41,2.89a29.5,29.5,0,0,0,13.41-1.4,122.06,122.06,0,0,0,12-5.5,43.56,43.56,0,0,1,13.08-4c9.61-1.28,19.33.2,29-.06,19.7-.52,36.74-10.52,54.51-17.79,15.8-6.47,34.87-11,50.66-1.95a32.06,32.06,0,0,1,4.93,3.49c1.46,1.26,3.59-.86,2.12-2.12Z"/><path class="cls-1" d="M218,228.3a57.52,57.52,0,0,1,8,11.5l7.7,13.57a1.5,1.5,0,0,0,2.59-1.51q-4-7-7.92-14a59,59,0,0,0-8.21-11.73c-1.34-1.4-3.46.73-2.12,2.13Z"/><path class="cls-1" d="M212,231.4l13.53,25.9c.9,1.71,3.49.2,2.59-1.51l-13.53-25.9c-.89-1.71-3.48-.2-2.59,1.51Z"/><path class="cls-1" d="M189.53,165.88c1.79,3.71,3.63,7.4,5.42,11.11a1.5,1.5,0,1,0,2.59-1.52c-1.79-3.7-3.63-7.39-5.42-11.1a1.5,1.5,0,1,0-2.59,1.51Z"/><path class="cls-1" d="M180.41,168.36l6.56,12c.93,1.7,3.52.19,2.59-1.51L183,166.84c-.92-1.69-3.51-.18-2.59,1.52Z"/><path class="cls-1" d="M195.76,127.19Q211,141,224.94,156l1.06-2.57c-7.35.38-14.41,2.47-21.36,4.75s-13.82,4.53-20.63,7.09c-12.57,4.72-24.8,10.53-35.3,19a72.25,72.25,0,0,0-14.45,15.53h2.59a69.29,69.29,0,0,1-7.92-20.85,67.37,67.37,0,0,1-1.33-11.23c-.11-3.38-.13-7.17,2-10s5.67-4.58,8.53-6.42q5.1-3.27,10.26-6.44,10.23-6.27,20.7-12.1Q181,126.08,193.21,120l-2.2-.89a24.92,24.92,0,0,0,4.75,8.07c1.31,1.42,3.43-.71,2.12-2.12a20.94,20.94,0,0,1-4-6.75,1.53,1.53,0,0,0-2.2-.9q-22.55,11.19-44.06,24.31Q142.27,145,137,148.4c-3.09,2-6.72,3.86-9.16,6.67s-3.14,6.32-3.23,9.9a64,64,0,0,0,.86,11.48,72.11,72.11,0,0,0,8.82,24.84,1.52,1.52,0,0,0,2.59,0C152,179.08,178.63,169.87,203,161.84c7.5-2.47,15.08-5,23-5.45a1.52,1.52,0,0,0,1.06-2.56c-9.31-10-19-19.58-29.18-28.76C196.45,123.77,194.33,125.89,195.76,127.19Z"/><path class="cls-1" d="M154.76,123.19a48.88,48.88,0,0,1,4.36,4.74c.24.3.43.56.75,1s.61.85.91,1.29c.64.93,1.25,1.89,1.85,2.85a1.5,1.5,0,1,0,2.59-1.52,53.33,53.33,0,0,0-8.34-10.47,1.5,1.5,0,0,0-2.12,2.12Z"/><path class="cls-1" d="M150.76,126.19c2.8,3.42,4.73,7.44,7.53,10.87a1.51,1.51,0,0,0,2.12,0,1.53,1.53,0,0,0,0-2.12c-2.79-3.43-4.73-7.45-7.53-10.87a1.5,1.5,0,0,0-2.12,0,1.54,1.54,0,0,0,0,2.12Z"/><path class="cls-1" d="M175.55,109a172.08,172.08,0,0,0-42.38,28.28c-3.58,3.24-7,6.65-10.31,10.19l2.36.3c-3.5-5-7.42-10.51-7.66-16.86a13,13,0,0,1,2.1-8c1.75-2.48,4.59-3.86,7.2-5.24l19.2-10.15c3.11-1.65,6.2-3.37,9.36-4.9,2.94-1.42,6.14-2.7,9.45-2.67a9.75,9.75,0,0,1,8,4.22,13,13,0,0,1,1.89,6.15c.23,1.89,3.24,1.92,3,0a18.34,18.34,0,0,0-1.57-6.43,12.86,12.86,0,0,0-6.53-6c-7.15-2.92-14.62,1.46-20.8,4.73l-21.39,11.31c-3.1,1.64-6.51,3.14-9,5.69a14.43,14.43,0,0,0-3.84,8.45c-1,8,3.59,15,7.95,21.25a1.52,1.52,0,0,0,2.35.3,169.66,169.66,0,0,1,39.42-31.4q6.19-3.57,12.67-6.6C178.81,110.79,177.29,108.2,175.55,109Z"/><path class="cls-1" d="M136.92,78l25.45,20.85c1.48,1.22,3.61-.89,2.12-2.12L139,75.92c-1.48-1.22-3.62.89-2.12,2.12Z"/><path class="cls-1" d="M138.17,76.88l-30.36,10.5a1.51,1.51,0,0,0-1,1.84,83.77,83.77,0,0,1,5.6,27.4,1.52,1.52,0,0,0,1.9,1.45c13.58-5.36,27.13-10.8,41-15.5,1.82-.61,1-3.51-.8-2.89-13.82,4.7-27.37,10.14-40.95,15.49l1.9,1.45a85.93,85.93,0,0,0-5.71-28.2l-1,1.85L139,79.77c1.82-.62,1-3.52-.79-2.89Z"/><path class="cls-1" d="M114.17,124.31,66.8,143.79l-13.64,5.6a1.52,1.52,0,0,0-.66,2.51,27.44,27.44,0,0,1,8,20.09,1.52,1.52,0,0,0,2.26,1.3,111.59,111.59,0,0,1,47.26-12.66,113.12,113.12,0,0,1,14,.32,1.51,1.51,0,0,0,1.5-1.5l-.37-11.81c-.06-1.93-3.06-1.94-3,0l.37,11.81,1.5-1.5a114.42,114.42,0,0,0-62.8,12.75L63.54,172a30.47,30.47,0,0,0-8.92-22.21L54,152.29l47.38-19.48L115,127.2c1.76-.72,1-3.62-.8-2.89Z"/><path class="cls-1" d="M95.06,161c2.82,4.46,4.37,9.64,6.32,14.51a1.53,1.53,0,0,0,1.84,1,1.5,1.5,0,0,0,1-1.84c-2-5.1-3.67-10.55-6.62-15.23-1-1.63-3.62-.12-2.59,1.52Z"/><path class="cls-1" d="M86.38,163.53c1.76,5.3,3.05,10.75,5,16a1.5,1.5,0,0,0,2.89-.8c-2-5.24-3.24-10.7-5-16-.61-1.82-3.5-1-2.89.8Z"/><path class="cls-1" d="M125.42,166.68a318.65,318.65,0,0,0-56,21.89c-5,2.53-9.86,5.23-14.63,8.12-1.65,1-.15,3.6,1.51,2.6,17-10.3,35.38-18.29,54.15-24.73q7.83-2.69,15.77-5a1.5,1.5,0,0,0-.8-2.89Z"/><path class="cls-1" d="M56.42,199.57c2.15.89,4.52,1.11,6.67,2A2.7,2.7,0,0,1,64.78,203c.79,1.71,1.36,3.51,2.25,5.18,2.85,5.34,8.57,8.19,14.28,9.39,12.07,2.54,25.23-.19,35.91-6.11a53.74,53.74,0,0,0,16-13.54c1.19-1.49-.92-3.63-2.12-2.12A52.5,52.5,0,0,1,101,214.39a47.13,47.13,0,0,1-17.79.53c-5.73-1-11.36-3.49-14-9a53.25,53.25,0,0,0-2.13-5,5.58,5.58,0,0,0-2.6-2c-2.34-1-4.92-1.3-7.28-2.27-1.78-.73-2.56,2.17-.8,2.89Z"/><path class="cls-1" d="M112.53,212.88c.93,1.79,1.89,3.56,2.82,5.35l2.59-1.51-.58-.9a1.5,1.5,0,1,0-2.59,1.51l.58.9a1.5,1.5,0,1,0,2.59-1.51c-.92-1.79-1.89-3.56-2.82-5.35a1.5,1.5,0,1,0-2.59,1.51Z"/><path class="cls-1" d="M105.53,215.88l.27.62-.15-.36c.26.63.47,1.28.67,1.92a20.93,20.93,0,0,0,.93,2.38,1.56,1.56,0,0,0,.9.69,1.54,1.54,0,0,0,1.15-.16,1.47,1.47,0,0,0,.69-.89,1.67,1.67,0,0,0-.15-1.16l-.27-.61.15.35c-.26-.62-.47-1.27-.67-1.92a20.08,20.08,0,0,0-.93-2.37,1.5,1.5,0,0,0-2.74.36,1.65,1.65,0,0,0,.15,1.15Z"/><path class="cls-1" d="M110.4,85.49l-6.34-14.42a1.48,1.48,0,0,0-1.69-.69Q87.9,76.25,73.37,82q-9.63,3.8-19.27,7.49c-3.36,1.28-7,2.31-9.92,4.53-3.39,2.6-4.5,6.61-4.22,10.74.65,9.64,5.33,19.12,11.61,26.31a1.53,1.53,0,0,0,1.82.23,180.6,180.6,0,0,1,45.27-21.09q6.7-2.08,13.56-3.6c1.89-.41,1.09-3.3-.8-2.89A184,184,0,0,0,64.13,121.4c-4.18,2.25-8.28,4.67-12.25,7.27l1.81.23a44.85,44.85,0,0,1-10.5-22.18c-.62-3.81-.42-8,3-10.49,2.67-2,6.1-2.88,9.17-4C66.8,87.8,78.23,83.27,89.64,78.72q6.78-2.7,13.52-5.45l-1.69-.69L107.81,87c.78,1.76,3.36.24,2.59-1.51Z"/><path class="cls-1" d="M75.53,117.88c3.78,6.27,7.21,12.74,11,19a1.5,1.5,0,0,0,2.59-1.51c-3.79-6.26-7.22-12.74-11-19-1-1.65-3.59-.14-2.59,1.51Z"/><path class="cls-1" d="M68.18,122.49c3.67,6,6.68,12.39,10.35,18.39,1,1.65,3.6.15,2.59-1.51-3.67-6-6.68-12.38-10.34-18.39-1-1.65-3.6-.14-2.6,1.51Z"/><path class="cls-1" d="M56.69,72.38a99.33,99.33,0,0,1,6.69,14.15,1.5,1.5,0,0,0,2.89-.8,104.75,104.75,0,0,0-7-14.86c-.92-1.7-3.51-.19-2.6,1.51Z"/><path class="cls-1" d="M49.53,76.88c2.6,4,4.23,8.52,6.83,12.5a1.52,1.52,0,0,0,2,.54,1.5,1.5,0,0,0,.54-2c-2.6-4-4.23-8.51-6.83-12.5a1.53,1.53,0,0,0-2-.54,1.51,1.51,0,0,0-.54,2Z"/><path class="cls-1" d="M92.06,56.79A160.13,160.13,0,0,0,57.88,68.63,158,158,0,0,0,41.8,77.49c-1.19.75-2.36,1.51-3.53,2.29s-2.53,2.11-3.94,2.37S32.76,81,32.53,80c-.39-1.64-.7-3.3-1.05-4.94l-2.12-9.94c-.62-2.91-1.62-6-1.23-9,.73-5.62,7.6-7.11,12-8.65l19.25-6.65L69,37.48c3.08-1.06,6.35-2.62,9.62-2.92C84.72,34,88.55,40.81,91,45.39a11,11,0,0,1,1.15,7.66A46.26,46.26,0,0,1,91,57.84a1.5,1.5,0,0,0,2.89.8c1.1-3.77,2.24-8,.95-11.9a32.79,32.79,0,0,0-4.5-8.07A19.44,19.44,0,0,0,84.79,33a11.43,11.43,0,0,0-9.1-.93c-3.48.93-6.87,2.3-10.26,3.47L44.3,42.87c-3.34,1.15-6.72,2.21-10,3.49a17.25,17.25,0,0,0-6.69,4.07C23,55.5,25.84,63,27.09,68.87l2.32,10.91c.56,2.63,1.66,5.68,4.95,5.39a8.72,8.72,0,0,0,4-1.8q2-1.38,4.06-2.69,4.29-2.75,8.74-5.21A157.26,157.26,0,0,1,92.85,59.69C94.74,59.27,93.94,56.37,92.06,56.79Z"/><path class="cls-1" d="M316.5,190.16c-11.5-11.92-24.84-21.82-38.25-31.45-14.17-10.18-28.52-20.14-42.56-30.5-11.21-8.28-21.64-17.61-32.08-26.83-11.16-9.87-22.3-19.79-34.08-28.93-10.86-8.42-22.3-16.39-34.92-22q-2.18-1-4.39-1.82c-1.8-.7-2.58,2.2-.8,2.89,12.58,4.89,24,12.47,34.77,20.54C176,81,187.06,90.75,198.11,100.51c10.52,9.29,21,18.69,32.08,27.27,6.25,4.83,12.76,9.33,19.18,13.92l21.84,15.64c13.39,9.58,26.89,19.14,38.8,30.58,1.48,1.43,2.94,2.88,4.37,4.37s3.46-.74,2.12-2.13Z"/><path class="cls-1" d="M316.84,191a98.61,98.61,0,0,0-48.6-.78,95.1,95.1,0,0,0-13.36,4.24c-1.77.7-1,3.6.8,2.89a96.1,96.1,0,0,1,47-6.11,94.81,94.81,0,0,1,13.36,2.65,1.5,1.5,0,0,0,.79-2.89Z"/><path class="cls-1" d="M230.31,161.85l-4.93-6.38a1.63,1.63,0,0,0-.9-.69,1.49,1.49,0,0,0-1.69,2.2l4.93,6.39a1.7,1.7,0,0,0,.89.69,1.56,1.56,0,0,0,1.16-.15,1.53,1.53,0,0,0,.54-2.06Z"/><path class="cls-1" d="M187.88,119.07c-3.7-3.42-6.81-7.4-10.51-10.82a1.53,1.53,0,0,0-2.12,0,1.51,1.51,0,0,0,0,2.12c3.7,3.42,6.81,7.4,10.51,10.82a1.53,1.53,0,0,0,2.12,0,1.51,1.51,0,0,0,0-2.12Z"/><path class="cls-1" d="M71.34,289.7a413.46,413.46,0,0,0,54.07-1,420.4,420.4,0,0,0,53.07-7.94A418.11,418.11,0,0,0,230.31,266a418.38,418.38,0,0,0,49.28-21.16,408.6,408.6,0,0,0,46.48-27.58c1.85-1.26,3.68-2.55,5.51-3.85,1.56-1.11.06-3.71-1.51-2.59A412.69,412.69,0,0,1,284.42,239a415.69,415.69,0,0,1-48.84,21.93,420.07,420.07,0,0,1-51.16,15.43,411.36,411.36,0,0,1-52.79,8.77A411.23,411.23,0,0,1,78.06,287q-3.36-.1-6.72-.26c-1.93-.09-1.92,2.91,0,3Z"/><path class="cls-1" d="M409.48,111.87C389,132,368.59,152.09,347.16,171.16c-10.58,9.42-21.4,18.58-32.54,27.33S291.71,215.3,279.79,223c-13.49,8.73-27.22,17.09-40.72,25.8-1.62,1-.12,3.64,1.51,2.59,24-15.49,48.85-29.9,71.6-47.28s44-36.63,64.7-56.35c11.69-11.15,23.21-22.47,34.73-33.8,1.37-1.36-.75-3.48-2.13-2.12Z"/><path class="cls-1" d="M411.2,114.7c.75,0-.17,1.36-.37,1.6-.54.68-1.19,1.29-1.79,1.93l-3.28,3.46q-3.51,3.69-7,7.36-7.29,7.59-14.64,15.12Q372.92,155.63,361.69,167a96,96,0,0,1-7.28,6.53q-10.34,8.61-21,16.78c-14.43,11-29.33,21.44-44.71,31.1a498.15,498.15,0,0,1-47.47,26.48q-3.06,1.49-6.14,2.92c-1.75.82-.23,3.41,1.51,2.59a486.91,486.91,0,0,0,49.53-26.85c16-9.86,31.47-20.54,46.45-31.88q11-8.3,21.58-17a118.69,118.69,0,0,0,9.19-8q11.35-11.52,22.63-23.1,7.59-7.78,15.13-15.63,3.63-3.78,7.24-7.57l3.25-3.44c1.29-1.37,3-2.89,2.91-4.94a3.27,3.27,0,0,0-3.29-3.26c-1.91.12-1.93,3.13,0,3Z"/><path class="cls-1" d="M392.07,130a479.59,479.59,0,0,0-45.58-25.79,521.84,521.84,0,0,0-48.21-20.9Q273.58,74,248.05,67.16T196.53,55.81q-26-4.5-52.3-6.68-3.19-.27-6.41-.5c-1.92-.14-1.91,2.86,0,3q26.1,1.89,52,6.07T241,68.41q25.46,6.54,50.21,15.45A514.18,514.18,0,0,1,339.37,104a478.53,478.53,0,0,1,45.75,25.09q2.73,1.69,5.44,3.43c1.63,1.05,3.14-1.55,1.51-2.59Z"/><path class="cls-1" d="M384.71,134.91c-16.63-8.81-33.2-17.72-50-26.22-15.68-7.94-31.56-15.45-47.91-21.93-15.74-6.24-31.79-11.67-48-16.46Q214,63,188.73,57.55q-24.64-5.32-49.59-9l-5.92-.85c-1.89-.26-2.7,2.63-.8,2.89Q157.13,54,181.58,59.1q25.15,5.22,49.9,12.2c16.35,4.65,32.52,9.91,48.4,16,16.18,6.16,31.91,13.32,47.4,21,16.75,8.34,33.25,17.19,49.78,26l6.13,3.25c1.71.9,3.23-1.69,1.52-2.59Z"/><path class="cls-1" d="M370.09,150.18c-10-11-22.29-19.6-35.37-26.54-13.28-7.07-27.35-12.53-41.46-17.71-16.76-6.16-33.56-12.2-50.34-18.3L191.11,68.82,139.53,50.09,133,47.71c-1.81-.66-2.6,2.23-.79,2.89l51.34,18.64L235.09,88l51.26,18.62c14,5.09,28,10.26,41.44,16.86C341,130,353.67,137.93,364.2,148.36c1.29,1.28,2.54,2.59,3.77,3.94s3.42-.7,2.12-2.12Z"/><path class="cls-1" d="M368.45,150.58c-16-8.2-34.29-5-51.39-3.4-9.11.85-18.48,1.28-27.44-1-8.41-2.1-15.83-6.67-22.71-11.81s-13.37-10.59-20-15.9-13.61-10.8-20.5-16.08a501.7,501.7,0,0,0-42.95-30,252.31,252.31,0,0,0-46.15-22.67q-3-1.08-6.06-2.07c-1.84-.59-2.63,2.3-.8,2.89a234.67,234.67,0,0,1,46.64,21.52,456,456,0,0,1,43.1,29.34c13.77,10.41,27.13,21.35,40.68,32,6.61,5.23,13.47,10.2,21.31,13.44,8.39,3.46,17.53,4.22,26.53,3.85,17.3-.7,35.35-5.56,52.34-.06a39.73,39.73,0,0,1,5.92,2.46c1.72.88,3.24-1.71,1.51-2.59Z"/><path class="cls-1" d="M287.82,168.63a203.89,203.89,0,0,1,26.29,4.81c4.27,1.08,8.49,2.32,12.64,3.78a19.36,19.36,0,0,0,4.58,1.45l2.73.21a1.51,1.51,0,0,0,1.06-2.56c-8.71-9.12-17.52-18.14-26.24-27.25-1.33-1.4-3.45.72-2.12,2.12,8.72,9.11,17.53,18.13,26.24,27.25l1.06-2.56c-.9-.07-1.84-.06-2.73-.21a35.34,35.34,0,0,1-4.61-1.63c-4.17-1.43-8.41-2.65-12.69-3.72a213.46,213.46,0,0,0-26.21-4.69c-1.91-.23-1.89,2.77,0,3Z"/><path class="cls-1" d="M133.55,10a164.08,164.08,0,0,1,33.12,31.12l1.06-2.56c-20,1.5-39.88,6.36-59,12.14-5.13,1.55-10.22,3.2-15.27,5-1.8.64-1,3.54.8,2.89A337.34,337.34,0,0,1,152,43.49c5.21-.86,10.44-1.54,15.7-1.94A1.52,1.52,0,0,0,168.8,39,166.63,166.63,0,0,0,135.06,7.4C133.48,6.29,132,8.89,133.55,10Z"/><path class="cls-1" d="M132.5,6.79,108.23,22.18c-4.93,3.12-10.1,5.88-14.6,9.63-2.18,1.81-4.54,4.07-5.25,6.92-.47,1.87,2.42,2.67,2.89.8.54-2.19,2.48-3.9,4.12-5.3A60.73,60.73,0,0,1,102.85,29c6-3.72,11.94-7.4,17.87-11.16L134,9.38c1.63-1,.12-3.63-1.51-2.59Z"/><path class="cls-1" d="M28.07,69.83,17.16,76c-3.87,2.18-8,4.2-11.4,7A15.15,15.15,0,0,0,0,94.38c-.15,4.81,1.62,9.44,3.56,13.76,2.27,5,4.9,10.22,4.48,15.92h3c-.27-6.17,3.95-11.46,9.1-14.39,6.34-3.61,14-4,21.06-4.41,1.92-.11,1.93-3.11,0-3-7.86.46-16.32,1-23.21,5.2-5.72,3.51-10.25,9.65-9.95,16.6a1.5,1.5,0,0,0,3,0c.71-9.68-6.46-17.33-7.86-26.58A12.58,12.58,0,0,1,7,85.89C10.15,83,14.19,81.1,17.87,79l11.71-6.61a1.5,1.5,0,0,0-1.51-2.59Z"/><path class="cls-1" d="M42,115.93A193.42,193.42,0,0,1,6.37,131.86c-1.83.6-1,3.5.8,2.89a197.8,197.8,0,0,0,36.35-16.23A1.5,1.5,0,0,0,42,115.93Z"/><path class="cls-1" d="M5.64,132.27a62.55,62.55,0,0,0,6.59,35.8,1.52,1.52,0,0,0,2.35.3,57.7,57.7,0,0,1,13.81-8.74,65.71,65.71,0,0,1,15.29-4.45c4.72-.87,9.7-1.8,13.61-4.76a14.05,14.05,0,0,0,5.6-11.12A14.73,14.73,0,0,0,57,127c-1.56-1.14-3.06,1.46-1.51,2.59a11.7,11.7,0,0,1,4.45,9.86,11.18,11.18,0,0,1-5.77,9.47c-3.95,2.3-8.68,2.87-13.1,3.7A62.62,62.62,0,0,0,26.87,157a60.07,60.07,0,0,0-14.41,9.21l2.36.3a59.74,59.74,0,0,1-6.18-34.28c.22-1.91-2.78-1.9-3,0Z"/><path class="cls-1" d="M56.07,153.83A227.38,227.38,0,0,1,9.4,169.51a1.52,1.52,0,0,0-.89,2.21l19,42.09L37,234.63c2.64,5.83,5,12.44,10.2,16.52,5.5,4.33,12.73,5.11,19.47,5.74,1.92.18,1.91-2.82,0-3-5.82-.54-12.12-1.16-17-4.63-5.19-3.67-7.43-10.36-10-15.92L21.33,192.83,11.1,170.2l-.9,2.21a231.08,231.08,0,0,0,47.38-16c1.75-.8.23-3.39-1.51-2.59Z"/><path class="cls-1" d="M122.88,283.36l1.33,3.33a1.64,1.64,0,0,0,.69.9,1.5,1.5,0,0,0,2-.54,1.42,1.42,0,0,0,.15-1.15l-1.33-3.34a1.65,1.65,0,0,0-.69-.89,1.57,1.57,0,0,0-1.16-.16,1.54,1.54,0,0,0-.89.69,1.44,1.44,0,0,0-.15,1.16Z"/><path class="cls-1" d="M114.36,283.72l1,2.33a1,1,0,0,0,.39.42,1.14,1.14,0,0,0,.51.27,1.5,1.5,0,0,0,1.84-1.05l.06-.4a1.51,1.51,0,0,0-.21-.75l-1-2.34a1.12,1.12,0,0,0-.39-.42,1.14,1.14,0,0,0-.51-.27,1.55,1.55,0,0,0-1.15.16,1.5,1.5,0,0,0-.69.89l0,.4a1.47,1.47,0,0,0,.2.76Z"/><path class="cls-1" d="M47.88,42.07c-2.48-2.59-4.73-5.41-7.27-8a4.4,4.4,0,0,0-2.49-1.4,2.89,2.89,0,0,0-2.51.85c-1.68,1.81.26,4.06,1.28,5.63l3.69,5.7a1.54,1.54,0,0,0,2.06.54,1.51,1.51,0,0,0,.53-2l-3.58-5.53c-.52-.8-1.19-1.77-1.6-2.49-.14-.23,0-.09-.1.11a.48.48,0,0,1-.19.21c.15-.08.14-.08,0,0,.18,0,.17,0,0,0,.17,0,.17,0,0,0,.14.05.16.05.08,0a1.19,1.19,0,0,1,.22.12,11.54,11.54,0,0,1,1.85,1.85c.67.72,1.32,1.44,2,2.17,1.31,1.48,2.62,3,4,4.39a1.53,1.53,0,0,0,2.12,0,1.51,1.51,0,0,0,0-2.12Z"/><path class="cls-1" d="M128.12,81.37c-4.7-10.41-9.2-20.91-13.89-31.32-.79-1.76-3.38-.24-2.59,1.51,4.69,10.41,9.19,20.91,13.89,31.32.79,1.76,3.38.24,2.59-1.51Z"/></g><path class="cls-1" d="M99.93,2.24l8.9,19.9a1.51,1.51,0,0,0,2,.54,1.53,1.53,0,0,0,.54-2.05L102.52.73a1.5,1.5,0,0,0-2-.54,1.54,1.54,0,0,0-.54,2.05Z"/><path class="cls-1" d="M410.32,111.73c-17.33,0-34.66-.61-52-.6a1.5,1.5,0,0,0,0,3c17.34,0,34.67.61,52,.6a1.5,1.5,0,0,0,0-3Z"/></g></g></g></svg>