<svg xmlns="http://www.w3.org/2000/svg" viewBox="0 0 418.29 520"><defs><style>.cls-1{fill:#b1a079;}</style></defs><g id="Calque_2" data-name="Calque 2"><g id="femme_bombe" data-name="femme bombe"><path class="cls-1" d="M215.13,88.32a68.79,68.79,0,0,1-7.87,5.22,36.49,36.49,0,0,1-8.59,3.23c-5.75,1.46-11.93,2.4-16.81,6-4.17,3.11-7.14,8.38-5.83,13.68s6.46,8.45,11.07,10.43c5.85,2.51,12.58,3.36,18.4.33,1.72-.9.2-3.49-1.51-2.59-4.57,2.38-9.9,1.74-14.56,0-4.05-1.52-9.23-4.26-10.46-8.78-1.3-4.79,2.23-9.31,6.13-11.61,4.65-2.75,10.13-3.45,15.26-4.83,6.11-1.63,11.25-4.79,16.29-8.52,1.53-1.14,0-3.74-1.52-2.59Z"/><path class="cls-1" d="M210.86,127.85c-5.37,7.86-10,22.5,1.59,27.32,5.1,2.13,10.67,1,15.67-.9a139.16,139.16,0,0,0,16.25-7.43c2.79-1.48,5.69-3.08,8.95-3a10.41,10.41,0,0,1,7.31,3.54c1.29,1.44,3.41-.69,2.12-2.12a13.34,13.34,0,0,0-13-4,33.2,33.2,0,0,0-7.47,3.3c-2.55,1.35-5.15,2.62-7.78,3.82-5,2.24-10.44,4.93-16,5-4.63,0-9.25-2.39-10.16-7.24a17.28,17.28,0,0,1,1-8.53,32.49,32.49,0,0,1,4.11-8.2c1.09-1.6-1.51-3.1-2.59-1.52Z"/><path class="cls-1" d="M248.48,143.23c-3.14,2.76-6.27,5.55-9.62,8-3.19,2.38-6.75,4.2-9.91,6.61-5.33,4.07-8.47,10.2-9.88,16.66-1.61,7.4-1,14.91-.14,22.36,1,8.39,2,16.66,1,25.1a79.94,79.94,0,0,1-7.82,25.08c-.84,1.73,1.75,3.25,2.59,1.51a86.81,86.81,0,0,0,7.48-21.69,80.18,80.18,0,0,0,.4-24.45c-.91-7.76-2.18-15.6-1.26-23.43.76-6.37,3-12.89,7.78-17.38,3.2-3,7.35-4.91,10.88-7.5,3.7-2.72,7.16-5.75,10.6-8.79,1.45-1.28-.68-3.4-2.12-2.12Z"/><path class="cls-1" d="M178.92,119.13a124.17,124.17,0,0,0-16.9,3.26,1.5,1.5,0,0,0,.8,2.89,119,119,0,0,1,16.1-3.15,1.55,1.55,0,0,0,1.5-1.5c0-.73-.69-1.61-1.5-1.5Z"/><path class="cls-1" d="M179.18,128.54a61.63,61.63,0,0,0-36.48-6.64,84.9,84.9,0,0,0-31.27,10.84,102.8,102.8,0,0,0-12.05,8.06,60.19,60.19,0,0,0-12,11.77,67,67,0,0,0-8.22,16,92.3,92.3,0,0,0-4.46,16,99.85,99.85,0,0,0,10,64.94c5.41,10.05,12.72,19.6,22.08,26.25,10.27,7.31,22.77,9.4,35.13,9.56,13.09.16,26.8-.43,38.87-5.94a122.89,122.89,0,0,0,17-9.82,42.25,42.25,0,0,0,13-13.11,56,56,0,0,0,4-8.19c.72-1.79-2.18-2.57-2.89-.8a40.88,40.88,0,0,1-10,15.21c-4.49,4.07-9.93,7.17-15.15,10.2a62.79,62.79,0,0,1-17.37,7.26,100.44,100.44,0,0,1-19.11,2.07c-11.95.42-24.61.16-35.57-5.21-10.14-5-18-13.78-24-23.16a96.29,96.29,0,0,1-14.21-61,89.9,89.9,0,0,1,8.69-30.73A48.35,48.35,0,0,1,96,147.56,89.22,89.22,0,0,1,107,139c18.08-12,40.82-18.79,62.07-11.61a59.81,59.81,0,0,1,8.62,3.73c1.7.9,3.22-1.69,1.51-2.59Z"/><path class="cls-1" d="M124.36,126.78a198.89,198.89,0,0,0-23.25,34.79c-3.35,6.47-6.48,13.23-7.55,20.49a76.09,76.09,0,0,0,0,20.94c3.48,26.66,19.18,50.1,41.12,65.26,5.6,3.87,11.73,7.67,18.19,9.91,5.87,2,12.06,2.91,18.13,4.11,1.89.38,2.7-2.51.8-2.89-5.13-1-10.31-1.81-15.35-3.24-5.66-1.61-10.87-4.51-15.85-7.6a98.38,98.38,0,0,1-27.36-24.94,89.07,89.07,0,0,1-15.9-35.89A80.88,80.88,0,0,1,96,187.77a46.57,46.57,0,0,1,1.81-11,69.41,69.41,0,0,1,4-9.89,188.27,188.27,0,0,1,24.67-38c1.22-1.48-.89-3.62-2.12-2.12Z"/><path class="cls-1" d="M117.32,186.17a1.66,1.66,0,0,0-.71,2,1.94,1.94,0,0,0,1.81,1.38,3.08,3.08,0,0,0,2.28-1.08,4.77,4.77,0,0,0,1.13-2.14,4.88,4.88,0,0,0-.13-2.73.77.77,0,0,0-.92-.52.76.76,0,0,0-.53.92,4.11,4.11,0,0,1,.17.57s0,.31,0,.17c0,.07,0,.14,0,.22a3.9,3.9,0,0,1,0,.59c0,.05,0,.09,0,.14s0-.07,0,0,0,.17,0,.25a5.22,5.22,0,0,1-.18.56c-.07.22.07-.1,0,.1l-.13.26a2.58,2.58,0,0,1-.61.78,2.17,2.17,0,0,1-.34.24l-.16.08c-.09,0-.19.06-.28.09s-.1,0,0,0h-.14s-.23,0-.09,0l-.14,0c-.1,0-.09,0,0,0l-.09,0c.08.06.09.07,0,0s-.09-.1,0,0l-.11-.19c0-.07,0-.06,0,0l0-.1,0-.11c0,.11,0,.13,0,0a.76.76,0,0,1,0-.15c0,.11,0,.13,0,0l0-.09c0,.1,0,.11,0,0l0,0c.06-.06,0-.05,0,0l.09-.05a.76.76,0,0,0,.27-1,.77.77,0,0,0-1-.27Z"/><path class="cls-1" d="M116.54,187.62c-.83,3.14.86,5.87,2.59,8.34a13.89,13.89,0,0,1,2.07,3.87,11.54,11.54,0,0,1,.48,4.37,1.51,1.51,0,0,0,1.5,1.5,1.53,1.53,0,0,0,1.5-1.5,14.14,14.14,0,0,0-2.18-8.59c-1.32-2.08-3.78-4.5-3.06-7.19a1.51,1.51,0,0,0-2.9-.8Z"/><path class="cls-1" d="M121.61,201.19a3.54,3.54,0,0,0-1.47,2.29,4.6,4.6,0,0,0,.47,2.82,5.26,5.26,0,0,0,5,2.53,10.26,10.26,0,0,0,5.64-1.77,5.94,5.94,0,0,0,2.3-5.31,7.59,7.59,0,0,0-3.63-5.55,1.51,1.51,0,0,0-2,.54,1.53,1.53,0,0,0,.53,2,4,4,0,0,1,.43.29c.14.1,0,0,0,0l.22.2a6.24,6.24,0,0,1,.71.74c-.14-.17.12.17.15.22s.16.25.23.38.16.3.23.45c0,0-.07-.18,0,0s.08.23.11.35.07.28.1.42,0,.09,0,0,0,.14,0,.21a4.17,4.17,0,0,1,0,.5c0,.07,0,.15,0,.22,0,.24.08-.34,0,.09,0,.14-.06.28-.1.41l-.09.27,0,.08,0,.08-.14.25a1.74,1.74,0,0,1-.11.18c-.12.19.13-.15,0,0s-.23.25-.35.37-.18.16-.08.08-.13.09-.15.1a4.11,4.11,0,0,1-.39.24l-.27.14-.17.08c-.16.07-.63.23-.92.31s-.7.18-1.06.25c-.06,0-.53.09-.3.06l-.47,0a8.57,8.57,0,0,1-1,0c.14,0-.1,0-.11,0l-.29-.06a3.26,3.26,0,0,1-.44-.15c.21.09-.2-.12-.25-.15a.91.91,0,0,1-.16-.11c.16.11.1.1,0,0s-.25-.34-.11-.1l-.24-.4c0-.08-.06-.24,0,0,0-.07,0-.14-.07-.22s-.07-.5-.06-.16c0-.15,0-.31,0-.45,0,0-.07.28,0,.12s0-.14,0-.21.12-.25,0-.07,0-.05,0-.06-.06.07-.07.08.31-.29,0-.07a1.54,1.54,0,0,0,.54-2.05,1.52,1.52,0,0,0-2-.54Z"/><path class="cls-1" d="M130.72,197.08c-1.51-2.11-3-4.28-4.34-6.47-.83-1.32-1.64-2.64-2.37-4-.16-.3-.32-.6-.47-.91-.07-.13-.13-.27-.2-.41s-.22-.54-.06-.12c-.08-.22-.17-.44-.24-.67s0-.19-.07-.28c-.11-.34,0,.32,0,.1a1.54,1.54,0,0,0-1.5-1.5,1.51,1.51,0,0,0-1.5,1.5,7.76,7.76,0,0,0,.84,2.64c.49,1,1.05,2,1.62,3,1.3,2.19,2.7,4.32,4.13,6.43.51.75,1,1.5,1.56,2.24a1.54,1.54,0,0,0,2.05.54,1.51,1.51,0,0,0,.54-2Z"/><path class="cls-1" d="M120.07,186.46c.61-1.78,1.11-3.85,2.34-5.33a6.8,6.8,0,0,1,4-2.32,20.76,20.76,0,0,1,4.72.22,24,24,0,0,0,5.08-.27,14,14,0,0,0,8.83-5.13c2.13-2.64,4.53-4.41,8-4.7A17.4,17.4,0,0,1,162.6,171c2.63,1.4,4.91,3.66,7.87,4.36a40.4,40.4,0,0,0,12.12.57c6.47-.54,13.15-2.37,17.89-7,1.38-1.36-.74-3.48-2.12-2.12-4.15,4.07-10.11,5.68-15.77,6.15-3.76.31-8.09.43-11.59-.53a14.34,14.34,0,0,1-3.92-2.12,27.68,27.68,0,0,0-4.57-2.64,19.75,19.75,0,0,0-9.76-1.67,13.24,13.24,0,0,0-8.59,4.09c-1.29,1.42-2.31,3.05-4,4.1a12.54,12.54,0,0,1-4.75,1.7,21,21,0,0,1-5.77,0,11.49,11.49,0,0,0-5.37.39,9.74,9.74,0,0,0-4.48,3.29,21.43,21.43,0,0,0-2.65,6.08c-.62,1.83,2.27,2.62,2.89.8Z"/><path class="cls-1" d="M189,169.08c1.26-1,2.68-2,4.12-3s3-1.94,4.51-2.83a1.5,1.5,0,1,0-1.51-2.59,75.49,75.49,0,0,0-9.24,6.33,1.5,1.5,0,0,0,0,2.12,1.54,1.54,0,0,0,2.12,0Z"/><path class="cls-1" d="M189.94,162.69q5.58-5.77,10.76-11.91a1.53,1.53,0,0,0,0-2.12,1.5,1.5,0,0,0-2.12,0q-5.18,6.14-10.76,11.91c-1.34,1.39.78,3.51,2.12,2.12Z"/><path class="cls-1" d="M183.87,164.24A109.72,109.72,0,0,1,189,151.41a117.58,117.58,0,0,1,6.32-12.28c1-1.65-1.59-3.16-2.59-1.51a119.15,119.15,0,0,0-6.48,12.62,113.55,113.55,0,0,0-5.23,13.2c-.58,1.84,2.32,2.64,2.89.8Z"/><path class="cls-1" d="M182.33,157.06q2.14-7,4-14c.48-1.87-2.41-2.67-2.89-.8q-1.82,7-4,14c-.57,1.85,2.32,2.64,2.89.8Z"/><path class="cls-1" d="M175.92,170.84c-.35-5.84-.6-11.68-.95-17.52-.12-1.91-3.12-1.93-3,0,.35,5.84.6,11.68.95,17.52.12,1.91,3.12,1.93,3,0Z"/><path class="cls-1" d="M36.41,301.07a31.8,31.8,0,0,1,10.24-3.63,1.51,1.51,0,0,0,1.05-1.84,1.52,1.52,0,0,0-1.84-1.05,34.08,34.08,0,0,0-11,3.93,1.5,1.5,0,1,0,1.52,2.59Z"/><path class="cls-1" d="M47.17,297.33Q71,289.22,94.79,280.84l13.51-4.79c1.8-.65,1-3.55-.8-2.9q-23.73,8.48-47.57,16.65l-13.55,4.64c-1.82.61-1,3.51.79,2.89Z"/><path class="cls-1" d="M55.18,313.8q22.75-3.63,45.5-7.26a208.74,208.74,0,0,0,21.47-4.35,152.58,152.58,0,0,0,40.57-17.67c1.63-1,.13-3.61-1.52-2.59a149.46,149.46,0,0,1-37.69,16.77c-14.23,4.07-29.09,5.81-43.68,8.15l-25.44,4.06c-1.9.3-1.1,3.2.79,2.89Z"/><path class="cls-1" d="M210.92,250.84c-1.47,24.34-1.09,48.82,2.65,73q4,25.75,8.64,51.41c1.14,6.33,2.09,12.81,3.77,19a1.5,1.5,0,0,0,2.89-.8c-1.42-5.29-2.26-10.77-3.24-16.14-1.6-8.75-3.11-17.51-4.59-26.28q-2.14-12.69-4.16-25.39c-.45-2.85-.9-5.71-1.31-8.56-.07-.49-.14-1-.2-1.46,0-.11,0-.22-.05-.32.06.43,0,.09,0,0s0-.41-.08-.61c-.42-3.41-.74-6.83-1-10.25a375.89,375.89,0,0,1-.29-53.59c.12-1.93-2.88-1.93-3,0Z"/><path class="cls-1" d="M34.72,298.32c-3,4.46-1.19,10.05.37,14.69,2,5.94,4,11.87,6,17.8,4,11.69,8.22,23.33,12.84,34.8s9.71,22.62,14,34.14A311.16,311.16,0,0,1,78.59,435c.81,3.27,1.59,6.55,2.37,9.83a79.94,79.94,0,0,1,2.16,10.35,19.49,19.49,0,0,1-.93,8.51,35.43,35.43,0,0,1-4.06,7.39c-1.06,1.62,1.53,3.13,2.59,1.51,2.74-4.2,5.08-8.41,5.46-13.52.44-6-1.62-12.08-3-17.85-2.83-11.85-5.82-23.69-9.75-35.24s-9-22.89-13.72-34.23-9.16-23.1-13.29-34.83c-2.32-6.6-4.57-13.22-6.81-19.85-1-3-2.17-6-3-9.08-.7-2.75-1-5.7.65-8.16,1.09-1.6-1.51-3.1-2.59-1.51Z"/><path class="cls-1" d="M77.91,471.22a7,7,0,0,0-.64,5,1.51,1.51,0,0,0,1.44,1.1c4.74,0,8.09-3.65,10.79-7.12A16.77,16.77,0,0,0,93,463.72,75,75,0,0,0,94,456c.63-5.09,1.57-10.3,4.15-14.81,1.19-2.07,2.66-4.1,3-6.52a8.3,8.3,0,0,0-2.06-6.44,78,78,0,0,1-4.87-6.95c-1.47-2.41-2.89-4.87-4.58-7.15-1.14-1.54-3.74,0-2.59,1.51,2.7,3.66,4.73,7.76,7.38,11.45,1.25,1.74,3.26,3.47,3.73,5.63s-1,4.19-2,5.91a36.6,36.6,0,0,0-4.57,13.07c-.4,2.37-.67,4.75-.93,7.13s-.41,4.72-1.6,6.79a28.32,28.32,0,0,1-4.47,5.7c-1.62,1.65-3.54,3.05-5.94,3.05l1.45,1.1a3.68,3.68,0,0,1,.34-2.68c.9-1.71-1.69-3.23-2.59-1.52Z"/><path class="cls-1" d="M86.25,436.82a9.08,9.08,0,0,0,3.92-.79,3.91,3.91,0,0,0,2.13-3.82,9.24,9.24,0,0,0-2.19-4.45L87,423.43a1.55,1.55,0,0,0-2.06-.53,1.51,1.51,0,0,0-.53,2.05l2.58,3.53a16.28,16.28,0,0,1,2.23,3.35,1.42,1.42,0,0,1,.09,1.07c0-.08-.12.2-.13.21.12-.18,0,0-.06.05s-.28.21-.06.07l-.3.17s-.33.15-.09.05a3.4,3.4,0,0,1-.34.12,6.2,6.2,0,0,1-.72.16c-.16,0,.15,0-.12,0l-.38,0-.81,0a1.5,1.5,0,1,0,0,3Z"/><path class="cls-1" d="M51.44,313.09c7,13.4,14.08,26.86,19,41.19A127,127,0,0,1,75.9,375.9c1,6.59,1.72,13.23,3.07,19.77,1.5,7.25,3.93,14.4,8.44,20.36,1.15,1.52,3.76,0,2.59-1.52-8.2-10.81-9-24.87-11-37.8C76.82,362,71.85,348,65.58,334.52,62,326.76,58,319.16,54,311.58c-.9-1.71-3.49-.2-2.59,1.51Z"/><path class="cls-1" d="M226.79,395.26a101.84,101.84,0,0,1,49.85,28.52c12.57,13.08,22.45,29.26,38.18,39,4.82,3,10.16,4.87,15.13,7.56,2,1.1,5.16,2.44,4.73,5.22s-2.35,5.17-3.55,7.55c-.88,1.72,1.71,3.24,2.59,1.51,1.94-3.82,6.09-9.11,2.73-13.3-1.53-1.91-4-3.1-6.17-4.19-2.4-1.23-4.87-2.29-7.3-3.42-8.83-4.12-16.12-10.17-22.7-17.28S288,431.75,281.57,424.66a108.45,108.45,0,0,0-22.71-19.21,104,104,0,0,0-31.27-13.08c-1.88-.45-2.68,2.44-.8,2.89Z"/><path class="cls-1" d="M171,282.5c7.42,5.15,10.64,14.13,12.8,22.51,1.27,4.92,2.28,9.91,3.84,14.75s3.57,9.34,5.29,14c6.93,18.81,10.28,38.65,15.78,57.88,1.07,3.76,2.16,7.71,4.43,10.95a13.42,13.42,0,0,0,4,3.89,18.08,18.08,0,0,0,6.55,2,47.91,47.91,0,0,1,13.68,5c4,2,7.87,4.16,11.68,6.45A105.63,105.63,0,0,1,269.94,436c3.39,3.43,6.4,7.19,9.46,10.9a141.58,141.58,0,0,0,10,10.94c6.9,6.82,14.49,12.8,21.74,19.23a17,17,0,0,1,4,4.74c1,2,1,4.32.94,6.55a21.41,21.41,0,0,0,.57,7,48,48,0,0,0,3,6.29c.93,1.94,1.75,4.4.82,6.49-.77,1.75,1.81,3.28,2.59,1.51,2-4.6-.52-8.76-2.54-12.83a14.59,14.59,0,0,1-1.43-7.12,25.42,25.42,0,0,0-.39-7c-1.13-4.28-4.7-7.16-7.95-9.88-3.82-3.2-7.62-6.41-11.34-9.72s-7.34-6.71-10.78-10.3-6.73-7.59-10-11.51a102.17,102.17,0,0,0-20.17-18.79c-3.65-2.56-7.44-4.91-11.32-7.11A127.64,127.64,0,0,0,234.81,409a55.82,55.82,0,0,0-6.72-2.48c-2.44-.71-5-.9-7.41-1.64-3.9-1.21-6-4.88-7.36-8.5a136.52,136.52,0,0,1-3.94-13.65c-1.27-4.94-2.46-9.91-3.66-14.87-2.4-9.9-4.82-19.82-8-29.5-1.61-4.83-3.52-9.53-5.35-14.29a116,116,0,0,1-4.4-14.73c-2.15-8.92-4.46-18.2-10.71-25.25a25.8,25.8,0,0,0-4.71-4.14c-1.59-1.11-3.09,1.49-1.52,2.59Z"/><path class="cls-1" d="M319.67,509.65a7,7,0,0,1-.28.81l.15-.36a5.71,5.71,0,0,1-.74,1.26l.24-.3a6.49,6.49,0,0,1-1.08,1.08l.31-.23a6.24,6.24,0,0,1-1.32.77l.36-.15a5.5,5.5,0,0,1-.81.27,1.52,1.52,0,0,0-1.05,1.84,1.53,1.53,0,0,0,1.85,1.05,7.43,7.43,0,0,0,5.26-5.24,1.5,1.5,0,1,0-2.89-.8Z"/><path class="cls-1" d="M314.28,515.5c.71,3.12,4.05,4.89,7.1,4.42,3.65-.56,6.29-3.75,7.69-7,1.68-3.87,1.48-7.91,1.12-12a33.79,33.79,0,0,1-.16-6.36,17.94,17.94,0,0,1,1.52-5.37c1.74-4,4.19-7.56,5.65-11.65.64-1.82-2.25-2.6-2.9-.8-1.43,4-3.91,7.57-5.58,11.49-1.77,4.16-1.92,8.24-1.53,12.69s.65,9-2,12.9a6.76,6.76,0,0,1-4.32,3.14,3.27,3.27,0,0,1-3.69-2.29c-.42-1.88-3.32-1.09-2.89.8Z"/><path class="cls-1" d="M92.45,117.18l5-5.08c.32-.33.77-1,1.2-1.19s1.05.07,1.56.23l3.46,1.09c.54.17,1.1.3,1.62.51a1.59,1.59,0,0,1,.5.22c0-.61-.17-.71-.45-.31-.43.11-1.12,1-1.47,1.26l-1.28,1.1-5.7,4.86a1.52,1.52,0,0,0,.67,2.51c4.67,1.71,9.84.24,13.68-2.7a26.33,26.33,0,0,0,5-5.21c1.51-2,2.7-4.23,4.19-6.25,3.11-4.22,8.59-6.07,13.11-8.37q7.71-3.94,15.31-8.09,8.55-4.68,16.94-9.63a1.5,1.5,0,0,0-1.51-2.59Q149.87,88,135,95.72c-2.49,1.29-5,2.56-7.51,3.82a37.12,37.12,0,0,0-6.25,3.57c-3.91,3-5.7,7.81-8.92,11.44-3.49,3.93-8.69,6.87-14,4.94L99,122l7.72-6.59c1-.87,2.21-1.85,1.84-3.36a3.36,3.36,0,0,0-2.48-2.19c-1.52-.54-3.08-1-4.62-1.46s-2.8-.93-4.17-.15a16.94,16.94,0,0,0-3.3,3.09l-3.66,3.73c-1.35,1.38.77,3.5,2.13,2.12Z"/><path class="cls-1" d="M91.15,115.11c-1.89-1.23-2-3.93-1.25-5.85,1-2.62,3.44-4.57,5.49-6.4s4.47-3.85,7.35-4,5.92,1.28,8.93.32a13.74,13.74,0,0,0,3.66-2l4.42-3.1c2.82-2,5.64-3.94,8.46-5.91l17-11.78q9.5-6.57,19-13.21c1.57-1.1.07-3.7-1.51-2.59C150.6,69,138.42,77.39,126.3,85.81Q121.65,89,117,92.28c-2.63,1.84-5.28,4.47-8.7,4.17-1.58-.13-3.13-.57-4.73-.64a10.53,10.53,0,0,0-4.69,1c-2.72,1.21-5,3.32-7.14,5.32-2.32,2.16-4.65,4.71-5.17,8a7.46,7.46,0,0,0,3,7.64c1.62,1,3.13-1.54,1.51-2.59Z"/><path class="cls-1" d="M164.88,81.33l26.17,5.1c8.43,1.64,16.91,3.37,25.54,3.41a1.5,1.5,0,0,0,0-3c-8.53,0-16.89-1.78-25.23-3.4l-25.68-5c-1.89-.37-2.7,2.52-.8,2.89Z"/><path class="cls-1" d="M260.9,88.17,253.14,86l-3.77-1.07-.23-.07c-.13,0-.15,0-.06,0-.05.23.68.49.52.79,0,0,.05-.58,0-.27a10,10,0,0,1,.28-1.11,1.5,1.5,0,0,0-2.89-.8c-.29,1-.66,2.26-.12,3.25a2.61,2.61,0,0,0,1.83,1.11l2.28.66,9.13,2.61a1.51,1.51,0,0,0,.8-2.9Z"/><path class="cls-1" d="M249.49,85.29C251.59,80,247.26,75,242.66,73a49.07,49.07,0,0,0-8.51-2.38l-9.9-2.26L204,63.73c-6.41-1.46-12.82-3-19.34-3.89-7.32-1-14.73-1.17-22,.51-1.88.44-1.09,3.33.79,2.89,12.1-2.8,24.5-.08,36.35,2.62,12.24,2.79,24.51,5.51,36.73,8.39,2.8.66,5.87,1.42,8.05,3.41,1.9,1.74,3,4.34,2,6.83-.72,1.79,2.18,2.57,2.89.8Z"/><path class="cls-1" d="M239.66,91.35A34.2,34.2,0,0,1,238.55,105c-.55,1.85,2.35,2.65,2.89.8a36.38,36.38,0,0,0,1.22-14.41,1.54,1.54,0,0,0-1.5-1.5,1.5,1.5,0,0,0-1.5,1.5Z"/><path class="cls-1" d="M240.94,111.76c1.1,1.89,3.22,2.4,5.21,2.87,2.34.56,4.71,1,7.09,1.42,4.91.85,9.85,1.53,14.78,2.23a1.55,1.55,0,0,0,1.85-1,1.51,1.51,0,0,0-1.05-1.85c-4.52-.64-9-1.27-13.55-2-2.18-.37-4.37-.77-6.53-1.23-.94-.2-1.88-.41-2.81-.65s-1.92-.42-2.4-1.24a1.5,1.5,0,0,0-2.59,1.51Z"/><path class="cls-1" d="M242.85,108.18A250.62,250.62,0,0,1,284.33,82.6c1.74-.85.22-3.43-1.51-2.59a250.71,250.71,0,0,0-41.49,25.58c-1.52,1.16,0,3.76,1.52,2.59Z"/><path class="cls-1" d="M282.42,82.34a24.25,24.25,0,0,1,6.84.79,9.15,9.15,0,0,1,2.08.84,8.39,8.39,0,0,1,.83.54c.23.16-.09-.09.11.09l.37.34a4.11,4.11,0,0,1,.29.3c.09.09.28.33.1.09a6.2,6.2,0,0,1,.44.69c.06.11.11.22.17.32.14.27,0,.06,0,.07.08.23.16.46.23.7s.09.42.14.64,0,.18,0,0l0,.36a11.73,11.73,0,0,1,0,1.19c-.05,2.91-1.42,5.51-2.87,7.95a1.5,1.5,0,0,0,2.59,1.52c2.15-3.64,4-7.8,3-12.1-.66-3-3.05-5-5.86-6.07a24.79,24.79,0,0,0-8.6-1.22,1.5,1.5,0,0,0,0,3Z"/><path class="cls-1" d="M295.5,82a11.48,11.48,0,0,1,6.09,12.33,1.5,1.5,0,1,0,2.89.79A14.47,14.47,0,0,0,297,79.38a1.53,1.53,0,0,0-2.05.54,1.51,1.51,0,0,0,.54,2Z"/><path class="cls-1" d="M283.11,81.85a50.17,50.17,0,0,1,26.57-13.26c1.9-.31,1.09-3.2-.8-2.89a53,53,0,0,0-27.89,14c-1.39,1.34.73,3.46,2.12,2.12Z"/><path class="cls-1" d="M308,69a6.57,6.57,0,0,0,2.31,7.46,9.41,9.41,0,0,0,3.88,1.44c.66.13,1.32.24,2,.41a8,8,0,0,1,.95.3l0,0,.26.12.49.28a1.5,1.5,0,0,0,2.05-.54,1.53,1.53,0,0,0-.54-2,10.7,10.7,0,0,0-3.7-1.27c-.62-.12-1.23-.23-1.83-.38-.28-.07-.55-.15-.82-.24-.06,0-.4-.17-.16-.06-.15-.07-.3-.14-.44-.22L312,74l-.15-.1c.14.1.14.1,0,0s-.35-.35-.52-.54c.22.25,0,0-.06-.09s-.16-.24-.23-.37l-.2-.39c.11.24,0,0,0-.11s-.13-.48-.19-.72,0,.24,0-.16a3.09,3.09,0,0,1,0-.43c0-.13,0-.25,0-.38,0-.39-.07.3,0-.09a5.67,5.67,0,0,1,.24-.83A1.5,1.5,0,0,0,309.84,68,1.53,1.53,0,0,0,308,69Z"/><path class="cls-1" d="M310.11,69.74c.29.06.57.14.85.22s0,0,.11,0l.39.2a7.74,7.74,0,0,1,.68.42c.25.17-.08-.09.17.13l.28.24a11.72,11.72,0,0,1,1.19,1.25l.16.2c-.09-.11.13.18.15.21.17.23.33.46.49.7,1.2,1.87,2.06,4.06,3.78,5.55a1.54,1.54,0,0,0,2.12,0,1.51,1.51,0,0,0,0-2.12,6.45,6.45,0,0,1-.59-.58l-.27-.32c-.29-.35.15.23-.12-.15s-.62-.94-.9-1.43c-.57-1-1.09-2-1.74-2.92-1.45-2.06-3.38-4-5.95-4.53a1.54,1.54,0,0,0-1.85,1.05,1.51,1.51,0,0,0,1.05,1.84Z"/><path class="cls-1" d="M316,85.44a11.59,11.59,0,0,0,.92,9.3,11.74,11.74,0,0,0,6.63,5.37c1.84.57,2.63-2.32.79-2.89a8.47,8.47,0,0,1-2.68-1.44,9.06,9.06,0,0,1-2.15-2.56,8.53,8.53,0,0,1-.62-7,1.5,1.5,0,1,0-2.89-.8Z"/><path class="cls-1" d="M317,86.9a14.2,14.2,0,0,1,4.65,11.76,1.51,1.51,0,0,0,1.5,1.5,1.53,1.53,0,0,0,1.5-1.5,17,17,0,0,0-5.53-13.88,1.54,1.54,0,0,0-2.12,0,1.52,1.52,0,0,0,0,2.12Z"/><path class="cls-1" d="M322.16,92.32a2.12,2.12,0,0,0-2.11.61,2.44,2.44,0,0,0-.7,1.78,2.3,2.3,0,0,0,.32,1.1,2.71,2.71,0,0,0,.81.84,2.89,2.89,0,0,0,1.59.46,2.26,2.26,0,0,0,1.12-.27,2,2,0,0,0,.85-1.12,2.19,2.19,0,0,0-.24-1.78,2.12,2.12,0,0,0-1.85-1,2.41,2.41,0,0,0-2,1.18,2.47,2.47,0,0,0-.21,2.15,3.54,3.54,0,0,0,.66,1.1,3.89,3.89,0,0,0,.74.6,1.51,1.51,0,0,0,1.16.15,1.49,1.49,0,0,0,.89-.69,1.45,1.45,0,0,0,.15-1.15,1.59,1.59,0,0,0-.69-.9l-.14-.1.3.23a2.16,2.16,0,0,1-.37-.37l.24.31a1.68,1.68,0,0,1-.2-.34l.15.36a1.78,1.78,0,0,1-.09-.33l.06.4a2,2,0,0,1,0-.25l-.05.4a1.34,1.34,0,0,1,.07-.27l-.15.36a1,1,0,0,1,.15-.24l-.24.3c.06-.06.11-.12.17-.17l-.3.24a.82.82,0,0,1,.2-.12l-.36.15.19,0-.4,0h.19l-.4-.06.12,0-.36-.15a.57.57,0,0,1,.13.08l-.3-.24.12.13-.23-.3.09.15-.15-.36.06.2-.06-.39a.67.67,0,0,1,0,.2l.06-.4a.74.74,0,0,1,0,.14l.15-.36a.41.41,0,0,1-.05.09l.23-.3a.3.3,0,0,1-.08.08l.31-.23-.08,0,.36-.16-.11,0,.4-.06a1.7,1.7,0,0,1-.39,0l.4.05a1.64,1.64,0,0,1-.38-.1l.36.15A1.22,1.22,0,0,1,322,94l.3.24a1.07,1.07,0,0,1-.18-.19l.23.31a2,2,0,0,1-.11-.2l.15.36a.73.73,0,0,1-.06-.21l.05.4a.74.74,0,0,1,0-.21l-.05.4a1,1,0,0,1,.06-.25l-.15.36a1.59,1.59,0,0,1,.13-.22l-.24.31a1.45,1.45,0,0,1,.17-.18l-.3.24a.64.64,0,0,1,.18-.1l-.36.15a.47.47,0,0,1,.16,0l-.4,0h.14l-.4,0h.07a1.61,1.61,0,0,0,1.16-.15,1.56,1.56,0,0,0,.69-.9,1.54,1.54,0,0,0-.16-1.15,1.43,1.43,0,0,0-.89-.69Z"/><path class="cls-1" d="M304.6,79.88a8.77,8.77,0,0,1,4.62-.32,2.72,2.72,0,0,1,1.49,1,12.94,12.94,0,0,1,.89,1.07s.07.12.11.17,0,0,0,0l0,0a.36.36,0,0,1,0-.29.71.71,0,0,1,.46-.48.79.79,0,0,0-.52.93c0,.14,0-.08,0,0s0,.1,0,.15,0,.25,0,.38c0,.33,0,.66-.07,1A20.57,20.57,0,0,1,310.61,88a3.49,3.49,0,0,1-.72,1.28c-.73.63.34,1.69,1.06,1.06a4.37,4.37,0,0,0,1-1.68,16.2,16.2,0,0,0,.74-2.46,11.55,11.55,0,0,0,.45-4.59l-.53.92c.83-.27.62-1.17.24-1.72s-.78-1-1.17-1.42a3.45,3.45,0,0,0-1-.87,6,6,0,0,0-3.22-.63,13.43,13.43,0,0,0-3.27.51.75.75,0,0,0,.39,1.45Z"/><path class="cls-1" d="M312.53,74a3.15,3.15,0,0,0,0,1.85,2.14,2.14,0,0,0,1,1.18,2.1,2.1,0,0,0,1.57.17,2.56,2.56,0,0,0,1.65-1.84,3.7,3.7,0,0,0,.06-1.1,4.38,4.38,0,0,1,0-.81l-.06.4a2,2,0,0,1,.09-.33l-.39.66.11-.1-.31.24.08-.05-.36.15.12,0-.4,0h.12l-.4-.06.11,0-.35-.15a.59.59,0,0,1,.17.1l-.3-.24a1.36,1.36,0,0,1,.24.24l-.24-.3a1.8,1.8,0,0,1,.21.35l-.15-.35a2,2,0,0,1,.1.35l0-.4c0,.22,0,.46,0,.68a6.32,6.32,0,0,0,.09,1.06,2.32,2.32,0,0,0,1.65,1.84,1.49,1.49,0,0,0,1.15-.15,1.53,1.53,0,0,0,.69-.89,1.51,1.51,0,0,0-.15-1.16,1.56,1.56,0,0,0-.9-.69l-.1,0,.36.15a.75.75,0,0,1-.15-.09l.3.24a1,1,0,0,1-.14-.15l.24.31a.81.81,0,0,1-.1-.18l.15.36a2.2,2.2,0,0,1-.12-.44l.06.4a4.86,4.86,0,0,1,0-.66,4.79,4.79,0,0,0,0-1,2.9,2.9,0,0,0-1.25-1.85,2,2,0,0,0-1.15-.34,1.9,1.9,0,0,0-.93.27,1.93,1.93,0,0,0-.81,1,2.91,2.91,0,0,0-.15,1.24,4.62,4.62,0,0,1,0,.91l.06-.4a1.58,1.58,0,0,1-.09.31l.15-.36a1.56,1.56,0,0,1-.16.28l.23-.31a.81.81,0,0,1-.18.19l.31-.23-.18.1.36-.15-.15,0,.4,0h-.12l.4.06-.12,0,.36.15-.14-.08.3.24a.52.52,0,0,1-.1-.11l.23.31a.54.54,0,0,1-.07-.13l.15.36a.84.84,0,0,1-.07-.26l0,.4a1.85,1.85,0,0,1,0-.47l-.05.4c0-.11,0-.22.06-.33a1.5,1.5,0,0,0-1-1.84,1.51,1.51,0,0,0-1.16.15,1.56,1.56,0,0,0-.69.9Z"/><path class="cls-1" d="M321.65,119.6l-.07-.07c-.08-.09,0,0,.13.17,0,0-.07-.11-.1-.17l.15.36a1.22,1.22,0,0,1-.06-.26l.05.4a1.22,1.22,0,0,1,0-.27l-.06.4a2.5,2.5,0,0,1,.07-.26l-.15.36.06-.12h-2.59c1.07,1.46,2.33,3,4.28,3.07a3.72,3.72,0,0,0,2.51-.89,2.78,2.78,0,0,0,1-2.34,1.56,1.56,0,0,0-.44-1.06,1.5,1.5,0,0,0-1.06-.44,1.56,1.56,0,0,0-1.06.44,1.46,1.46,0,0,0-.44,1.06,1.09,1.09,0,0,1,0,.36l.06-.4a2.29,2.29,0,0,1-.08.28l.15-.36a2,2,0,0,1-.14.25c-.11.2.26-.27.09-.12l-.11.11c-.09.09-.21.1.14-.1a1.48,1.48,0,0,1-.13.08l-.3.16.35-.15a2.48,2.48,0,0,1-.55.15l.4,0a2.72,2.72,0,0,1-.57,0l.4,0a2,2,0,0,1-.53-.15l.36.15a3.36,3.36,0,0,1-.67-.37c-.18-.12.13.09.12.1a1.54,1.54,0,0,1-.14-.13,3.45,3.45,0,0,1-.28-.26,6.8,6.8,0,0,1-.5-.57l-.12-.15c-.11-.14.24.32.07.08l-.24-.31a1.55,1.55,0,0,0-1.29-.74,1.5,1.5,0,0,0-1.3.74,2.53,2.53,0,0,0,.45,3.09,1.5,1.5,0,0,0,2.12-2.12Z"/><path class="cls-1" d="M313.91,121.12c2.2,3.59,5.84,6.88,10.36,6.07a6.9,6.9,0,0,0,4.64-3,6.66,6.66,0,0,0,.85-3.18c0-.32,0-2,.48-2.06a1.5,1.5,0,0,0,0-3,3.39,3.39,0,0,0-2.74,1.66,6.24,6.24,0,0,0-.73,3.12,3.29,3.29,0,0,1-2.18,3.29c-3.41,1.36-6.42-1.66-8.09-4.4-1-1.64-3.6-.13-2.59,1.52Z"/><path class="cls-1" d="M289.18,104.36a34.57,34.57,0,0,0,10.11,14.92,46.53,46.53,0,0,0,7.37,5.33,12.16,12.16,0,0,0,4.75,1.92,12.88,12.88,0,0,0,5.44-1c1.82-.61,1-3.51-.8-2.89-1.56.53-3.26,1.17-4.92.77a14.94,14.94,0,0,1-3.95-2,42.21,42.21,0,0,1-6.35-4.78,31.27,31.27,0,0,1-8.76-13.08c-.6-1.82-3.5-1-2.89.8Z"/><path class="cls-1" d="M268.09,118.46a19.43,19.43,0,0,1,10.34,4.94c3.22,3,5,7.06,7,10.92A170.77,170.77,0,0,0,299.17,157c2.92,4.07,6,8,9.19,11.89,1.23,1.49,3.34-.65,2.12-2.12a192.54,192.54,0,0,1-15.93-22.15q-3.57-5.88-6.67-12c-2-3.93-3.85-8-7-11.06a22.19,22.19,0,0,0-12-6c-1.88-.3-2.7,2.59-.79,2.89Z"/><path class="cls-1" d="M260.36,146.9c3.83,3.85,7.35,8,10.92,12.09q5.13,5.85,10.27,11.68,10.67,12.11,21.36,24.19,5.74,6.51,11.45,13c1.27,1.45,3.39-.68,2.12-2.12-13.87-15.89-27.92-31.61-41.81-47.47-4-4.56-7.91-9.23-12.19-13.53-1.36-1.38-3.48.75-2.12,2.12Z"/><path class="cls-1" d="M287.59,125c.34,0,.69,0,1,0l.52,0c.36,0-.21,0,.12,0a14.85,14.85,0,0,1,2,.47c.31.1.62.21.92.34-.32-.13.19.08.24.11l.41.2a12.56,12.56,0,0,1,1.71,1.07,1.51,1.51,0,0,0,2.06-.53,1.56,1.56,0,0,0-.54-2.06,14.07,14.07,0,0,0-8.45-2.68,1.5,1.5,0,0,0,0,3Z"/><path class="cls-1" d="M299.07,132.9a32.7,32.7,0,0,1,5.38,14.76,57.61,57.61,0,0,1-.53,13.18,1.5,1.5,0,0,0,3,0,55.42,55.42,0,0,0,.43-14,35.71,35.71,0,0,0-5.69-15.42c-1.06-1.6-3.66-.1-2.59,1.51Z"/><path class="cls-1" d="M314.61,130.14c3.67,13.43-3.21,26.66-6.62,39.37-1.73,6.47-2.74,13.24-1.53,19.9a39.53,39.53,0,0,0,7.17,15.75,79.62,79.62,0,0,0,6.35,7.62c2.27,2.43,4.68,4.91,5.64,8.2.54,1.85,3.44,1.06,2.89-.8-1.65-5.7-6.76-9.59-10.38-14a41.21,41.21,0,0,1-8.34-15.52c-3.4-13.39,3.56-26.51,6.87-39.16,1.89-7.22,2.84-14.81.85-22.12a1.51,1.51,0,0,0-2.9.8Z"/><path class="cls-1" d="M313.7,68.16a59.71,59.71,0,0,1,5.74,4,7.35,7.35,0,0,1,1.88,2.33,3.64,3.64,0,0,1,.33,2.41,1.5,1.5,0,0,0,2.9.8A7.82,7.82,0,0,0,322,70.4,24,24,0,0,0,318.8,68l-3.59-2.41a1.51,1.51,0,0,0-2,.54,1.53,1.53,0,0,0,.54,2Z"/><path class="cls-1" d="M324.1,88.54c1.61,1.62,3.39,3.38,3.68,5.76a28,28,0,0,1,0,4c0,1.47-.1,2.94-.18,4.4-.11,1.93,2.89,1.93,3,0,.08-1.56.15-3.13.18-4.69a23.7,23.7,0,0,0-.17-4.69c-.48-2.8-2.49-5-4.42-6.9-1.36-1.37-3.48.75-2.12,2.13Z"/><path class="cls-1" d="M325.83,87.43c.39.37.76.76,1.11,1.16.18.2.35.41.52.61l.11.14c.17.21-.15-.2,0,0l.24.32a18.31,18.31,0,0,1,1.65,2.76,1.51,1.51,0,0,0,2.05.54,1.55,1.55,0,0,0,.54-2.06A19.42,19.42,0,0,0,328,85.31a1.5,1.5,0,0,0-2.12,2.12Z"/><path class="cls-1" d="M312.29,67c2.18-3.81,6.88-5,11-4.79a26.79,26.79,0,0,1,13.12,4.6,48.24,48.24,0,0,1,10.66,9.81c3.26,4,6.43,8.36,8.13,13.23,1.93,5.51,1.31,11.34,1.72,17.06s1.57,11.42,2.54,17.1a68.54,68.54,0,0,1,1.21,17.21c-.47,5.62-2,11.1-3.37,16.55A100.59,100.59,0,0,0,354,176a13,13,0,0,1-3.32,7.65,29.46,29.46,0,0,0-4.53,6.4c-.8,1.74,1.78,3.27,2.59,1.51,2.1-4.58,6.84-7.6,7.91-12.72.59-2.87.49-5.86,1-8.76s1.17-6,1.92-8.91c1.44-5.74,3.08-11.43,3.86-17.31a63.2,63.2,0,0,0-.6-18.16c-.95-6.13-2.33-12.19-2.82-18.38-.47-6,.21-12.13-1.72-17.92-1.72-5.2-4.91-9.8-8.3-14a52.68,52.68,0,0,0-11.2-10.66,30,30,0,0,0-15.62-5.55c-5.12-.2-10.74,1.6-13.41,6.27A1.5,1.5,0,0,0,312.29,67Z"/><path class="cls-1" d="M345.71,190.74c.48,3.27,2.76,5.94,4.11,8.88a30.18,30.18,0,0,1,2.6,9.86c.62,6.85-.9,13.62-3.44,20-.72,1.79,2.18,2.57,2.89.8,2.63-6.55,4.19-13.68,3.55-20.76a34.17,34.17,0,0,0-2.41-10,39.69,39.69,0,0,0-2.36-4.7,13.46,13.46,0,0,1-2-4.84c-.28-1.9-3.17-1.09-2.89.8Z"/><path class="cls-1" d="M350.32,202.27a31.24,31.24,0,0,0-4.45,12.89c-.52,4.4-.28,9.58,1.72,13.61,1.05,2.14,3,3.44,4.45,5.24a13.9,13.9,0,0,1,2.57,6,75.76,75.76,0,0,1,1.31,15.26,100.28,100.28,0,0,1-1.57,18.06c-.34,1.88,2.55,2.69,2.89.79a102.69,102.69,0,0,0,.85-31.3c-.57-4.36-1.57-8.64-4.75-11.86-1.73-1.76-3.16-3.16-3.83-5.62a25.74,25.74,0,0,1-.85-6.88,28.24,28.24,0,0,1,4.25-14.71c1-1.65-1.57-3.16-2.59-1.52Z"/><path class="cls-1" d="M348.92,229.84a50.41,50.41,0,0,0,2.66,10.31,33.49,33.49,0,0,1,1.54,13.41c-.39,4.47-1.79,8.75-1.83,13.27a25.6,25.6,0,0,0,2.84,11.76c.86,1.73,3.45.21,2.59-1.51a22.54,22.54,0,0,1-2.39-11.49c.22-4.37,1.59-8.57,1.86-12.93a36,36,0,0,0-1.57-12.88c-1-3.27-2.33-6.5-2.7-9.94-.2-1.9-3.2-1.92-3,0Z"/><path class="cls-1" d="M355,268.44c-1.18,3.13-1.1,6.77-1.21,10.07-.13,3.8-1.72,6.92-3.85,10a35.89,35.89,0,0,1-15.45,12.55,1.55,1.55,0,0,0-1.05,1.85,1.5,1.5,0,0,0,1.84,1,39.53,39.53,0,0,0,16.8-13.29c2.17-3,4.19-6.45,4.59-10.21s-.12-7.66,1.22-11.22c.68-1.82-2.22-2.6-2.89-.8Z"/><path class="cls-1" d="M320.57,70.67c8.33-3.52,17.36,2,21.41,9.32a36,36,0,0,1,3.92,14.13,75.18,75.18,0,0,1-.26,16.22c-.73,5.63-2.64,10.94-4.48,16.28s-3.51,10.89-5.05,16.4c-3.1,11.07-6.26,22.17-8.91,33.35a102.08,102.08,0,0,0-1.93,38.42c.28,1.9,3.17,1.09,2.89-.8a97.06,97.06,0,0,1,1.67-35.66c1.32-5.78,2.93-11.49,4.47-17.21s3.05-11.39,4.64-17.07,3.32-11.45,5.27-17.08c1.89-5.46,3.71-10.87,4.43-16.63a75.27,75.27,0,0,0,.22-16.64,39.87,39.87,0,0,0-4-14.68c-4.53-8.66-15.33-15.36-25.09-11.24a1.55,1.55,0,0,0-1,1.84,1.51,1.51,0,0,0,1.85,1Z"/><path class="cls-1" d="M344.4,85.93c7,15.74,7.08,33.72,2.89,50.2A122.66,122.66,0,0,1,338,160.57c-3.76,7.57-8.92,14.83-10.55,23.26-1,5-1.23,10.24-1.73,15.33l-1.6,16.11c-.2,1.92,2.81,1.9,3,0l1.42-14.37c.47-4.73.81-9.5,1.46-14.2,1.22-8.77,6.28-16.06,10.19-23.8,7.87-15.58,13.26-32.75,12.88-50.35A73.18,73.18,0,0,0,347,84.42c-.79-1.76-3.37-.24-2.6,1.51Z"/><path class="cls-1" d="M339,161.24c2.85,18.57-2,37-3.65,55.46a116,116,0,0,0-.41,16.14c.1,1.92,3.1,1.93,3,0-1-19,4.36-37.53,4.9-56.46a88.55,88.55,0,0,0-.95-15.94c-.29-1.9-3.18-1.1-2.89.8Z"/><path class="cls-1" d="M345,143.44c-4.38,18.94-1.78,38.66-5.3,57.72a61.3,61.3,0,0,1-4.55,14.92c-.81,1.74,1.77,3.26,2.59,1.51,8.31-17.8,6.51-38.34,7.91-57.42a105.32,105.32,0,0,1,2.24-15.93c.43-1.88-2.46-2.69-2.89-.8Z"/><path class="cls-1" d="M329.54,121l-4.85,27.22A83.82,83.82,0,0,0,323,159.58a51.27,51.27,0,0,0,.69,10.5,32.64,32.64,0,0,0,3.4,10.51c.93,1.69,3.52.18,2.59-1.51-3.08-5.56-3.86-12.52-3.7-18.78a69.49,69.49,0,0,1,1.43-10.55l2.32-13,2.67-15c.33-1.88-2.56-2.69-2.9-.79Z"/><path class="cls-1" d="M324.42,218.19a74.7,74.7,0,0,1,3.94,11.35,49,49,0,0,1,1.91,12.14c0,7.56-4,14.87-7.19,21.5s-6.65,13.19-8.94,20.2a47.13,47.13,0,0,0-1.92,22.17c1.38,8.9,5,17.24,8.59,25.44.77,1.77,3.36.24,2.59-1.51-3.19-7.35-6.39-14.8-7.94-22.7a44.26,44.26,0,0,1,1.45-22.2c2.25-7.06,5.72-13.63,8.95-20.27s7-13.88,7.38-21.43a47,47,0,0,0-1.82-13.47A80.52,80.52,0,0,0,327,216.68c-.77-1.76-3.36-.24-2.59,1.51Z"/><path class="cls-1" d="M336.39,224.56c5.4,9,9.27,19.14,10,29.67a46.91,46.91,0,0,1-1.35,15.43,69,69,0,0,1-6.27,14.67c-2.86,5.33-5.88,10.58-8.12,16.22-.71,1.79,2.19,2.57,2.9.8,4.06-10.26,11-19.21,14.1-29.87,3-10.38,2.16-21.56-1.09-31.78A78.79,78.79,0,0,0,339,223a1.5,1.5,0,0,0-2.59,1.52Z"/><path class="cls-1" d="M332.9,275.24c-5.42,6.15-8,14.17-8.44,22.27-.54,9.48,1.81,18.87,4.33,27.93a1.5,1.5,0,0,0,2.89-.8c-4.22-15.19-8.23-34.15,3.34-47.28,1.27-1.45-.84-3.58-2.12-2.12Z"/><path class="cls-1" d="M331.74,304.14c-.3,7.48-.53,15.09,1.17,22.43a34.44,34.44,0,0,0,4.08,10.2,65.57,65.57,0,0,0,7.26,9.25c1.29,1.44,3.41-.69,2.12-2.12a59.42,59.42,0,0,1-6.9-8.83,32.11,32.11,0,0,1-3.76-9.71c-1.53-6.95-1.25-14.16-1-21.22.07-1.93-2.93-1.93-3,0Z"/><path class="cls-1" d="M312.13,303.08a23.51,23.51,0,0,0-3,5.69,22.14,22.14,0,0,0-1.64,6.59,28.44,28.44,0,0,0,1,7.44,47.86,47.86,0,0,0,2.44,7.76,50.4,50.4,0,0,0,8.7,14.12c3.57,4.09,7.94,7.95,13.07,9.9,5.51,2.09,12.16,1.09,15.78-3.85,1.15-1.55-1.46-3.05-2.59-1.51-2.82,3.85-8.29,4-12.39,2.46-4.62-1.76-8.54-5.45-11.75-9.12-6.23-7.12-10.69-16.72-11.25-26.24a15.7,15.7,0,0,1,1.28-6.1,21.47,21.47,0,0,1,2.9-5.63c1.17-1.53-1.44-3-2.59-1.51Z"/><path class="cls-1" d="M297.92,189.84c-.45,6.42-1.53,12.82-1.4,19.28a29.4,29.4,0,0,0,1.93,9.66q2.35,6.51,4.73,13c1.22,3.35,2.63,7.84,6.68,8.57,1.89.34,2.7-2.55.8-2.89-3.11-.57-4-4.91-4.92-7.39-1.46-4-2.94-8.07-4.4-12.11a27,27,0,0,1-1.82-9,86.82,86.82,0,0,1,.48-9.54c.3-3.19.7-6.38.92-9.57.14-1.93-2.86-1.92-3,0Z"/><path class="cls-1" d="M306.92,199.84c1.24,13.1-3.84,26.87.88,39.61.66,1.8,3.56,1,2.89-.79-2.27-6.13-2-12.74-1.55-19.14s1.4-13.12.78-19.68c-.18-1.91-3.18-1.93-3,0Z"/><path class="cls-1" d="M314,208.12c1.73,9.5,3.53,19.5.89,29-1.28,4.6-3.29,8.93-4.24,13.63a47.59,47.59,0,0,0-.76,13.47,48.34,48.34,0,0,0,3.7,14.72,1.5,1.5,0,0,0,2,.53,1.53,1.53,0,0,0,.54-2.05,44.38,44.38,0,0,1-2.54-26.3c1-4.69,3.05-9,4.26-13.66a45.06,45.06,0,0,0,1.23-13.84,126.62,126.62,0,0,0-2.24-16.31c-.34-1.89-3.23-1.09-2.89.8Z"/><path class="cls-1" d="M310.13,270.08a65.31,65.31,0,0,0-3.84,9c-1.17,3.6-1.1,7.4-1,11.14.2,8.28,2.39,16.35,2.64,24.63.06,1.92,3.06,1.93,3,0-.24-8-2.37-15.75-2.62-23.71-.11-3.64-.32-7.42.78-10.93a57.56,57.56,0,0,1,3.64-8.61c.86-1.72-1.73-3.24-2.59-1.51Z"/><path class="cls-1" d="M349.38,191.46c5.77-6,12.73-10.81,19.23-15.92l20.59-16.2c1.52-1.19-.62-3.3-2.12-2.12l-20.59,16.2c-6.5,5.11-13.46,10-19.24,15.91-1.34,1.39.78,3.51,2.13,2.13Z"/><path class="cls-1" d="M356.13,208.25a393.77,393.77,0,0,1,31.53-35.18q4.77-4.73,9.71-9.28c1.42-1.31-.7-3.43-2.12-2.12a392.81,392.81,0,0,0-32.71,34.08q-4.35,5.12-8.53,10.38c-1.19,1.5.92,3.63,2.12,2.12Z"/><path class="cls-1" d="M394,152.9c1-.44,1.87-.9,2.81-1.24a6.2,6.2,0,0,1,2.82-.47c-.16,0-.11,0,0,0l.34.08.27.08c.09,0,.3.12.1,0a6,6,0,0,1,.56.3l.29.19c-.12-.09-.06-.05,0,0l.24.23s.24.28.07.06a3.15,3.15,0,0,1,.3.5c.1.2-.06-.21,0,0a3,3,0,0,0,.08.32c0-.13,0-.17,0,0s0,.27,0,.4a1.5,1.5,0,1,0,3,0c.21-2.55-2.1-4.64-4.46-5.1-2.84-.55-5.45.88-8,2a1.51,1.51,0,0,0-.53,2.05,1.54,1.54,0,0,0,2,.54Z"/><path class="cls-1" d="M396.05,156.2c1-.39,2-.81,2.92-1.29.44-.21.87-.44,1.3-.68l.62-.33c.37-.2-.24.06.15-.07l.33-.1c.19-.07-.29,0,.07,0s-.08,0,0,0l.1,0c.1,0,.07,0-.11-.06,0,0,.19.12.23.14s-.22-.23,0,0c0,0,.24.27.09.1s.07.1.08.12l.13.25c.08.16-.09-.33,0,0,0,.1,0,.21.08.31s0,.1,0,0v.15c0,.12,0,.24,0,.36a13.14,13.14,0,0,1-.12,1.53,1.5,1.5,0,0,0,1.5,1.5,1.55,1.55,0,0,0,1.5-1.5,6.86,6.86,0,0,0-.37-3.78,3.62,3.62,0,0,0-2.69-2.07c-1.37-.18-2.51.53-3.67,1.15-.52.28-1.05.54-1.58.79l-.74.33h0l-.21.08-.48.2a1.5,1.5,0,1,0,.8,2.89Z"/><path class="cls-1" d="M394.86,157.59a5,5,0,0,0,3,.87,7.42,7.42,0,0,0,3.06-1l.57-.28c.25-.11-.05,0,.1,0l.33-.11.27-.07c.29-.08-.19,0,0,0a1.22,1.22,0,0,0,.27,0c.26,0-.16-.07,0,0a.84.84,0,0,0,.26.07c.21.05,0,0-.06,0s.18.1.23.12c.29.16,0,0,0,0s.16.33.08.06,0,.09,0,.09-.12-.33-.06-.1c0-.23,0-.28,0-.16s0,.06,0-.15a1.5,1.5,0,0,0,2.89.8,2.92,2.92,0,0,0-1.37-3.08,4,4,0,0,0-3.07-.48,8.87,8.87,0,0,0-1.6.63l-.7.35-.32.15c.26-.12-.14,0-.16.06a4,4,0,0,1-.68.18c.32,0-.08,0-.15,0s-.48,0-.16,0a3.9,3.9,0,0,1-.67-.18c.26.08-.1-.05-.15-.08a3.37,3.37,0,0,1-.35-.22,1.51,1.51,0,0,0-2.05.54,1.53,1.53,0,0,0,.54,2.05Z"/><path class="cls-1" d="M398.13,161.37c.42-.27.85-.54,1.29-.78l.36-.18.13-.06c.11,0,.06,0-.13.06,0,0,.33-.12.38-.14l.38-.1.24,0c-.48.1-.11,0,0,0h.33c.17,0,.27.09-.07,0,.19.06.43.13.62.17-.32-.07-.22-.1-.06,0s.17.13.26.17c-.19-.15-.23-.18-.11-.08l.11.12.06.06-.09-.11a1.48,1.48,0,0,0,.16.27c.07.14.05.1-.05-.14a.88.88,0,0,0,.05.15c0,.07,0,.15.05.23.07.25,0-.41,0,0a3.62,3.62,0,0,1,0,.57c0,.16,0,.11,0-.15l0,.17c0,.11-.05.22-.08.33a5.62,5.62,0,0,1-.19.58c0,.1-.07.19-.11.29s0,.05.07-.16c0,.06-.05.11-.07.16-.1.21-.2.41-.31.61a1.5,1.5,0,1,0,2.59,1.52c.91-1.69,1.55-3.67.73-5.52s-3.18-2.51-5.07-2a10.48,10.48,0,0,0-3,1.47,1.5,1.5,0,1,0,1.51,2.59Z"/><path class="cls-1" d="M395.76,160.34l0,2.31a1.52,1.52,0,0,0,1.1,1.44,9.61,9.61,0,0,0,3.07-.17c-.21,0-.12,0,0,0l.31,0h.3c.19,0-.31-.08,0,0,0,0,.36.09.16,0s.11.06.14.08c.23.12-.11-.13,0,0s.17.19.18.19-.15-.25-.05-.05l.08.14c.05.1,0,.07,0-.11a2.74,2.74,0,0,0,.15.52c.06.25,0-.05,0-.07s0,.31,0,.33,0,.2,0,.22c0-.2,0-.24,0-.11l0,.13c-.05.22-.13.43-.2.65s.09-.17,0,.08-.11.2-.16.3c-.23.43-.49.83-.75,1.24a1.5,1.5,0,0,0,.54,2,1.53,1.53,0,0,0,2-.54,8.86,8.86,0,0,0,1.47-3.12,4.56,4.56,0,0,0-.55-3.31,3.71,3.71,0,0,0-3.16-1.64,11.87,11.87,0,0,0-1.77.21c-.12,0-.25,0-.38.06h-.42c-.08,0-.53-.05-.16,0l1.1,1.45,0-2.31a1.5,1.5,0,0,0-3,0Z"/><path class="cls-1" d="M400.28,167l-.24.25c-.18.19.13,0,0,0a2.75,2.75,0,0,0-.29.17c-.16.1-.16.08,0,0a3.89,3.89,0,0,1-.58.18l-.28.05c.37-.08,0,0-.06,0a15.67,15.67,0,0,1-2.74-.11c-2.1-.18-4.12-.15-5.84,1.21a1.5,1.5,0,0,0,2.12,2.12c-.27.22,0,0,.09,0s.18-.09.25-.14-.24.07.06,0l.28-.09.34-.08.15,0h.16l.37,0a26.09,26.09,0,0,1,2.79.16c2,.16,4.11,0,5.55-1.51a1.5,1.5,0,1,0-2.13-2.12Z"/><path class="cls-1" d="M401.76,156.67v3a1.52,1.52,0,0,0,.44,1.06,1.5,1.5,0,0,0,1.06.44,1.56,1.56,0,0,0,1.06-.44,1.54,1.54,0,0,0,.44-1.06v-3a1.56,1.56,0,0,0-.44-1.06,1.52,1.52,0,0,0-1.06-.44,1.5,1.5,0,0,0-1.06.44,1.54,1.54,0,0,0-.44,1.06Z"/><path class="cls-1" d="M403.6,141.23a5.4,5.4,0,0,0-5.57-4,6.26,6.26,0,0,0-5.55,4.52,3.51,3.51,0,0,0,.75,3.25,2.89,2.89,0,0,0,1.93.81,5.86,5.86,0,0,0,1.1-.11c.12,0,.51-.11.62,0-.18-.12-.06.21-.08.31a1.81,1.81,0,0,1-.63.59c-1.08.65-2.53.61-3.72,1l1.7.69c-.19-.26,0,.14-.11-.17.06.25,0-.18,0-.22,0,.19,0-.13,0-.18s.08-.34.11-.51a4.61,4.61,0,0,0,.13-2.18,2.51,2.51,0,0,0-1.9-1.83c-.8-.18-1.65.17-2.4-.1-.93-.35-1.88-1.58-1.47-2.58,0-.09.17-.22.18-.29s.22.13-.14-.07a4,4,0,0,1,.71.6l2.71,2.4c1.44,1.28,3.57-.84,2.12-2.12-1.05-.93-2.09-1.88-3.16-2.8a3,3,0,0,0-3.54-.74c-2.21,1.15-2.38,4.13-1.23,6.07a5.47,5.47,0,0,0,2.3,2.12,5,5,0,0,0,1.7.48c.21,0,1.58-.07,1.59-.05.06.3-.45-.38-.38-.36,0-.18,0-.17,0,0s0,.19,0,.06c0,.39-.18.78-.25,1.16a3.51,3.51,0,0,0,.36,2.8,1.53,1.53,0,0,0,1.69.69c2.2-.73,4.9-.67,6.15-3a3.19,3.19,0,0,0-3.06-4.76c-.29,0-.59.11-.88.13-.48,0-.12-.08-.11.07s0-.3,0-.33a3,3,0,0,1,1.49-1.89,2.52,2.52,0,0,1,3.85,1.32c.46,1.88,3.36,1.08,2.89-.79Z"/><path class="cls-1" d="M392.6,146.23a5.62,5.62,0,0,0-5.18,6.5c.68,3.76,4.61,4,7.07,6.05,2,1.68,2,5.17.23,7-1.22,1.3-3.11,1.5-4,3.18s-.51,3.43-.55,5.16c0,1.94-1.64,3.19-2.44,4.85a15.54,15.54,0,0,0-1.37,6,52.87,52.87,0,0,0,1.33,13.32c.95,4.5,2.58,8.78,3.89,13.18,1.24,4.18,2.22,8.68,1.08,13-.57,2.15-1.74,4.2-1.68,6.47a6.45,6.45,0,0,0,3.11,5.09c1.72,1.23,3.38,2.25,4.59,4a11.53,11.53,0,0,1,2,5.95c.09,1.93,3.09,1.94,3,0a14.67,14.67,0,0,0-4-9.52,41.36,41.36,0,0,0-4.3-3.28c-1.68-1.35-1.43-3-.8-4.89a26.76,26.76,0,0,0,1.52-5.83,23,23,0,0,0-.23-6.09c-.65-4.3-2.21-8.39-3.52-12.52a61.73,61.73,0,0,1-2.72-13.11c-.36-3.86-.75-8.29,1.57-11.65,1.07-1.55,1.94-2.84,2-4.79.07-1.5-.61-3.6.9-4.55s2.7-1.47,3.66-2.94a8.22,8.22,0,0,0,1.28-4c.23-3.59-1.82-6.25-4.93-7.75-1.28-.61-3.51-1.32-3.72-3a2.62,2.62,0,0,1,2.27-2.85c1.92-.08,1.93-3.08,0-3Z"/><path class="cls-1" d="M396.13,141.6a23.9,23.9,0,0,0,.59-9c-.39-3-1.58-5.78-2.45-8.7a10.35,10.35,0,0,1-.57-4.34,9.56,9.56,0,0,1,1.5-3.61c1.3-2.23,2.49-4.43,2-7.11-.23-1.37-.82-2.66-1.11-4a24.34,24.34,0,0,1-.45-4.26c-.1-2.86.06-5.73-.28-8.58a19.71,19.71,0,0,0-.8-3.87,18.51,18.51,0,0,0-.69-1.74,5.12,5.12,0,0,1-.83-2.37c.13-1,1.36-1.76,2-2.45a7.08,7.08,0,0,0,1.81-3.29c.62-2.75-.16-5.6-1.21-8.13-1.24-3-3.05-6.3-1.71-9.56.74-1.78-2.16-2.56-2.89-.8-2.33,5.69,2.67,10.45,3,15.93a5.06,5.06,0,0,1-.8,3.35c-.7.95-1.73,1.6-2.41,2.58-1.8,2.58.08,5,.88,7.47,1.73,5.47.22,11.38,1.56,16.93a24.63,24.63,0,0,1,1,3.83,6.27,6.27,0,0,1-1.16,3.6c-1.34,2.36-2.65,4.58-2.52,7.4.16,3.32,1.72,6.3,2.57,9.46a20.65,20.65,0,0,1,0,10.53,1.5,1.5,0,0,0,2.9.79Z"/><path class="cls-1" d="M386.67,1.54c-7.16,3.11-13.47,8.22-17.08,15.23a31.9,31.9,0,0,0-3.36,17.54,28.42,28.42,0,0,0,9.43,18.46c6.27,5.59,17,9.9,24.85,5.1,15.19-9.29,23.7-30.67,13-46.31C408.78,4.7,401-.31,392.48,0a15.15,15.15,0,0,0-12.09,6.38c-2.93,4-4.47,9.16-5.43,14-1.06,5.33-1.76,11-.74,16.42A23,23,0,0,0,380,48a22.56,22.56,0,0,0,11,6.58,19.9,19.9,0,0,0,13.58-1.65,27,27,0,0,0,5.89-4c1.46-1.28-.67-3.39-2.12-2.12a20.17,20.17,0,0,1-11.43,5.32,17.74,17.74,0,0,1-11.38-3.25,20.62,20.62,0,0,1-7.17-8.7c-1.89-4.33-1.83-9.09-1.33-13.71a49.27,49.27,0,0,1,3.39-13.95c1.6-3.78,4.1-7.5,8.19-8.81,7.54-2.42,15.62,1.52,20.55,7.18A25.44,25.44,0,0,1,415,32.21a35.47,35.47,0,0,1-12.37,20.45,20.22,20.22,0,0,1-5.53,3.61,13.62,13.62,0,0,1-6.77.38,24.57,24.57,0,0,1-10.39-4.31,25.7,25.7,0,0,1-10.4-16.15A28.78,28.78,0,0,1,382.85,6.9a40.79,40.79,0,0,1,5.33-2.77c1.77-.77.24-3.35-1.51-2.59Z"/><path class="cls-1" d="M172.07,32.42l.09,0-.36.15a2.64,2.64,0,0,1,.55-.15l-.4,0a3.75,3.75,0,0,1,.67,0l-.4,0a3,3,0,0,1,.78.21l-.36-.15a3.67,3.67,0,0,1,.67.39l-.3-.23a3.18,3.18,0,0,1,.58.58l-.23-.31a3,3,0,0,1,.33.58l-.15-.36a2.34,2.34,0,0,1,.18.64l-.06-.4a1.88,1.88,0,0,1,0,.34,1.5,1.5,0,1,0,3,0,4.24,4.24,0,0,0-2-3.55,4.3,4.3,0,0,0-1.83-.66,3.84,3.84,0,0,0-1.07,0,4.06,4.06,0,0,0-1.2.37,1.5,1.5,0,0,0-.69.89,1.57,1.57,0,0,0,.16,1.16,1.5,1.5,0,0,0,.89.69l.4,0a1.57,1.57,0,0,0,.76-.2Z"/><path class="cls-1" d="M169.88,31a3.88,3.88,0,0,0,1,4,3.73,3.73,0,0,0,1.9.95,4.29,4.29,0,0,0,.73.08,6,6,0,0,0,.73-.07,3.89,3.89,0,0,0,1-.36,1.5,1.5,0,0,0,.69-.89A1.5,1.5,0,0,0,175,32.81l-.4-.05a1.57,1.57,0,0,0-.76.2.2.2,0,0,1-.08,0l.36-.15a2.54,2.54,0,0,1-.6.16l.4,0a2.43,2.43,0,0,1-.66,0l.39,0a2.46,2.46,0,0,1-.59-.16l.36.15a2.9,2.9,0,0,1-.54-.31l.31.23a2.53,2.53,0,0,1-.37-.36l.24.3a2.12,2.12,0,0,1-.33-.56l.15.36a2.88,2.88,0,0,1-.17-.64l.06.4a2,2,0,0,1,0-.6l-.06.39a3.69,3.69,0,0,1,.11-.45,1.52,1.52,0,0,0-.15-1.16,1.56,1.56,0,0,0-.9-.69,1.54,1.54,0,0,0-1.15.16,1.65,1.65,0,0,0-.69.89Z"/><path class="cls-1" d="M174.36,32.78c-2.79,3.4-5.3,7-8.27,10.3C162.54,47,158.7,50.6,155,54.34L132.2,77.46l-13,13.16c-1.35,1.37.77,3.5,2.13,2.12Q144.14,69.63,167,46.5c3.52-3.57,6.35-7.73,9.52-11.6,1.22-1.49-.89-3.62-2.12-2.12Z"/><path class="cls-1" d="M111,98.39Q134.43,72.45,158.44,47q6.75-7.15,13.57-14.27c1.33-1.4-.79-3.52-2.12-2.12Q145.71,55.91,122.11,81.7,115.45,89,108.85,96.27c-1.29,1.43.82,3.55,2.12,2.12Z"/><path class="cls-1" d="M90.06,116.06c-13,16.88-30.59,29.37-44.24,45.63-3.83,4.56-7.22,9.69-12,13.29-1.52,1.15,0,3.75,1.52,2.59,4.36-3.27,7.61-7.56,11-11.77a156.42,156.42,0,0,1,10.94-12.08C64.84,146.1,73,139,80.51,131.36a147.25,147.25,0,0,0,12.14-13.79c1.18-1.53-1.43-3-2.59-1.51Z"/><path class="cls-1" d="M96.36,119.81c-8.54,6.94-16.24,14.9-24,22.71S56.89,158.4,49.44,166.63q-6.37,7.05-12.5,14.33c-1.23,1.47.88,3.6,2.12,2.12,14.26-17,29.71-33,45.52-48.49,4.47-4.39,9-8.7,13.9-12.66,1.5-1.21-.63-3.32-2.12-2.12Z"/><path class="cls-1" d="M8.92,98.84c.07,3.22,1.56,6.54,3.09,9.31,2,3.58,4.92,5.87,8.37,7.95s7.66,4.22,9.74,8a15.36,15.36,0,0,1,1.5,6.44,29.16,29.16,0,0,1,0,6.47c-.79,4.69-5.69,6.06-8.27,9.56-1.14,1.56,1.46,3.05,2.59,1.51s2.82-2.52,4.29-3.67A11,11,0,0,0,33.89,140a15.8,15.8,0,0,0,.87-6.44,42.59,42.59,0,0,0-.6-6.77c-.86-4.47-3.74-7.7-7.39-10.23-3.5-2.42-8-4.11-10.68-7.54a21.16,21.16,0,0,1-2.78-5,14.61,14.61,0,0,1-1.39-5.13c0-1.93-3-1.94-3,0Z"/><path class="cls-1" d="M.23,71.5,4.85,79A73.82,73.82,0,0,1,9,86a11.6,11.6,0,0,1,1.06,7.37c-.47,2.45-1.43,4.77-2,7.21-1.08,5,.5,9.37,3.67,13.26s7.8,6.85,10.48,11.31A15.28,15.28,0,0,1,24.7,133c-.05,1.93-1.76,5-4.05,3.45C19,135.38,17.54,138,19.14,139a5.27,5.27,0,0,0,6.2-.58c2-1.64,2.56-4.39,2.28-6.87-.64-5.79-4.08-10.4-8.18-14.29-3.7-3.52-8.64-7.5-8.75-13.08-.06-2.77,1-5.42,1.77-8A15.89,15.89,0,0,0,12.9,88c-.75-3.08-2.53-5.82-4.17-8.48L2.82,70c-1-1.64-3.61-.13-2.59,1.52Z"/><path class="cls-1" d="M1,72.28C2.77,73,3.94,75,5.11,76.36a9.15,9.15,0,0,0,5,2.92,21.27,21.27,0,0,1,5.53,1.66,12.28,12.28,0,0,1,4.12,3.83,19.48,19.48,0,0,1,3.43,11.28,7,7,0,0,1-.86,3.28c-.54.92-1.29,1.71-1.85,2.62a10,10,0,0,0-1.36,5,14.94,14.94,0,0,0,4.2,11c1.4,1.33,3.53-.79,2.12-2.12a12,12,0,0,1-3.26-9.68c.25-2,1.46-3.27,2.53-4.92a10.52,10.52,0,0,0,1.46-6.42,23.1,23.1,0,0,0-3.92-11.65,15.13,15.13,0,0,0-9.52-6.32,20.85,20.85,0,0,1-3.39-.88A6.09,6.09,0,0,1,7,74c-1.51-1.83-2.91-3.65-5.18-4.57C0,68.66-.74,71.57,1,72.28Z"/><path class="cls-1" d="M16.68,126.42a37.36,37.36,0,0,0,3.47,10.91,1.51,1.51,0,0,0,2.05.54,1.53,1.53,0,0,0,.54-2.05,35.27,35.27,0,0,1-3.17-10.2,1.5,1.5,0,0,0-1.84-1,1.53,1.53,0,0,0-1.05,1.84Z"/><path class="cls-1" d="M16,126.44a47.3,47.3,0,0,0-1,12.61,25.83,25.83,0,0,0,3.51,10.51c1.72,3,3.78,5.82,5.28,8.95A17.53,17.53,0,0,1,25,169.73c-1.27,6.7-4.16,14.69.58,20.77a10.51,10.51,0,0,0,9,3.87,14.18,14.18,0,0,0,9.2-4.47,23.39,23.39,0,0,0,5.4-9.45c1-3.19,1-6.9-2.07-8.91-1.62-1.06-3.13,1.54-1.51,2.59,2.12,1.39,1,4.77.31,6.65a19.72,19.72,0,0,1-4.52,7.27,10.73,10.73,0,0,1-8.15,3.33,7.38,7.38,0,0,1-6.49-4.73c-2.48-6.26,1-13,1.57-19.29.65-6.7-2.72-11.91-6.09-17.36a26.65,26.65,0,0,1-4.11-9.76c-.71-4.3-.06-8.75.68-13,.33-1.89-2.56-2.7-2.89-.8Z"/><path class="cls-1" d="M17.41,130.68a54.76,54.76,0,0,0,3.93,16.78A59.89,59.89,0,0,0,25.05,155a85,85,0,0,1,4.27,7.4,22.89,22.89,0,0,1,1.7,8.43c.17,2.68.35,5.46,1.68,7.86,1.85,3.35,6.57,6.74,10.49,4.91,3.27-1.54,5.19-6.3,4.73-9.76a1.54,1.54,0,0,0-1.5-1.5,1.5,1.5,0,0,0-1.5,1.5c.31,2.3-.69,5.73-2.82,6.95-1.38.78-3,0-4.2-.8a7.84,7.84,0,0,1-3.3-4.55c-.68-2.57-.53-5.28-.83-7.9a21.74,21.74,0,0,0-2-7c-2.19-4.52-5.21-8.53-7.21-13.17a51.59,51.59,0,0,1-4.11-16.65c-.13-1.91-3.14-1.93-3,0Z"/><path class="cls-1" d="M40.87,171.24c1.05-4.35-.34-9.28-2.5-13.07a50.93,50.93,0,0,0-4.52-6.3c-1.77-2.22-3.91-4.41-5.28-6.91-.93-1.69-3.52-.18-2.59,1.52a45.09,45.09,0,0,0,4.57,6,71.33,71.33,0,0,1,4.53,6c2.14,3.34,3.87,7.89,2.9,11.9-.46,1.87,2.43,2.67,2.89.8Z"/><path class="cls-1" d="M13.14,148.1a60.27,60.27,0,0,1,1.22,18.12,57.8,57.8,0,0,1-1.54,9.25c-.74,3-1.78,5.83-2.56,8.77-1.38,5.15-1.91,11.25,1.42,15.8a12.53,12.53,0,0,0,12.77,4.86c4.78-1.2,9.25-5.92,10.42-10.66.46-1.88-2.43-2.68-2.89-.8A12.61,12.61,0,0,1,23.81,202c-4.14,1.12-8.73-1.33-10.54-5.1-2.3-4.81-.61-10.42.87-15.19a72.07,72.07,0,0,0,3.26-15.91A63.63,63.63,0,0,0,16,147.3c-.42-1.89-3.31-1.09-2.89.8Z"/><path class="cls-1" d="M13.36,148.32c2.16,8.65,8.54,17.65,6,26.89-.62,2.24-2.07,4.13-2.65,6.39a20.62,20.62,0,0,0-.36,6.51,9.12,9.12,0,0,0,1.7,5.2c1.31,1.62,3.22,2.08,5.2,2.28a16.42,16.42,0,0,0,3.9,0,20,20,0,0,1,2.66-.35c1.64,0,3.59-.16,4.08-2s-2.41-2.67-2.89-.8c.1-.42.53-.15,0-.2a6.12,6.12,0,0,0-.74,0,13.4,13.4,0,0,0-2.19.11,16,16,0,0,1-5.39.13,3.49,3.49,0,0,1-3.13-3.07,19,19,0,0,1-.17-5.38c.15-2.15,1.17-3.79,2-5.7a17.46,17.46,0,0,0,1.43-5.68A28.88,28.88,0,0,0,21,161c-1.53-4.52-3.59-8.85-4.75-13.49-.47-1.87-3.37-1.08-2.9.79Z"/><path class="cls-1" d="M19.92,171.84c0,1.17.2,2.33.3,3.49a10.06,10.06,0,0,0,.4,2.79,24.25,24.25,0,0,0,2.51,4.47,1.5,1.5,0,0,0,2.59-1.51c-.39-.58-.77-1.17-1.13-1.77-.22-.37-.44-.74-.64-1.12-.11-.2-.21-.4-.31-.61s-.25-.64-.12-.26a3.57,3.57,0,0,1-.16-.46c0-.06,0-.14-.05-.2s0,.38,0,.15a10.23,10.23,0,0,0-.11-1.56c-.11-1.14-.25-2.27-.3-3.41a1.5,1.5,0,0,0-3,0Z"/><path class="cls-1" d="M20.72,191.59c.14-.23.28-.46.44-.68s.17-.23.26-.35.21-.27,0-.06,0,0,.05-.06c.42-.52.86-1,1.32-1.51s.91-1,1.4-1.4l.67-.6.35-.28c.23-.19-.23.17-.1.08l.17-.13a1.63,1.63,0,0,0,.69-.9,1.49,1.49,0,0,0-.15-1.15,1.51,1.51,0,0,0-2.05-.54,22.21,22.21,0,0,0-3.1,2.79,18.92,18.92,0,0,0-2.58,3.28,1.5,1.5,0,0,0,2.59,1.51Z"/><path class="cls-1" d="M277.8,119.81c4.57-2.49,9.87-1.06,14.53.39l7.3,2.29c2.1.66,4.84,1.06,6.29,2.88,1.2,1.51,3.31-.63,2.12-2.12-1.62-2-4.35-2.62-6.7-3.36-2.89-.91-5.77-1.83-8.67-2.72-5.36-1.65-11.21-2.77-16.38,0-1.7.92-.19,3.52,1.51,2.59Z"/><path class="cls-1" d="M210.16,230.22a36.83,36.83,0,0,1-2.95,12.1,74,74,0,0,1-5.9,10,26.06,26.06,0,0,1-6,6.63,44.12,44.12,0,0,1-8.3,4.23c-.88.38-.12,1.67.76,1.29a41.79,41.79,0,0,0,8.63-4.47,28.42,28.42,0,0,0,6.18-6.93,66.08,66.08,0,0,0,6.17-10.61,40.26,40.26,0,0,0,2.88-12.25c.1-1-1.4-.95-1.5,0Z"/><path class="cls-1" d="M113,217.33l.38,11c0,1,1.53,1,1.5,0l-.38-11a.75.75,0,0,0-1.5,0Z"/><path class="cls-1" d="M118.2,220.84a89.72,89.72,0,0,0,.17,9.84c.06,1,1.57,1,1.5,0a89.72,89.72,0,0,1-.17-9.84c0-1-1.46-1-1.5,0Z"/><path class="cls-1" d="M120.78,219.84a94.83,94.83,0,0,0,1.15,22.76c.17,1,1.61.54,1.45-.4a93,93,0,0,1-1.1-22.36c.07-1-1.43-1-1.5,0Z"/><path class="cls-1" d="M125.87,226.36a61.5,61.5,0,0,0,1.93,24.29.75.75,0,0,0,1.44-.4,60.6,60.6,0,0,1-1.87-23.89c.11-1-1.39-1-1.5,0Z"/><path class="cls-1" d="M129.21,236.83a93,93,0,0,0,5,22.71c.32.9,1.77.51,1.45-.4a91.2,91.2,0,0,1-5-22.31c-.09-1-1.59-1-1.5,0Z"/><path class="cls-1" d="M135.73,248a33.66,33.66,0,0,0,5.68,13.59c.56.78,1.86,0,1.3-.76a32.46,32.46,0,0,1-5.53-13.23c-.17-.95-1.61-.55-1.45.4Z"/><path class="cls-1" d="M208.22,188.15l-4.15,8.71a.78.78,0,0,0,.27,1,.76.76,0,0,0,1-.27l4.15-8.72a.75.75,0,0,0-1.3-.75Z"/><path class="cls-1" d="M210.63,189.92l-4.71,8.56c-.47.85.83,1.61,1.29.76l4.71-8.56c.47-.85-.83-1.61-1.29-.76Z"/><path class="cls-1" d="M211.18,195.13l-4.84,11.93c-.37.89,1.09,1.28,1.44.4l4.85-11.93c.36-.9-1.09-1.29-1.45-.4Z"/><path class="cls-1" d="M213.27,200.45q-3.87,7.53-8,14.88a.75.75,0,0,0,1.3.76q4.16-7.36,8-14.88c.44-.86-.85-1.62-1.29-.76Z"/><path class="cls-1" d="M211.18,210.13a21.92,21.92,0,0,1-4.73,9.23c-.63.72.43,1.79,1.06,1.06a23.43,23.43,0,0,0,5.11-9.89c.23-.94-1.22-1.34-1.44-.4Z"/><path class="cls-1" d="M211.35,215.5l-7.91,13a.75.75,0,0,0,1.29.75l7.92-13c.5-.83-.8-1.58-1.3-.76Z"/><path class="cls-1" d="M211,223.61a56.63,56.63,0,0,1-6.26,8.12c-.66.71.4,1.77,1.06,1.06a59.12,59.12,0,0,0,6.5-8.43c.51-.81-.78-1.57-1.3-.75Z"/><path class="cls-1" d="M159.63,252.3c6.38,4.17,13.69,8.6,21.63,7.05,1-.18.55-1.63-.4-1.44-7.48,1.45-14.49-3-20.48-6.91-.81-.53-1.56.77-.75,1.3Z"/><path class="cls-1" d="M158.22,257.8c6.87,3.23,14.77,6.68,22.4,4.05.91-.31.52-1.76-.4-1.44-7.23,2.48-14.73-.85-21.24-3.9-.87-.41-1.63.88-.76,1.29Z"/><path class="cls-1" d="M169.17,253.24a28.58,28.58,0,0,0,23-3,.75.75,0,0,0-.76-1.3,27.07,27.07,0,0,1-21.82,2.86.75.75,0,0,0-.4,1.44Z"/><path class="cls-1" d="M194.79,201.21a29.27,29.27,0,0,1,2.9,20.43c-.21.94,1.24,1.34,1.45.39a31,31,0,0,0-3-21.58c-.47-.85-1.76-.09-1.3.76Z"/><path class="cls-1" d="M146.72,184.88c-12.4,9.05-13,25.54-12.13,39.48.07.95,1.57,1,1.5,0-.84-13.3-.52-29.5,11.39-38.19.77-.56,0-1.86-.76-1.29Z"/><path class="cls-1" d="M125.86,148.34c-13.12,5.22-18.08,19.52-18.89,32.56-.06,1,1.44,1,1.5,0,.76-12.28,5.36-26.16,17.79-31.11.88-.35.5-1.8-.4-1.45Z"/><path class="cls-1" d="M324.5,78.39A18.2,18.2,0,0,1,334,83.65,8.83,8.83,0,0,1,336.68,89c1,6-.32,12.51-2,18.27a72.6,72.6,0,0,1-5.59,13.85c-.9,1.71,1.69,3.23,2.59,1.51a70.31,70.31,0,0,0,8-25.13,36,36,0,0,0,0-8.86,11.82,11.82,0,0,0-2.76-6.21A20.8,20.8,0,0,0,325.3,75.5c-1.88-.4-2.69,2.49-.8,2.89Z"/><path class="cls-1" d="M327.44,84.37a6.29,6.29,0,0,1,1.34.61,8.94,8.94,0,0,1,1.21.82,12.33,12.33,0,0,1,1.17,1.12c.19.21.38.43.56.66l.09.12c-.05-.07-.05-.07,0,0l.28.39a19.74,19.74,0,0,1,2.78,6.13,1.5,1.5,0,1,0,2.89-.8c-1.43-5-4.31-10.17-9.54-12a1.51,1.51,0,0,0-1.84,1,1.54,1.54,0,0,0,1.05,1.85Z"/><path class="cls-1" d="M315.47,167.51A49.47,49.47,0,0,0,311,191.83c.13,1.92,3.13,1.93,3,0A46.38,46.38,0,0,1,318.06,169c.81-1.74-1.78-3.27-2.59-1.51Z"/><path class="cls-1" d="M350.13,120.59c3.14,6.4,2.92,13.86,1.65,20.7-1.39,7.46-4,14.65-6.74,21.7-1.36,3.48-2.77,6.94-4.06,10.45-.67,1.81,2.23,2.59,2.89.8,2.54-6.89,5.46-13.62,7.75-20.6,2.39-7.29,4.33-15,4-22.77a29.71,29.71,0,0,0-2.89-11.79c-.85-1.73-3.44-.22-2.59,1.51Z"/><path class="cls-1" d="M346,190.44c-2.34,11.18-4.49,22.56-5.13,34a55,55,0,0,0,.07,8.42c.19,1.9,3.19,1.92,3,0-.69-6.9.26-14,1.23-20.85s2.28-13.88,3.72-20.75c.39-1.89-2.5-2.69-2.89-.8Z"/><path class="cls-1" d="M335.23,233.7A87.67,87.67,0,0,1,333,267.94a1.5,1.5,0,0,0,2.89.8,91.2,91.2,0,0,0,2.23-35.84,1.5,1.5,0,0,0-1.84-1,1.53,1.53,0,0,0-1,1.84Z"/><path class="cls-1" d="M325,229.53a50.35,50.35,0,0,1-10.6,15.8c-1.36,1.37.76,3.5,2.12,2.12a52.69,52.69,0,0,0,11.07-16.4,1.57,1.57,0,0,0-.54-2.06,1.51,1.51,0,0,0-2.05.54Z"/><path class="cls-1" d="M347.46,276.93A76.07,76.07,0,0,1,340,292.51c-1,1.65,1.57,3.15,2.59,1.52a80.07,80.07,0,0,0,7.74-16.3c.63-1.83-2.27-2.62-2.89-.8Z"/><path class="cls-1" d="M324.66,277.6a30,30,0,0,0-.05,30,1.5,1.5,0,0,0,2.59-1.51,27,27,0,0,1,.05-27,1.5,1.5,0,0,0-2.59-1.52Z"/></g></g></svg>