<svg xmlns="http://www.w3.org/2000/svg" viewBox="0 0 341.64 660.97"><defs><style>.cls-1{fill:#2d3242;}</style></defs><g id="Calque_2" data-name="Calque 2"><g id="forme_1" data-name="forme 1"><g id="bules"><g id="bulle_du_bas" data-name="bulle du bas"><g id="_Ellipse_centrale_" data-name="&lt;Ellipse centrale&gt;"><path class="cls-1" d="M309.14,580a7.09,7.09,0,0,1-4.24,6.58,6.3,6.3,0,0,1-7.26-2.1,7.44,7.44,0,0,1-.61-8,6.41,6.41,0,0,1,6.8-3.36,7,7,0,0,1,5.31,6.89c0,1.93,3,1.94,3,0a10.12,10.12,0,0,0-6.34-9.43,9.28,9.28,0,0,0-10.62,3.26,10.48,10.48,0,0,0-.63,11.42,9.45,9.45,0,0,0,10.07,4.53c4.53-1,7.46-5.3,7.52-9.78C312.17,578,309.17,578,309.14,580Z"/></g><path class="cls-1" d="M338.64,591.47c-.07,13.4-8.17,26.17-20.88,31A31.79,31.79,0,0,1,282,612.48a34,34,0,0,1-2.75-38c6.8-11.64,20.48-18.17,33.79-15.36s23.17,13.93,25.27,27.15a34.8,34.8,0,0,1,.38,5.2,1.5,1.5,0,0,0,3,0c-.07-14.82-9.11-28.58-23.08-33.85a34.66,34.66,0,0,0-38.83,10.85,37.12,37.12,0,0,0-3,41.65,35,35,0,0,0,36.93,16.63c14.33-2.94,25.43-15.26,27.57-29.63a39.48,39.48,0,0,0,.44-5.65A1.5,1.5,0,0,0,338.64,591.47Z"/></g><g id="bulle_du_millieu" data-name="bulle du millieu"><g id="_Ellipse_centrale_2" data-name="&lt;Ellipse centrale&gt;"><path class="cls-1" d="M279.14,424a7,7,0,1,1-5.77-6.9,7.06,7.06,0,0,1,5.77,6.9c0,1.93,3,1.94,3,0a10.15,10.15,0,0,0-6.55-9.38,10,10,0,0,0-12,14.49,10,10,0,0,0,18.6-5.11C282.17,422,279.17,422,279.14,424Z"/></g><path class="cls-1" d="M314.64,441.47a34.87,34.87,0,1,1-.41-5.45,35.32,35.32,0,0,1,.41,5.45,1.5,1.5,0,0,0,3,0,38.06,38.06,0,1,0-.47,5.92,40.5,40.5,0,0,0,.47-5.92A1.5,1.5,0,0,0,314.64,441.47Z"/></g><g id="bulle_grosse" data-name="bulle grosse"><g id="_Ellipse_centrale_3" data-name="&lt;Ellipse centrale&gt;"><path class="cls-1" d="M162.14,146.47a7.61,7.61,0,0,1-5.3,7.06,8.41,8.41,0,0,1-8.87-2.28,7.21,7.21,0,0,1-.65-8.7,8.23,8.23,0,0,1,8.27-3.46,7.75,7.75,0,0,1,6.55,7.38c0,1.93,3,1.94,3,0a10.69,10.69,0,0,0-7.26-9.87,11.36,11.36,0,0,0-12.19,3.15,10.25,10.25,0,0,0-1,12.16,11.37,11.37,0,0,0,11.66,4.84,10.75,10.75,0,0,0,8.75-10.28C165.17,144.54,162.17,144.54,162.14,146.47Z"/></g><path class="cls-1" d="M217.14,166a45.52,45.52,0,0,1-9.34,27.37,50,50,0,0,1-23.48,16.79c-19.51,6.67-42.12,1.27-55.82-14.32a44.76,44.76,0,0,1-4.07-54.29c11.13-17.19,32.66-25.42,52.56-21.64,19.56,3.71,36.18,18.84,39.56,38.79a44.56,44.56,0,0,1,.59,7.3,1.5,1.5,0,0,0,3,0,48.33,48.33,0,0,0-9.84-29,53.41,53.41,0,0,0-25.18-18c-20.55-7-44.63-1.18-58.95,15.34a48.84,48.84,0,0,0-11.88,28,47.94,47.94,0,0,0,7.55,29.7c11.9,18.38,34.68,27.06,55.95,23,20.59-3.92,38.3-20.18,41.71-41.21a50.72,50.72,0,0,0,.64-7.78A1.5,1.5,0,0,0,217.14,166Z"/></g><g id="bulle_haute" data-name="bulle haute"><g id="_Ellipse_centrale_4" data-name="&lt;Ellipse centrale&gt;"><path class="cls-1" d="M39.14,25a7,7,0,1,1-5.77-6.9A7.06,7.06,0,0,1,39.14,25c0,1.93,3,1.94,3,0a10.15,10.15,0,0,0-6.55-9.38A10,10,0,0,0,23.54,30.08,10,10,0,0,0,42.14,25C42.17,23,39.17,23,39.14,25Z"/></g><path class="cls-1" d="M67.14,34.47c-.07,12.83-7.84,25.07-20,29.61a30.29,30.29,0,0,1-34-9.54,32.53,32.53,0,0,1-2.65-36.25C16.93,7.18,30,.92,42.65,3.58S64.84,17,66.79,29.62a32.77,32.77,0,0,1,.35,4.85,1.5,1.5,0,0,0,3,0C70.07,20.33,61.5,7.2,48.21,2.09A33.18,33.18,0,0,0,10.8,12.53,35.62,35.62,0,0,0,8,52.31a33.5,33.5,0,0,0,35.32,16C57,65.49,67.65,53.69,69.71,40a38.67,38.67,0,0,0,.43-5.48A1.5,1.5,0,0,0,67.14,34.47Z"/></g></g><g id="_forme" data-name=" forme"><path class="cls-1" d="M61.42,373.7c-3.8-12.39-8-24.64-12.34-36.84-4.26-12-8.62-23.94-12.78-36C32,288.61,28,276.25,24.47,263.73c-3.72-13.15-6.87-26.47-9.28-39.93A365.68,365.68,0,0,1,10,179.29q-.16-2.92-.28-5.85c-.07-1.92-3.07-1.93-3,0a377.49,377.49,0,0,0,4.54,45.15,402.8,402.8,0,0,0,8.85,40.66c3.41,12.62,7.35,25.08,11.57,37.44,4.14,12.17,8.53,24.25,12.86,36.36S53.15,357.39,57,369.7c.5,1.6,1,3.19,1.49,4.79.56,1.85,3.46,1.06,2.89-.79Z"/><path class="cls-1" d="M9.63,144.61A121.61,121.61,0,0,1,4.31,126.5a47.4,47.4,0,0,1-1.17-13.63,12.76,12.76,0,0,1,.92-4,3.7,3.7,0,0,1,1.84-2,17.8,17.8,0,0,1,9.8-1.57c5.28.69,9.32,4.26,12.06,8.63,1,1.64,3.62.13,2.59-1.51-2.82-4.5-6.82-8.29-12.07-9.66a20.35,20.35,0,0,0-11.91.71,8.28,8.28,0,0,0-3.81,2.24,9.89,9.89,0,0,0-2,4.21c-1,4.45-.53,9.21.15,13.66a112.11,112.11,0,0,0,6,21.87c.66,1.8,3.56,1,2.89-.8Z"/><path class="cls-1" d="M27.61,113.54c9.07,24.07,17.85,48.26,28.14,71.85s21.94,47.06,38.72,66.93c8.59,10.17,18.5,19.64,30.16,26.2,1.69.94,3.2-1.65,1.52-2.59-10.25-5.77-19.06-13.85-26.84-22.6a184,184,0,0,1-21-29.07,358,358,0,0,1-17.88-35.62c-5.75-12.87-11-26-16.07-39.11C39.66,137.3,35.13,125,30.5,112.74c-.67-1.79-3.57-1-2.89.8Z"/><path class="cls-1" d="M115.44,269.09c-3.92-7-6.47-15-4.93-23A34,34,0,0,1,119,230a24.37,24.37,0,0,1,16.18-7.48,28.05,28.05,0,0,1,11.58,2.09,15.6,15.6,0,0,1,6.36,4.43c2.46,3,3,6.86,3.7,10.54.75,3.89,2.89,7.13,4.75,10.58,5.6,10.42,11,21.12,17.68,30.89,1.73,2.53,4,6.55,7.46,6.73,2.26.11,4.59-.5,6.83-.71,2.68-.24,5.65-.33,8.13.88a7.8,7.8,0,0,1,3.17,2.83c1,1.61,3.64.11,2.59-1.52-3.7-5.7-10.43-5.68-16.47-4.89-1.16.16-2.34.35-3.52.4h-.87c-.25,0,.22,0,0,0-.07,0-.52-.14-.25,0s-.13-.08-.2-.12l-.34-.23c.26.18,0,0-.09-.1-.28-.26-.56-.52-.82-.81a24.11,24.11,0,0,1-1.65-2,137.75,137.75,0,0,1-9.06-14.53C171,261.3,168,255.64,164.91,250c-1.19-2.21-2.37-4.41-3.57-6.6-.21-.37-.42-.74-.62-1.12a3.74,3.74,0,0,1-.35-.88,19.58,19.58,0,0,1-.6-2.4c-.81-4-1.44-8.09-4-11.47-4-5.32-11.33-7.53-17.74-8a27.6,27.6,0,0,0-19.74,7,32.31,32.31,0,0,0-5.18,6.18,35.91,35.91,0,0,0-4.46,8.8,32.67,32.67,0,0,0,1,22.49,54,54,0,0,0,3.19,6.64c.94,1.69,3.53.18,2.59-1.51Z"/><path class="cls-1" d="M30.71,113.32c-1.84-6.16.14-12.14,4.37-16.81a24.28,24.28,0,0,1,5.14-4.45c3-1.83,6.36-.69,9.1,1a26.87,26.87,0,0,1,4.22,3.29c.83.78,2.52,3.29,3.9,2.91.31-.09.59.42-.15-.45s-.3-.51-.41-.18a4.26,4.26,0,0,0,0,1c0,.69,0,1.37,0,2.06,0,1.35,0,2.7.08,4.06a142.9,142.9,0,0,0,1.92,17.87,243.22,243.22,0,0,0,10.29,39.25,346.17,346.17,0,0,0,16.67,40A292.24,292.24,0,0,0,106.1,238.2q1.29,1.91,2.62,3.78c1.11,1.56,3.71.06,2.59-1.52A278.89,278.89,0,0,1,90,204.65a342,342,0,0,1-17.57-41.27,244.06,244.06,0,0,1-10.79-40.89,134,134,0,0,1-1.81-18.1c0-1.44,0-2.87,0-4.31s.33-3.17-1.33-3.69c-.28-.09-.59,0-.87-.12s.21.15.19.14a3,3,0,0,1-.52-.55c-.62-.65-1.27-1.29-1.94-1.9a30.68,30.68,0,0,0-4.53-3.49c-2.85-1.75-6.3-3-9.64-2.07-2.56.66-4.78,2.6-6.66,4.38-4.41,4.16-7.71,9.84-7.59,16a20.18,20.18,0,0,0,.87,5.29c.55,1.84,3.45,1.06,2.89-.8Z"/><path class="cls-1" d="M59.07,99.48c2.3-2.22,4.29-4.72,7.09-6.33A16.37,16.37,0,0,1,73.82,91a15.49,15.49,0,0,1,8.09,2,11.78,11.78,0,0,1,1.69,1.12,4.36,4.36,0,0,1,.67.62c.22.24-.19-.29,0,0a1.81,1.81,0,0,1,.41.93,12.42,12.42,0,0,1,.39,3.2c.07,1.75.07,3.5.1,5.25a120.41,120.41,0,0,0,1.21,15.29,160.32,160.32,0,0,0,4.75,20.3q2.76,9.78,5.85,19.46c1.42,4.48,2.88,8.95,4.44,13.38a87.49,87.49,0,0,0,5.28,11.63c6.86,12.9,15.25,25,19.87,39,.6,1.82,3.5,1,2.89-.8-4.28-12.95-11.64-24.35-18.25-36.18a91.09,91.09,0,0,1-6.5-13.32c-1.52-4.19-2.9-8.43-4.26-12.67q-3.12-9.69-5.93-19.49A175.14,175.14,0,0,1,89.33,119a114.9,114.9,0,0,1-1.16-15.39c0-2.87.22-6.08-.63-8.86-.6-2-2.08-3.12-3.8-4.16A18.48,18.48,0,0,0,74.52,88a19.48,19.48,0,0,0-9.25,2.24C61.93,92,59.62,94.79,57,97.35c-1.39,1.35.73,3.47,2.12,2.13Z"/><path class="cls-1" d="M120.52,207.1c5.67-.59,11.61-.91,17.22.32,1.88.41,2.69-2.48.8-2.9-5.89-1.29-12.06-1-18-.42a1.54,1.54,0,0,0-1.5,1.5,1.51,1.51,0,0,0,1.5,1.5Z"/><path class="cls-1" d="M186.31,212.8q14.59-.81,29.2-1.43c2.41-.11,4.81-.21,7.22-.3a48.18,48.18,0,0,1,6.47-.09,8,8,0,0,1,2.5.59,4.08,4.08,0,0,1,1.15.73,6.8,6.8,0,0,1,.5.57c.11.13-.08-.37-.1-.25-.07.35.05-.39,0,.14,0,.27,0,.54,0,.8,0,.44,0-.15,0,.23,0,.19-.06.39-.1.59-.07.45-.17.91-.26,1.37-.25,1.17-.54,2.33-.84,3.49-.83,3.16-1.77,6.29-2.77,9.4-3,9.31-6.38,18.47-10,27.53-4.57,11.35-8.68,23-14.34,33.89-5.83,11.21-13.67,21.2-23.87,28.75a96.82,96.82,0,0,1-20.6,11.46,137.57,137.57,0,0,1-13.29,4.66c-1.16.35-2.33.68-3.51,1a17,17,0,0,0-3.68,1c-1.26.7-1.75,2.37-2.18,3.64a17.23,17.23,0,0,1-1.59,4.23c-1.09,1.6,1.51,3.1,2.59,1.51a18.68,18.68,0,0,0,1.8-4.66c.22-.67.52-1.29.77-1.93.57-1.49.08-.08.09-.16l.11-.11c-.39.18-.42.23-.1.12a9.21,9.21,0,0,0,2.15-.56,146.52,146.52,0,0,0,14.29-4.57A104.7,104.7,0,0,0,180,323.16,84.3,84.3,0,0,0,206.13,294c5.8-10.5,9.73-21.86,14.27-32.93,3.88-9.46,7.55-19,10.76-28.71,1.88-5.69,3.9-11.53,4.86-17.46.27-1.66.49-3-.71-4.38-2.93-3.27-8.09-2.63-12-2.48q-15,.6-30.1,1.39l-6.89.37c-1.92.11-1.93,3.11,0,3Z"/><path class="cls-1" d="M169,263.33c1.22,9,2.1,18.35-1.27,27a60.78,60.78,0,0,1-6.37,11.34c-2.59,3.88-5.23,7.73-7.86,11.58-5.38,7.86-10.86,15.65-16.69,23.18-5.49,7.09-11.53,13.82-16.16,21.54-5,8.37-8.17,18.13-6.46,27.94.33,1.9,3.22,1.1,2.89-.8-3.2-18.36,11.59-33.32,21.85-46.56,5.79-7.47,11.26-15.19,16.61-23q4.05-5.89,8-11.83a69.34,69.34,0,0,0,6.48-11.23c4.1-9.56,3.21-19.88,1.83-29.92a1.5,1.5,0,0,0-1.84-1.05,1.53,1.53,0,0,0-1.05,1.84Z"/><path class="cls-1" d="M165.4,256.25c-3.5,13.85-11.3,26.34-20.92,36.78a109.31,109.31,0,0,1-35.26,25.69q-2.39,1.06-4.85,2c-1.6.61-3.3,1-4.88,1.68-.41.17-.6.49-.92.73s0-.05.11-.14c-.19.19-.76.64-.25.31l-.45.29-.25.13c-.34.21.35-.09,0,0l-.69.19c-.29.08-.35.05-.07,0a3.73,3.73,0,0,1-.46,0c-.34,0-.68,0-1,0s.26.07-.26,0l-.63-.13a13.61,13.61,0,0,1-1.38-.41l-.71-.27-.15-.07-.47-.22a28.26,28.26,0,0,1-3.77-2.19,68.18,68.18,0,0,1-10-8.63,193.63,193.63,0,0,1-14.34-16.48A233,233,0,0,1,43.6,265a331.24,331.24,0,0,1-17-35.12A298.27,298.27,0,0,1,14.16,194c-2.82-10.39-5.08-21.06-5.68-31.83-.42-7.54-.24-16,3.19-22.84A19.59,19.59,0,0,1,14,135.78l-2.35-.3c2.2,4.89,4.46,9.75,6.73,14.61q7.79,16.68,15.93,33.17c6,12.17,12.21,24.29,18.88,36.12,8,14.2,16.71,28.63,28.31,40.22,10.75,10.74,25.43,16.91,35.39,28.51a32.93,32.93,0,0,1,3,4.12c1,1.64,3.6.13,2.59-1.52-3.9-6.31-9.76-11.12-15.65-15.5-6.19-4.58-12.76-8.67-18.69-13.59-6.71-5.57-12.3-12.46-17.3-19.57C66.21,235.52,62,228.7,58,221.79c-6.71-11.55-12.83-23.44-18.81-35.39q-8.58-17.13-16.69-34.5Q19.7,146,17,140c-.88-1.93-1.68-3.93-2.66-5.82a2,2,0,0,1-.11-.26,1.51,1.51,0,0,0-2.36-.3c-3.7,4.39-5.29,10.05-6,15.65a84.28,84.28,0,0,0,.56,22c2.56,19,8.55,37.57,15.65,55.32a316,316,0,0,0,28,54.84A223.76,223.76,0,0,0,69.33,307c5.31,6.08,11,12.22,17.84,16.64,2.78,1.8,6.26,3.67,9.69,3.35a5.52,5.52,0,0,0,4.22-2.19c0-.06.08-.1.11-.16l-.9.69a104,104,0,0,0,34-18.58,107.23,107.23,0,0,0,26-30,78.72,78.72,0,0,0,8.09-19.7c.47-1.88-2.42-2.68-2.89-.8Z"/><path class="cls-1" d="M79.09,502.07c-5.51-14-9.6-32.31,1-44.78a50.74,50.74,0,0,1,3.83-3.93c1.25-1.17,2.54-2.16,2.18-4.06a12.55,12.55,0,0,1,.07-6.66,18.24,18.24,0,0,1,2.58-4.85,37.84,37.84,0,0,1,9.48-9,44.33,44.33,0,0,1,13.29-6.43c3.27-.89,7.35-1.57,10.37.39,1.63,1.05,3.13-1.55,1.52-2.59-3-2-6.91-1.86-10.33-1.23a40.4,40.4,0,0,0-12.34,4.75,49.08,49.08,0,0,0-11.42,8.74c-2.88,3-5.64,6.76-6.44,10.95a12.79,12.79,0,0,0-.17,4,8.07,8.07,0,0,0,.53,2.86s.1-.65.24-.7c-.08,0-.2.24-.27.31s-.41.43-.63.64c-1.22,1.2-2.5,2.34-3.67,3.6A31,31,0,0,0,71.22,469c-2.34,11.4.82,23.32,5,33.91.7,1.78,3.6,1,2.9-.8Z"/><path class="cls-1" d="M73.44,515.21a79.11,79.11,0,0,1-4.85-13.29,104.09,104.09,0,0,1-3.25-16A45.36,45.36,0,0,1,83.4,442.77a1.56,1.56,0,0,0,.54-2.06,35.28,35.28,0,0,1-1.57-29.24c3.58-9.36,12.28-18.72,23-18.71a12.21,12.21,0,0,1,7.17,2.19,18.47,18.47,0,0,1,5.4,7.08,35.42,35.42,0,0,1,3.21,17.07c-.52,12.82-6.27,24.42-12.41,35.4-3.22,5.78-6.58,11.49-9.46,17.44A144.77,144.77,0,0,0,91.84,491c-4.34,13.51-8.26,27.16-12.36,40.74s-7.69,27-9.57,40.93Q68.53,583,68.17,593.47c-.16,5.19.1,10.37.08,15.56-.06,14.76-.38,29.54.6,44.28.12,1.8.26,3.61.46,5.41l1.5-1.5c-8.71.46-17.45.62-26.17.75l1.5,1.5a383.11,383.11,0,0,1,6.66-69.58A430.31,430.31,0,0,1,89.29,480.47a339.7,339.7,0,0,1,19.43-34.64c2.48-3.82,5-7.58,7.79-11.21a59.48,59.48,0,0,1,5.44-6.39c.32-.3.63-.6,1-.88,1.48-1.24-.65-3.35-2.12-2.12a37.5,37.5,0,0,0-5,5.46c-2.65,3.32-5.12,6.79-7.48,10.32a316,316,0,0,0-19.15,33A433.9,433.9,0,0,0,51.39,581.54a391.71,391.71,0,0,0-8.12,69q-.12,4.46-.13,8.91a1.52,1.52,0,0,0,1.5,1.5c8.72-.13,17.46-.29,26.17-.75a1.52,1.52,0,0,0,1.5-1.5c-1-8.92-1.06-18-1.15-26.93q-.1-10.72.07-21.46c0-3.42-.16-6.83-.16-10.25a204.87,204.87,0,0,1,1.14-21.59c1.54-14.47,4.91-28.51,9.1-42.43,4.24-14.11,8.4-28.26,12.81-42.32a146.4,146.4,0,0,1,7.63-20.07c3-6.18,6.48-12.09,9.81-18.08,6.24-11.21,11.91-23,12.56-36a39.36,39.36,0,0,0-3-17.65c-2.33-5.37-6.17-10.42-12.17-11.74C98,387.74,87.4,396,82.17,405a39,39,0,0,0-3.79,30,35.83,35.83,0,0,0,3,7.19l.53-2.05a49.39,49.39,0,0,0-19,28.74,44.66,44.66,0,0,0-.77,14.72,104.54,104.54,0,0,0,3,16.85,86.38,86.38,0,0,0,5.75,16.24c.84,1.73,3.43.21,2.59-1.52Z"/><path class="cls-1" d="M72.25,659.12c2.33-12.15,8.27-23.22,14.91-33.53a11.63,11.63,0,0,0,1.66-2.79,6.89,6.89,0,0,0,.11-1.7c0-2.87,0-5.74.07-8.61.09-10.13.27-20.26.79-30.37.25-4.89.56-9.79,1.12-14.65.7-6.12,2.07-12.16,3.16-18.22,1.44-8,2.85-16,4.63-23.88,1.26-5.62,2.93-11.09,4.41-16.64q3-11.26,6.67-22.33c4-11.85,8.4-23.68,14.4-34.66,3.56-6.53,8.29-11.95,13.26-17.42s9.75-11.25,13.33-17.81c6.72-12.34,7.95-27.2,4.35-40.72-2.58-9.72-8.06-17.84-13.39-26.21-1.08-1.7-2.13-3.42-3.07-5.2s-3.48-.19-2.59,1.51c4.27,8.11,10.22,15.18,13.78,23.69,5,11.87,5.9,26.35,1.47,38.52a64.53,64.53,0,0,1-11.74,19.29c-4.8,5.66-10.18,10.84-14.43,16.95a101.06,101.06,0,0,0-8.92,16.83c-2.59,5.83-4.92,11.79-7.06,17.8q-4.73,13.23-8.38,26.81c-.8,2.94-1.7,5.85-2.5,8.8-2.13,7.75-3.75,15.62-5.23,23.52-2.25,12-4.87,24.08-5.79,36.31-.79,10.5-1,21-1.2,31.55,0,3.9-.08,7.81-.11,11.71l0,3.43c0,.3,0,.6,0,.9,0,.61,0-.18.11-.23-.2.1-.47.79-.6,1-.41.65-.83,1.29-1.24,1.93-1.22,1.91-2.42,3.83-3.56,5.79a107.18,107.18,0,0,0-8.35,17.42,68.54,68.54,0,0,0-2.91,10.42c-.36,1.89,2.53,2.7,2.89.8Z"/><path class="cls-1" d="M137.44,651.71q-7-12.12-14-24.2c-4.63-8-9-16.18-14-23.94-5.39-8.38-9.41-17.68-13.43-26.78-1.11-2.51-2.19-5-3.21-7.57a32.87,32.87,0,0,1-1.65-4.71c-.43-1.88-3.32-1.09-2.89.8.84,3.69,2.68,7.3,4.18,10.76q3.44,7.9,7.18,15.67A109.62,109.62,0,0,0,105.46,603c4.73,7.47,9.06,15.16,13.5,22.81q8,13.72,15.89,27.45a1.5,1.5,0,0,0,2.59-1.52Z"/><path class="cls-1" d="M92.18,545.39c11.81,25.05,24.21,50,38.8,73.51,3.85,6.22,7.88,12.34,12.18,18.27,1.12,1.54,3.72.05,2.59-1.52A357.87,357.87,0,0,1,124,601.21c-7-12.3-13.45-24.85-19.71-37.51q-4.87-9.86-9.55-19.82c-.82-1.74-3.41-.22-2.59,1.51Z"/><path class="cls-1" d="M68.31,529.4a22.83,22.83,0,0,1-2.55-5.65c-1.07-3-2-6-2.94-9-1.84-6-3.46-12.11-5.93-17.87-1.25-2.92-3.32-5.28-5.06-7.92a41,41,0,0,1-5.95-14.09,53.64,53.64,0,0,1-.81-15.33c.21-2.62.56-5.23,1-7.82.2-1.12.43-2.25.67-3.36a13.93,13.93,0,0,0,.24-4,139.66,139.66,0,0,1,7.6-53.56,146.38,146.38,0,0,1,22.2-40.66A151.72,151.72,0,0,1,90,335.19c2.16-2.14,4.38-4.23,6.67-6.24,2.52-2.2,5.2-4.23,7.6-6.56,10.72-10.4,17.38-24.66,21.3-38.91a22.21,22.21,0,0,0,1-6.32c0-3.24-.28-6.47-.42-9.71-.23-5.31-.43-10.2,2.08-15,3.54-6.8,11.19-12.07,18.8-11.78,2.85.11,5.62,1.24,7,3.6a9.27,9.27,0,0,1,1.24,4.63,21.09,21.09,0,0,1-1.16,6.9c-2.34,7.36-6.86,14.19-11.76,20.07-6.1,7.33-13.13,13.81-20,20.42-3,2.94-6,5.89-8.9,9-1.29,1.42.82,3.55,2.13,2.12,12.55-13.79,28.05-25.06,37.28-41.6,4-7.13,9.67-20.52.53-26.33-6.75-4.29-16.09-.71-21.67,3.87A24.66,24.66,0,0,0,124,254.66c-1.87,5.71-1,12-.67,17.92.08,1.57.15,3.13.17,4.7a13.18,13.18,0,0,1-.14,2.63c-.66,2.57-1.36,5.12-2.18,7.64a93.9,93.9,0,0,1-9.45,20.66,65.28,65.28,0,0,1-8,10.46c-2.53,2.66-5.39,4.89-8.15,7.27A147.75,147.75,0,0,0,82,339.29a152.3,152.3,0,0,0-25,37.76,142.08,142.08,0,0,0-12.91,51.46A143.87,143.87,0,0,0,44,443.63a13.85,13.85,0,0,1,0,3.64c-.3,1.36-.57,2.72-.81,4.09-.44,2.53-.79,5.08-1,7.64-.88,10.38.67,21,6.2,30,1.87,3,4.39,5.71,5.82,9a79.87,79.87,0,0,1,2.79,7.82c2,6.41,3.82,12.93,6.12,19.26a24.8,24.8,0,0,0,2.68,5.88c1.11,1.55,3.71.06,2.59-1.52Z"/><path class="cls-1" d="M202.92,283.87c3.35-17.1,6.4-34.25,9.62-51.38q1.36-7.31,2.8-14.62c.37-1.89-2.52-2.69-2.9-.8-3.35,17.1-6.4,34.26-9.61,51.38q-1.38,7.32-2.8,14.62c-.37,1.89,2.52,2.7,2.89.8Z"/><path class="cls-1" d="M208.25,286.37C215,270,219.12,252.7,224.67,236c1.43-4.32,2.94-8.62,4.67-12.83.73-1.78-2.17-2.56-2.9-.8C219.73,238.67,215.58,256,210,272.74c-1.43,4.32-2.94,8.62-4.67,12.83-.73,1.79,2.17,2.56,2.89.8Z"/><path class="cls-1" d="M213.49,218.92c4.7,1.77,9.3,3.79,14,5.56a1.5,1.5,0,1,0,.8-2.89c-4.7-1.77-9.3-3.8-14-5.57a1.52,1.52,0,0,0-1.85,1,1.54,1.54,0,0,0,1.05,1.85Z"/><path class="cls-1" d="M176,213.8c.12,1.15.17,2.28.18,3.43,0,1.83.12,3.66.24,5.49a1.5,1.5,0,1,0,3,0c-.12-1.83-.22-3.66-.24-5.49,0-1.15-.06-2.28-.18-3.43a1.5,1.5,0,0,0-3,0Z"/><path class="cls-1" d="M170.29,226.42a40.39,40.39,0,0,0,4.56-1.35,17.78,17.78,0,0,1,3.44-.9,1.51,1.51,0,0,0,1.05-1.85,1.56,1.56,0,0,0-1.85-1,18.76,18.76,0,0,0-3.44.91,39.75,39.75,0,0,1-4.56,1.34,1.53,1.53,0,0,0-1.05,1.85,1.55,1.55,0,0,0,1.85,1Z"/><path class="cls-1" d="M184.81,211.3a33.29,33.29,0,0,0,.72,3.84c.18.76.31,1.53.42,2.31,0-.26,0-.1,0,.07s0,.25.05.37c0,.33.07.66.11,1,.08.81.14,1.62.2,2.43a1.5,1.5,0,0,0,3,0,47.56,47.56,0,0,0-.85-6.83c-.12-.54-.27-1.07-.39-1.62-.06-.26-.11-.53-.16-.8a4.17,4.17,0,0,0-.08-.49c.12.37,0,.24,0,.08s0-.22,0-.34a1.55,1.55,0,0,0-1.5-1.5c-.74,0-1.59.67-1.5,1.5Z"/><path class="cls-1" d="M199.83,210.6c-.19,3.08-.18,6.16-.25,9.25a1.5,1.5,0,0,0,3,0c.07-3.09.06-6.17.25-9.25a1.51,1.51,0,0,0-1.5-1.5,1.53,1.53,0,0,0-1.5,1.5Z"/><path class="cls-1" d="M219.14,211.47a1.5,1.5,0,0,0,0-3,1.5,1.5,0,0,0,0,3Z"/><path class="cls-1" d="M213.89,219a1.5,1.5,0,0,0,0-3,1.5,1.5,0,0,0,0,3Z"/><path class="cls-1" d="M201.39,221a1.5,1.5,0,0,0,0-3,1.5,1.5,0,0,0,0,3Z"/><path class="cls-1" d="M197.81,280.64c1.51-15.79,2.33-31.64,3.53-47.46.33-4.39.69-8.77,1.11-13.15.19-1.92-2.81-1.9-3,0-1.51,15.8-2.33,31.64-3.53,47.46-.33,4.39-.69,8.77-1.11,13.15-.19,1.92,2.81,1.91,3,0Z"/><path class="cls-1" d="M192.14,276.8c-.94-18.77-1.81-37.55-2.75-56.33-.1-1.92-3.1-1.93-3,0,.94,18.78,1.81,37.56,2.75,56.33.1,1.93,3.1,1.94,3,0Z"/><path class="cls-1" d="M187.25,272.07c-2.58-16.59-5.33-33.16-7.91-49.75-.3-1.9-3.19-1.09-2.9.8,2.59,16.59,5.34,33.16,7.92,49.75.3,1.9,3.19,1.09,2.89-.8Z"/><path class="cls-1" d="M168.39,225a59.85,59.85,0,0,0,4.19,30.45,58.15,58.15,0,0,0,24.75,27.81,71.38,71.38,0,0,0,10.6,4.94c1.81.67,2.59-2.23.8-2.9A61.76,61.76,0,0,1,188,272.66,55.13,55.13,0,0,1,171.22,238a58.68,58.68,0,0,1,.17-13c.24-1.91-2.76-1.89-3,0Z"/><path class="cls-1" d="M187.89,222l22.58-.88,3.17-.12c1.92-.07,1.93-3.07,0-3l-22.58.88-3.17.12c-1.92.08-1.93,3.08,0,3Z"/><path class="cls-1" d="M215.19,218.23c1.46-2.18,2.9-4.36,4.31-6.57l.69-1.06a1.51,1.51,0,0,0-.54-2,1.53,1.53,0,0,0-2.05.54c-1,1.55-2,3.12-3,4.66-.65,1-1.31,2-2,3a1.52,1.52,0,0,0,.53,2.06,1.54,1.54,0,0,0,2.06-.54Z"/><path class="cls-1" d="M229.06,223.54c1.53-2.44,3.11-4.84,4.68-7.25a20.74,20.74,0,0,0,2.1-3.73,1.51,1.51,0,0,0-1.05-1.85,1.54,1.54,0,0,0-1.85,1c-.13.36.19-.38,0,0l-.16.33c-.13.25-.27.49-.4.72-.42.7-.86,1.38-1.3,2.06-1.55,2.38-3.11,4.76-4.62,7.17a1.5,1.5,0,1,0,2.59,1.51Z"/><path class="cls-1" d="M168.81,214.14l-.37,9.47-.05,1.36a1.5,1.5,0,1,0,3,0l.36-9.47.06-1.36a1.5,1.5,0,0,0-3,0Z"/><path class="cls-1" d="M178.29,224.17l8.75-2,1.25-.28a1.53,1.53,0,0,0,1.05-1.85,1.55,1.55,0,0,0-1.85-1l-8.75,2-1.25.28a1.5,1.5,0,1,0,.8,2.9Z"/><path class="cls-1" d="M155.42,214l1.94,24.73.28,3.57c.15,1.92,3.15,1.93,3,0l-1.94-24.73-.28-3.57c-.15-1.91-3.16-1.93-3,0Z"/><path class="cls-1" d="M86.72,593.42q9,19,18.07,38.07c1.37,2.89,2.67,5.87,5,8.12,2.54,2.44,5.67,4.34,8.52,6.39s5.79,4.42,8.9,6.26c2.55,1.52,5.65,2.73,8.64,1.87,3.4-1,5.42-4.34,6.89-7.32a32.63,32.63,0,0,0,3-10.59c.22-1.91-2.78-1.9-3,0a28.55,28.55,0,0,1-2.42,8.69c-1.1,2.34-2.7,5.71-5.46,6.38s-5.75-1.26-7.94-2.77c-2.8-1.94-5.54-4-8.31-6-2.52-1.82-5.37-3.5-7.46-5.84-2-2.18-3-5.13-4.28-7.74q-4.17-8.78-8.32-17.54L89.31,591.9c-.83-1.74-3.41-.22-2.59,1.52Z"/></g></g></g></svg>