<?xml version="1.0" standalone="no"?>
<!DOCTYPE svg PUBLIC "-//W3C//DTD SVG 20010904//EN"
 "http://www.w3.org/TR/2001/REC-SVG-20010904/DTD/svg10.dtd">
<svg version="1.0" xmlns="http://www.w3.org/2000/svg"
 width="306.000000pt" height="234.000000pt" viewBox="0 0 306.000000 234.000000"
 preserveAspectRatio="xMidYMid meet">

<g transform="translate(0.000000,234.000000) scale(0.100000,-0.100000)"
fill="#B1A079" stroke="none">
<path d="M628 2100 c-128 -23 -226 -78 -324 -181 -106 -112 -162 -241 -185
-423 -49 -399 133 -831 455 -1080 96 -74 178 -124 278 -170 72 -34 241 -96
259 -96 5 0 9 28 9 63 l0 62 -83 41 c-240 118 -404 285 -498 506 -57 132 -85
322 -56 378 17 34 49 36 116 6 175 -78 361 -47 487 82 104 107 158 265 136
399 -29 175 -165 339 -325 392 -72 24 -199 34 -269 21z"/>
<path d="M1987 2085 c-128 -23 -226 -78 -324 -181 -106 -112 -162 -241 -185
-423 -49 -399 133 -831 455 -1080 96 -74 178 -124 278 -170 72 -34 241 -96
259 -96 5 0 9 28 9 63 l0 62 -83 41 c-240 118 -404 285 -498 506 -57 132 -85
322 -56 378 17 34 49 36 116 6 175 -78 361 -47 487 82 104 107 158 265 136
399 -29 175 -165 339 -325 392 -72 24 -199 34 -269 21z"/>
</g>
</svg>
