<svg xmlns="http://www.w3.org/2000/svg" viewBox="0 0 330 436.91"><defs><style>.cls-1{fill:#b1a079;}</style></defs><g id="Calque_2" data-name="Calque 2"><g id="main"><path class="cls-1" d="M139.8,24.73c-3,7.58-4.4,15.62-5.93,23.59A112.08,112.08,0,0,1,127.46,71,88.24,88.24,0,0,1,116,90.62c-2.29,3-4.94,5.59-7.26,8.51a18.27,18.27,0,0,0-4.08,10c-.38,4.35.55,8.73,1.32,13l2.66,14.78c.34,1.89,3.23,1.09,2.89-.8l-2.31-12.84a74.38,74.38,0,0,1-1.63-11.58,15.8,15.8,0,0,1,3.27-10.44c2.29-2.93,5-5.55,7.25-8.49a90.89,90.89,0,0,0,11.45-19.07,103.82,103.82,0,0,0,6.69-21.88C138,43,139.35,34,142.69,25.53c.71-1.8-2.19-2.57-2.89-.8Z"/><path class="cls-1" d="M108.25,128c-4.1,1.71-5.85,6.49-7.2,10.38-.71,2.07-1.31,4.18-2,6.26-1,3-2.24,6-3.4,9q-7.79,19.86-16.92,39.17C72.78,205.35,66.09,217.51,60,230a147.17,147.17,0,0,0-7.87,18.75,102.77,102.77,0,0,0-4.19,19.54c-1.85,14.9-1.64,30.27-7,44.51-.68,1.81,2.22,2.59,2.89.8,4.65-12.4,5.17-25.75,6.39-38.8a124.92,124.92,0,0,1,3.12-19.61,113.71,113.71,0,0,1,6.88-18.74c5.65-12.31,12.39-24.1,18.3-36.29q9.14-18.78,17-38.15c2.54-6.23,5.18-12.48,7.18-18.91a59.12,59.12,0,0,1,2.61-7.33c.78-1.69,1.89-4,3.73-4.81a1.55,1.55,0,0,0,1-1.85,1.5,1.5,0,0,0-1.84-1.05Z"/><path class="cls-1" d="M142.4,26.77c3.69-1.69,9-2.44,12.7-.32a20.18,20.18,0,0,1,4.82,4.11,14.69,14.69,0,0,1,3.28,5.32c.55,1.84,3.45,1.06,2.89-.8a17.59,17.59,0,0,0-3.83-6.38,22.13,22.13,0,0,0-5.88-5c-4.61-2.54-10.89-1.65-15.49.46-1.75.81-.23,3.4,1.51,2.59Z"/><path class="cls-1" d="M169.2,70.08c-2.14,6.57-4.13,13.19-6.2,19.78-2.33,7.47-4.84,14.89-7.31,22.31l-4.55,13.71c-.61,1.84,2.28,2.63,2.89.8,4.85-14.61,9.76-29.19,14.3-43.91q1.84-6,3.76-11.89c.6-1.84-2.3-2.63-2.89-.8Z"/><path class="cls-1" d="M140.21,117.33c8,1.62,10.7,10.38,11,17.55.38,8.93-1.38,17.77-3.7,26.35-1.3,4.83-2.79,9.62-4.24,14.41-.57,1.85,2.33,2.64,2.89.79,2.79-9.2,5.75-18.42,7.19-28a70.23,70.23,0,0,0,.84-14c-.23-4.33-1-8.79-3.29-12.56a15.38,15.38,0,0,0-9.9-7.44c-1.89-.38-2.69,2.51-.8,2.89Z"/><path class="cls-1" d="M41.39,312.33,26.88,332.47l-7.25,10.08c-2.22,3.08-4.54,6.13-6.55,9.36a31.45,31.45,0,0,0-4.27,9.88,63.84,63.84,0,0,0-1,10.69c-.29,7.11-.31,14.24-1,21.33C6,401.56,4.19,409.27.22,416.05a1.5,1.5,0,0,0,2.59,1.52c7.23-12.33,7.42-27,7.85-40.83.12-3.62.19-7.26.55-10.86a26.26,26.26,0,0,1,3.15-10.21,86.79,86.79,0,0,1,6.12-9.19l7.25-10.07L44,313.84c1.13-1.56-1.47-3.06-2.59-1.51Z"/><path class="cls-1" d="M181.59,157.42c-3.78,4.07-9.42,7.5-15.05,8a13.94,13.94,0,0,0-2.51.12,9.72,9.72,0,0,0-1.54.62c-1.62.73-3.21,1.53-4.8,2.32-3.88,1.93-7.73,3.92-11.66,5.74a15.72,15.72,0,0,0-5.38,3.93,28.93,28.93,0,0,0-4.4,6.75c-2.6,5.52-3.95,12.07-2.05,18,.59,1.83,3.48,1.05,2.89-.8-1.61-5-.56-10.64,1.6-15.36a26.33,26.33,0,0,1,4.08-6.48,14.71,14.71,0,0,1,5.08-3.61c3.82-1.79,7.58-3.71,11.35-5.59,1.55-.76,3.09-1.54,4.66-2.25.45-.2.6-.07.9-.37,0,0,.13,0,.17,0-.79.21.18.07.37.07a17,17,0,0,0,2.14-.15,28.13,28.13,0,0,0,16.27-8.75c1.31-1.41-.81-3.54-2.12-2.12Z"/><path class="cls-1" d="M226,117.93c3.23-1.27,6-4,8.6-6.2a106.14,106.14,0,0,0,8.36-7.79c3.35-3.6,6.81-8.07,6.57-13.23a26.4,26.4,0,0,0-1.14-6.29,11.9,11.9,0,0,0-1.57-3.81,20.66,20.66,0,0,1-3.26-5.93,21.68,21.68,0,0,1-1.45-7.2,1.5,1.5,0,0,0-3,0,26.2,26.2,0,0,0,3.4,12.26,14.15,14.15,0,0,0,1.69,2.44c.11.12.25.24.35.36-.3-.38-.14-.19-.08-.08s.23.46.25.51a24.28,24.28,0,0,1,1.46,5,12.06,12.06,0,0,1,.11,5.57,20,20,0,0,1-4.06,6.69,78.16,78.16,0,0,1-8.13,7.94c-1.64,1.45-3.3,2.88-5,4.23-.72.57-1.46,1.13-2.23,1.64-.32.22-.64.43-1,.62-.16.1-.82.42-.65.35-1.78.7-1,3.61.79,2.9Z"/><path class="cls-1" d="M295.94,121.37c3.81-2-.3-8.65-1.6-10.93a79.1,79.1,0,0,0-4.36-6.79A25,25,0,0,0,285.16,98a11.3,11.3,0,0,0-9.65-1.83c-2.48.56-4.94,1.23-7.37,2-5.66,1.7-11.22,3.73-16.72,5.9-11.29,4.44-22.36,9.45-33.3,14.7-6.42,3.08-12.89,6.16-19.16,9.56a75.52,75.52,0,0,0-10.34,7c-5.22,4.08-11,10-10.06,17.14,1,7.34,7.92,12.23,15.16,11.36a20.88,20.88,0,0,0,5.65-1.73l6.52-2.81c3.86-1.67,7.86-3.17,11.56-5.17,1.54-.83,3.05-1.72,4.57-2.57L223,151c.11-.06.33-.19.1-.09l.08,0c.42-.2.87-.35,1.29-.52l6.33-2.56,22.67-9.16,25.38-10.28c5.27-2.14,10.56-4.26,15.82-6.44.44-.18.88-.36,1.32-.56,1.75-.8.23-3.38-1.52-2.59-.33.16-.07,0,0,0l-.69.29-2.3.94-7.69,3.13-22.94,9.29-23.93,9.68-14,5.65c-3.34,1.35-6.27,3.57-9.57,5-4,1.79-8.08,3.49-12.12,5.23-3.54,1.53-7.09,3.42-11.06,2.73a10.4,10.4,0,0,1-7.77-5.75,9.88,9.88,0,0,1,.82-9.73c3.26-5.14,8.47-8.77,13.48-12.05a137.92,137.92,0,0,1,14.38-7.73c9.6-4.77,19.31-9.35,29.14-13.61,10.46-4.53,21.12-8.87,32.13-11.85,2.46-.67,5.28-1.71,7.84-1.14,2.72.6,4.42,2.49,6,4.62,2.88,3.84,5.85,8,7.6,12.53a11.52,11.52,0,0,1,.64,2.2,4.3,4.3,0,0,1,0,.51c0,.27-.08-.14,0,.1s0-.17,0,0c0-.18.41-.31,0-.13C292.71,119.67,294.22,122.26,295.94,121.37Z"/><path class="cls-1" d="M295.21,121.05a27.82,27.82,0,0,1,13.32,9.27,40.19,40.19,0,0,1,4.22,7.16c1.2,2.43,2,4.82-.16,6.94-1.38,1.36.74,3.48,2.12,2.12a7.35,7.35,0,0,0,1.63-8.29,38,38,0,0,0-4.76-8.83A30.91,30.91,0,0,0,296,118.16c-1.84-.59-2.63,2.31-.8,2.89Z"/><path class="cls-1" d="M211.59,194.42A43.93,43.93,0,0,0,204,204a50.33,50.33,0,0,0-2.9,6.9c-1.25,3.35-3.24,6.36-4.25,9.81a10.43,10.43,0,0,0-.42,5.92,12.86,12.86,0,0,0,2.71,4.75c1.24,1.37,3,2.2,4.51,3.29a11.9,11.9,0,0,0,5.44,2.65c4.58.6,9.57-1.64,13.55-3.67,4.67-2.39,9.19-5.13,13.62-7.93a105.64,105.64,0,0,0,12-8.44c7.8-6.55,14-16.51,11.4-27.05-.47-1.87-3.37-1.08-2.9.8,2.12,8.45-2.56,16.66-8.55,22.29a73.29,73.29,0,0,1-10.43,7.87q-6,3.93-12.28,7.48c-3.88,2.2-7.85,4.43-12.26,5.36-1.93.4-3.89.64-5.68-.34s-3.07-2.22-4.69-3.2a7.69,7.69,0,0,1-3-3.4,6,6,0,0,1-.37-4.56c.84-3.54,2.82-6.58,4.17-9.91.86-2.15,1.52-4.36,2.59-6.43a40.2,40.2,0,0,1,7.46-9.62,1.5,1.5,0,0,0-2.12-2.12Z"/><path class="cls-1" d="M261.53,198.05c8-1.35,16-2.45,23.91-4.18,6.84-1.49,13.63-4,18.76-8.9a22,22,0,0,0,5.79-9.06c.6-1.84-2.3-2.63-2.9-.8-2.57,7.89-10.27,12.44-17.8,14.69a114.69,114.69,0,0,1-13.5,2.81l-15.06,2.54c-1.9.32-1.09,3.22.8,2.9Z"/><path class="cls-1" d="M169.4,375.82c-2.75,8.17-5.82,16.24-8.58,24.41a112.94,112.94,0,0,0-4.5,18.48c-.88,5.57-1.54,11.17-2.17,16.77-.22,1.92,2.78,1.9,3,0,.94-8.38,1.87-16.84,3.82-25.06a167,167,0,0,1,5.75-17.89c1.91-5.29,3.78-10.59,5.57-15.92.62-1.83-2.28-2.62-2.89-.79Z"/><path class="cls-1" d="M162.15,46c.06,18.41,10.56,36.31,28,43.24a39.62,39.62,0,0,0,26.27,1,42.81,42.81,0,0,0,21.06-15c11.49-15,12.76-36.54,3.55-53A44,44,0,0,0,222.16,4.06a40.1,40.1,0,0,0-26-3.17c-18,3.89-31,20.05-33.5,37.86a51.5,51.5,0,0,0-.53,7.23,1.5,1.5,0,0,0,3,0c.06-17,9.69-34,25.94-40.41a37,37,0,0,1,24.37-1,39.49,39.49,0,0,1,19.71,14.07,46.27,46.27,0,0,1,3.26,49.59,41.32,41.32,0,0,1-17.49,16.9,36.82,36.82,0,0,1-24.12,3C180,84.42,168.1,69.42,165.62,52.76a46.54,46.54,0,0,1-.47-6.78A1.5,1.5,0,0,0,162.15,46Z"/><path class="cls-1" d="M200.44,221.07A113.68,113.68,0,0,1,209,210.81c1.5-1.58,3-3.13,4.63-4.63s3-2.87,5.11-1.68a13.48,13.48,0,0,1,4.23,3.37c1.29,1.76.75,3.77-.15,5.58a36.82,36.82,0,0,1-7.61,10.29c-1.76,1.69-3.61,3.33-5.53,4.84a13.91,13.91,0,0,1-2.77,1.61c-.54.25-1.94,1.32-2.53,1-1.69-.93-3.2,1.66-1.51,2.59,2.12,1.18,4.12-.34,6.05-1.2,2.28-1,4.2-2.95,6.07-4.57a43.62,43.62,0,0,0,10-12.26c1.17-2.22,2.21-4.73,1.54-7.27-.6-2.26-2.39-3.89-4.23-5.2s-3.95-2.73-6.38-2.14-4.34,2.8-6.07,4.5a118.28,118.28,0,0,0-12.05,13.92c-1.15,1.56,1.45,3,2.59,1.52Z"/><path class="cls-1" d="M189.4,180.77c2.76-2,7-3.32,10.1-1.18,3.23,2.27,2.83,6.59.26,9.16a22.86,22.86,0,0,1-4.3,3.13l-5.85,3.58c-3,1.81-6.4,3.46-10,3.52-1.93,0-1.94,3,0,3a22.23,22.23,0,0,0,10-3.11,94.33,94.33,0,0,0,9.83-6.06c2.86-2.05,5.28-4.8,5.32-8.5a8.69,8.69,0,0,0-5.75-8.26c-3.67-1.35-8.15-.05-11.21,2.13-1.56,1.12-.06,3.72,1.51,2.59Z"/><path class="cls-1" d="M184.92,160.77q4.38-1.41,8.67-3.1c2.52-1,5.38-1.91,7.6-3.48s4.14-3.93,6-5.9a11.52,11.52,0,0,0,3.15-5.65c.5-2.58-.56-4.26-2.35-6a9.22,9.22,0,0,0-6.58-2.69c-2.69.13-5.09,1.5-7.36,2.83a36.74,36.74,0,0,0-7.51,6c-2.42,2.45-4.89,4.86-7.12,7.48-1.24,1.46.87,3.6,2.12,2.12,1.65-1.94,3.44-3.74,5.23-5.56a57.85,57.85,0,0,1,5.71-5.47,32.9,32.9,0,0,1,6.08-3.65,6.23,6.23,0,0,1,6.13.13,10.6,10.6,0,0,1,2.18,1.94,2.48,2.48,0,0,1,.43,2.64,9.21,9.21,0,0,1-2.46,4,57.55,57.55,0,0,1-5,5c-2,1.64-4.92,2.48-7.32,3.43-2.78,1.1-5.6,2.1-8.45,3-1.83.59-1.05,3.49.8,2.89Z"/><path class="cls-1" d="M240.69,27.83c3.81,5.49,7.65,11,11.32,16.55a39.34,39.34,0,0,1,4.24,8.07,19.46,19.46,0,0,0,1.83,4A19.58,19.58,0,0,0,261,59.73c1.39,1.34,3.51-.78,2.12-2.13a15,15,0,0,1-2.74-3.21,26.5,26.5,0,0,1-1.64-3.93,40.42,40.42,0,0,0-4.37-8C250.74,37,247,31.67,243.28,26.32c-1.09-1.57-3.69-.08-2.59,1.51Z"/><path class="cls-1" d="M260.62,59.3c3.85,6.6,9.93,11.68,13.3,18.59.9,1.85,1.57,3.82,2.39,5.71s1.86,3.92,2.89,5.83,2.09,3.8,3.1,5.72c.87,1.64,2.26,3.65,1.51,5.55s2.19,2.58,2.89.8c.79-2,.1-4-.77-5.84-1-2.08-2.15-4.09-3.25-6.11s-2.07-3.82-3-5.78-1.73-4.16-2.63-6.22c-3.27-7.48-9.77-12.79-13.84-19.76a1.5,1.5,0,0,0-2.59,1.51Z"/><path class="cls-1" d="M266,219.7c5.52-8.1,10.9-17.06,19.3-22.52a20.9,20.9,0,0,1,14.59-3.51,5.28,5.28,0,0,1,1.37.32,3.76,3.76,0,0,1,.56.3c-.57-.36.16.34.34.57a21.85,21.85,0,0,0,3.37,3.36,39.26,39.26,0,0,0,8.49,5c1.48.67,3,1.3,4.51,1.91s3.3,1.43,5.06,1c2.92-.8,3.87-4.1,4.31-6.72q1-6.06,1.54-12.19a89.54,89.54,0,0,0,.47-11.92,15.77,15.77,0,0,0-1.28-5.58,55.77,55.77,0,0,1-2.15-5.26c-1.07-3.56-1.62-7.21-3-10.66-1-2.52-2.26-5.22-4.38-7a6.93,6.93,0,0,0-3.43-1.68,5.83,5.83,0,0,0-.7-.09s.6.23.25.09c-.19-.07-.36-.2-.56-.27a11.19,11.19,0,0,0-2.78-.33,62.71,62.71,0,0,0-32.38,6.57c-1.86.93-3.66,1.93-5.53,2.83-8.23,4-16.67,7.69-25.21,10.91a52.65,52.65,0,0,0-13.14,6.83,108.18,108.18,0,0,0-12.72,11.49c-7.84,8-15.79,17-26.59,21-3.28,1.2-7,2.07-10.41.93a12.1,12.1,0,0,1-7.69-12.6c.05-.3.15-.6.19-.9s.12-.57-.13-.15a3.09,3.09,0,0,1,.36-.45c.56-.69,1.14-1.36,1.72-2a48.8,48.8,0,0,1,5.64-5.68c2.43-2,5.41-3.05,7.59-5.39,2.46-2.65,4.25-5.83,6.77-8.43,2.7-2.8,5.72-5.29,8.64-7.85l9.16-8c1.46-1.28-.67-3.39-2.12-2.12l-9.34,8.18c-2.92,2.56-5.93,5-8.62,7.85-2.5,2.61-4.26,5.81-6.75,8.41-2.16,2.27-5.18,3.35-7.57,5.35a51,51,0,0,0-5.61,5.68c-1.07,1.23-2.28,2.38-2.67,4a14.94,14.94,0,0,0,5.48,14.77c5.49,4.3,12.41,3,18.38.44a53.76,53.76,0,0,0,14-9.32c8.6-7.59,15.7-16.94,25.18-23.51a43.89,43.89,0,0,1,7.18-4.09c1.63-.71,3.34-1.25,5-1.89,4.23-1.66,8.41-3.45,12.58-5.26,4.43-1.92,8.85-3.86,13.19-6,2.2-1.08,4.33-2.31,6.57-3.33a60.38,60.38,0,0,1,21.61-5.26c1.91-.09,3.82-.1,5.73,0,.88,0,1.76.09,2.64.17l.66.06s-.43-.17-.13-.06.48.28.75.36a12.06,12.06,0,0,1,1.66.3,4.62,4.62,0,0,1,1.51,1.07,12.49,12.49,0,0,1,2.27,3.34,44,44,0,0,1,3.18,9.75,35.25,35.25,0,0,0,1.67,5.41,32.37,32.37,0,0,1,2.16,5.45,24.31,24.31,0,0,1,.23,5.72c-.06,2-.15,4.05-.29,6.06q-.43,6.21-1.4,12.37a15.14,15.14,0,0,1-1.11,4.51c-.86,1.69-2.1,1.41-3.69.79-6-2.34-12.36-5-16.36-10.28-1.46-1.91-4.64-1.93-6.83-2a22,22,0,0,0-7.71,1.29c-9.89,3.54-16.68,12.58-22.39,20.94-1.24,1.82-2.46,3.67-3.71,5.5-1.09,1.6,1.51,3.1,2.59,1.51Z"/><path class="cls-1" d="M323.07,204.05c-3,8.27-7.76,16-12.38,23.48A251.06,251.06,0,0,1,293,252.79a83.72,83.72,0,0,1-7.66,8.52,17.74,17.74,0,0,1-2.8,2.28c-.21.13-.43.25-.65.37l-.28.14s.25-.1,0,0a2.5,2.5,0,0,0-1.27.94c-2.28,3.34-4.41,6.77-6.65,10.13-2.83,4.25-5.53,8.73-8.82,12.64-5.59,6.66-12.15,12.58-18.63,18.36l-.46.41a1.51,1.51,0,0,0-.24,1.81c3.45,6.81,1.27,14.77-2.43,21s-8.84,11.84-13.8,17.15a94.38,94.38,0,0,1-16.13,14.14,56.73,56.73,0,0,1-20,8.46c-4.53,1-9.13,1.57-13.7,2.26l-14.82,2.25c-1.91.29-1.1,3.18.79,2.89,8.89-1.34,17.85-2.46,26.68-4.13a60.1,60.1,0,0,0,21.55-8.48,94.14,94.14,0,0,0,17-14.52c5.26-5.54,10.6-11.44,14.63-17.95,4.51-7.29,6.84-16.52,2.77-24.54l-.23,1.82c4.76-4.2,9.4-8.55,13.84-13.07a73.33,73.33,0,0,0,7.83-9.06c2.8-4,5.5-8,8.18-12.1q2.67-4,5.3-8.09l-.9.69c2.87-.86,5.25-3.47,7.25-5.56A129,129,0,0,0,299,249.92a267.29,267.29,0,0,0,19.87-30.41A104,104,0,0,0,326,204.85c.66-1.82-2.24-2.6-2.9-.8Z"/><path class="cls-1" d="M270.58,232.51c8.19,1.89,9.07,13,9.12,19.79a1.5,1.5,0,0,0,3,0c-.06-8.25-1.62-20.45-11.33-22.68-1.87-.43-2.68,2.46-.79,2.89Z"/><path class="cls-1" d="M249.35,215.24c2.07,2.88,4,5.86,6.07,8.74a1.5,1.5,0,0,0,2.59-1.51c-2.07-2.89-4-5.86-6.07-8.75a1.54,1.54,0,0,0-2.05-.54,1.53,1.53,0,0,0-.54,2.06Z"/><path class="cls-1" d="M152.71,343.38c.94,4.78,1.94,9.59,4,14a15.1,15.1,0,0,0,5.69,6.74c6.23,4,14,6.12,21.27,7.07a45,45,0,0,0,14.33-.29c1.9-.37,1.1-3.26-.79-2.9-7.7,1.5-15.86.32-23.27-2a44.38,44.38,0,0,1-8.84-3.75,11.89,11.89,0,0,1-5.12-5c-2.45-4.51-3.43-9.66-4.42-14.65-.38-1.89-3.27-1.09-2.89.8Z"/><path class="cls-1" d="M50.89,351.5c-1.75,7.14-3.47,14.37-2.38,21.75a1.5,1.5,0,0,0,1.84,1.05,1.54,1.54,0,0,0,1-1.85c-1-6.79.78-13.6,2.39-20.16.46-1.87-2.43-2.67-2.9-.79Z"/><path class="cls-1" d="M141.3,341.52A36,36,0,0,1,117,358.33a50.37,50.37,0,0,1-13,.35c-4.32-.31-8.63-.77-12.9-1.5a52,52,0,0,1-14.21-4.13c-1.73-.86-3.25,1.73-1.52,2.59,8.34,4.13,18.18,5.22,27.35,5.94a58.92,58.92,0,0,0,13.73-.12A39.47,39.47,0,0,0,131.18,356a38.55,38.55,0,0,0,12.71-13,1.5,1.5,0,0,0-2.59-1.51Z"/><path class="cls-1" d="M160.22,285.67c-6.94,11.33-13.85,22.6-18.28,35.2-1.41,4-2.63,8.1-3.74,12.21a1.5,1.5,0,0,0,2.89.8,143.26,143.26,0,0,1,6.62-19.59,148.55,148.55,0,0,1,8.54-16.3c2.15-3.63,4.36-7.21,6.56-10.81,1-1.65-1.59-3.15-2.59-1.51Z"/><path class="cls-1" d="M163.65,169c4,.32,7.91,2.4,11.27,4.43s7,4.57,9.43,7.83c1.14,1.53,3.74,0,2.59-1.52a35.84,35.84,0,0,0-10.5-8.9c-3.86-2.33-8.24-4.47-12.79-4.84-1.93-.16-1.92,2.84,0,3Z"/><path class="cls-1" d="M154.35,170.72a37.44,37.44,0,0,0-.81,26.49c3,8.95,8.44,16.83,13.4,24.78,4.8,7.69,9.55,15.61,12.27,24.32a46.53,46.53,0,0,1,2.2,13.35,64.38,64.38,0,0,1-1.62,14c-2.24,10.51-5.86,20.77-6.43,31.58-.1,1.93,2.9,1.92,3,0,.5-9.48,3.47-18.57,5.64-27.75,2.13-9,3.29-18.19,1.33-27.36-1.87-8.71-6-16.76-10.54-24.35-4.71-7.92-10.16-15.47-14.1-23.82-4.38-9.3-5.89-20.05-1.75-29.75.75-1.76-1.83-3.29-2.59-1.52Z"/><path class="cls-1" d="M192.46,281.23a67.57,67.57,0,0,0,40.08-23.06c3-3.59,5.86-7.46,9.71-10.22,1.55-1.11.06-3.72-1.52-2.59a46.93,46.93,0,0,0-8.56,8.57,81.91,81.91,0,0,1-8.06,8.7,63.9,63.9,0,0,1-19.71,12.19,64.69,64.69,0,0,1-12.74,3.52c-1.9.32-1.09,3.21.8,2.89Z"/><path class="cls-1" d="M183.27,302.42A98.66,98.66,0,0,1,224.5,279a96.14,96.14,0,0,1,13.33-2.76,1.54,1.54,0,0,0,1.5-1.5,1.52,1.52,0,0,0-1.5-1.5,101.4,101.4,0,0,0-56.68,27.05c-1.4,1.34.72,3.46,2.12,2.12Z"/><path class="cls-1" d="M142.77,28.17c2.72.79,2.14,4.61,1.82,6.7a49.6,49.6,0,0,1-1.92,8,47.87,47.87,0,0,1-7.77,14.47c-1.18,1.5.93,3.64,2.12,2.12a51.73,51.73,0,0,0,9-17.4,39.78,39.78,0,0,0,1.79-9.59c.12-3.05-1.12-6.25-4.28-7.17a1.5,1.5,0,0,0-.8,2.89Z"/><path class="cls-1" d="M109.69,168.67a343.45,343.45,0,0,1-10.88,34.46c-4.19,11.15-9.09,21.94-14.25,32.67a149.37,149.37,0,0,0-6.87,16.06,91.76,91.76,0,0,0-3.91,17.64c-.83,6-1.4,12.08-2.48,18.07a174.55,174.55,0,0,1-4.52,17.08C63.72,315.26,62,328.41,70.63,337a1.5,1.5,0,0,0,2.12-2.12c-7.41-7.42-6-18.95-3.45-28.13,1.55-5.59,3.45-11.07,4.58-16.78s1.76-11.66,2.5-17.51a104.06,104.06,0,0,1,3.41-17.41A119.4,119.4,0,0,1,86.35,239c5-10.55,10-21.09,14.18-32a343.1,343.1,0,0,0,12.06-37.54,1.5,1.5,0,0,0-2.9-.79Z"/></g></g></svg>